<?xml version="1.0" encoding="UTF-8" standalone="no"?>
<!DOCTYPE svg PUBLIC "-//W3C//DTD SVG 1.1//EN"
 "http://www.w3.org/Graphics/SVG/1.1/DTD/svg11.dtd">
<!-- Generated by graphviz version 2.43.0 (0)
 -->
<!-- Title: snakemake_dag Pages: 1 -->
<svg width="560pt" height="476pt"
 viewBox="0.00 0.00 560.00 476.00" xmlns="http://www.w3.org/2000/svg" xmlns:xlink="http://www.w3.org/1999/xlink">
<g id="graph0" class="graph" transform="scale(1 1) rotate(0) translate(4 472)">
<title>snakemake_dag</title>
<polygon fill="white" stroke="transparent" points="-4,4 -4,-472 556,-472 556,4 -4,4"/>
<!-- 0 -->
<g id="node1" class="node">
<title>0</title>
<path fill="none" stroke="#568ad8" stroke-width="2" d="M235,-36C235,-36 205,-36 205,-36 199,-36 193,-30 193,-24 193,-24 193,-12 193,-12 193,-6 199,0 205,0 205,0 235,0 235,0 241,0 247,-6 247,-12 247,-12 247,-24 247,-24 247,-30 241,-36 235,-36"/>
<text text-anchor="middle" x="220" y="-15.5" font-family="sans" font-size="10.00">all</text>
</g>
<!-- 1 -->
<g id="node2" class="node">
<title>1</title>
<path fill="none" stroke="#56c1d8" stroke-width="2" d="M104,-468C104,-468 12,-468 12,-468 6,-468 0,-462 0,-456 0,-456 0,-444 0,-444 0,-438 6,-432 12,-432 12,-432 104,-432 104,-432 110,-432 116,-438 116,-444 116,-444 116,-456 116,-456 116,-462 110,-468 104,-468"/>
<text text-anchor="middle" x="58" y="-447.5" font-family="sans" font-size="10.00">padd_target_regions</text>
</g>
<!-- 1&#45;&gt;0 -->
<g id="edge8" class="edge">
<title>1&#45;&gt;0</title>
<path fill="none" stroke="grey" stroke-width="2" d="M48.62,-431.75C43.41,-421.59 37.16,-408.34 33,-396 20.06,-357.68 14,-347.45 14,-307 14,-307 14,-307 14,-161 14,-79.9 123.57,-41.57 182.89,-26.76"/>
<polygon fill="grey" stroke="grey" stroke-width="2" points="183.74,-30.15 192.64,-24.42 182.1,-23.34 183.74,-30.15"/>
</g>
<!-- 4 -->
<g id="node5" class="node">
<title>4</title>
<path fill="none" stroke="#88d856" stroke-width="2" d="M148,-396C148,-396 54,-396 54,-396 48,-396 42,-390 42,-384 42,-384 42,-372 42,-372 42,-366 48,-360 54,-360 54,-360 148,-360 148,-360 154,-360 160,-366 160,-372 160,-372 160,-384 160,-384 160,-390 154,-396 148,-396"/>
<text text-anchor="middle" x="101" y="-375.5" font-family="sans" font-size="10.00">snv_indels_bed_split</text>
</g>
<!-- 1&#45;&gt;4 -->
<g id="edge11" class="edge">
<title>1&#45;&gt;4</title>
<path fill="none" stroke="grey" stroke-width="2" d="M68.63,-431.7C73.63,-423.56 79.69,-413.69 85.21,-404.7"/>
<polygon fill="grey" stroke="grey" stroke-width="2" points="88.24,-406.46 90.49,-396.1 82.28,-402.79 88.24,-406.46"/>
</g>
<!-- 2 -->
<g id="node3" class="node">
<title>2</title>
<path fill="none" stroke="#59d856" stroke-width="2" d="M512,-324C512,-324 348,-324 348,-324 342,-324 336,-318 336,-312 336,-312 336,-300 336,-300 336,-294 342,-288 348,-288 348,-288 512,-288 512,-288 518,-288 524,-294 524,-300 524,-300 524,-312 524,-312 524,-318 518,-324 512,-324"/>
<text text-anchor="middle" x="430" y="-303.5" font-family="sans" font-size="10.00">alignment_samtools_extract_reads</text>
</g>
<!-- 2&#45;&gt;0 -->
<g id="edge4" class="edge">
<title>2&#45;&gt;0</title>
<path fill="none" stroke="grey" stroke-width="2" d="M431.62,-287.84C434.65,-245.48 436.36,-134.83 380,-72 348.7,-37.11 293.92,-25.13 257.31,-21.05"/>
<polygon fill="grey" stroke="grey" stroke-width="2" points="257.32,-17.54 247.03,-20.06 256.65,-24.5 257.32,-17.54"/>
</g>
<!-- 5 -->
<g id="node6" class="node">
<title>5</title>
<path fill="none" stroke="#d85656" stroke-width="2" d="M474,-468C474,-468 310,-468 310,-468 304,-468 298,-462 298,-456 298,-456 298,-444 298,-444 298,-438 304,-432 310,-432 310,-432 474,-432 474,-432 480,-432 486,-438 486,-444 486,-444 486,-456 486,-456 486,-462 480,-468 474,-468"/>
<text text-anchor="middle" x="392" y="-447.5" font-family="sans" font-size="10.00">alignment_picard_mark_duplicates</text>
</g>
<!-- 2&#45;&gt;5 -->
<g id="edge12" class="edge">
<title>2&#45;&gt;5</title>
<path fill="none" stroke="grey" stroke-width="2" d="M425.4,-324.19C418.89,-348.53 406.91,-393.28 399.21,-422.06"/>
<polygon fill="grey" stroke="grey" stroke-width="2" points="395.79,-421.31 396.58,-431.87 402.55,-423.12 395.79,-421.31"/>
</g>
<!-- 3 -->
<g id="node4" class="node">
<title>3</title>
<path fill="none" stroke="#d8bc56" stroke-width="2" d="M352.5,-396C352.5,-396 227.5,-396 227.5,-396 221.5,-396 215.5,-390 215.5,-384 215.5,-384 215.5,-372 215.5,-372 215.5,-366 221.5,-360 227.5,-360 227.5,-360 352.5,-360 352.5,-360 358.5,-360 364.5,-366 364.5,-372 364.5,-372 364.5,-384 364.5,-384 364.5,-390 358.5,-396 352.5,-396"/>
<text text-anchor="middle" x="290" y="-375.5" font-family="sans" font-size="10.00">alignment_samtools_index</text>
</g>
<!-- 3&#45;&gt;2 -->
<g id="edge9" class="edge">
<title>3&#45;&gt;2</title>
<path fill="none" stroke="grey" stroke-width="2" d="M324.25,-359.88C343.06,-350.47 366.58,-338.71 386.67,-328.67"/>
<polygon fill="grey" stroke="grey" stroke-width="2" points="388.24,-331.79 395.62,-324.19 385.11,-325.53 388.24,-331.79"/>
</g>
<!-- 6 -->
<g id="node7" class="node">
<title>6</title>
<path fill="none" stroke="#56d8c1" stroke-width="2" d="M265.5,-324C265.5,-324 140.5,-324 140.5,-324 134.5,-324 128.5,-318 128.5,-312 128.5,-312 128.5,-300 128.5,-300 128.5,-294 134.5,-288 140.5,-288 140.5,-288 265.5,-288 265.5,-288 271.5,-288 277.5,-294 277.5,-300 277.5,-300 277.5,-312 277.5,-312 277.5,-318 271.5,-324 265.5,-324"/>
<text text-anchor="middle" x="203" y="-303.5" font-family="sans" font-size="10.00">snv_indels_haplotypecaller</text>
</g>
<!-- 3&#45;&gt;6 -->
<g id="edge13" class="edge">
<title>3&#45;&gt;6</title>
<path fill="none" stroke="grey" stroke-width="2" d="M268.49,-359.7C257.54,-350.88 244.05,-340.03 232.18,-330.47"/>
<polygon fill="grey" stroke="grey" stroke-width="2" points="234.24,-327.65 224.26,-324.1 229.86,-333.1 234.24,-327.65"/>
</g>
<!-- 4&#45;&gt;0 -->
<g id="edge3" class="edge">
<title>4&#45;&gt;0</title>
<path fill="none" stroke="grey" stroke-width="2" d="M101,-359.95C101,-333.29 101,-280.11 101,-235 101,-235 101,-235 101,-161 101,-108.52 149.35,-65.25 184.41,-40.77"/>
<polygon fill="grey" stroke="grey" stroke-width="2" points="186.68,-43.46 193,-34.96 182.75,-37.66 186.68,-43.46"/>
</g>
<!-- 4&#45;&gt;6 -->
<g id="edge14" class="edge">
<title>4&#45;&gt;6</title>
<path fill="none" stroke="grey" stroke-width="2" d="M125.95,-359.88C139.04,-350.89 155.26,-339.76 169.44,-330.03"/>
<polygon fill="grey" stroke="grey" stroke-width="2" points="171.69,-332.73 177.95,-324.19 167.73,-326.96 171.69,-332.73"/>
</g>
<!-- 5&#45;&gt;0 -->
<g id="edge1" class="edge">
<title>5&#45;&gt;0</title>
<path fill="none" stroke="grey" stroke-width="2" d="M436.57,-431.93C483.91,-410.55 552,-369.02 552,-307 552,-307 552,-307 552,-161 552,-34.02 344.16,-19.08 257.37,-18.38"/>
<polygon fill="grey" stroke="grey" stroke-width="2" points="257.18,-14.88 247.17,-18.36 257.16,-21.88 257.18,-14.88"/>
</g>
<!-- 5&#45;&gt;3 -->
<g id="edge10" class="edge">
<title>5&#45;&gt;3</title>
<path fill="none" stroke="grey" stroke-width="2" d="M367.05,-431.88C353.96,-422.89 337.74,-411.76 323.56,-402.03"/>
<polygon fill="grey" stroke="grey" stroke-width="2" points="325.27,-398.96 315.05,-396.19 321.31,-404.73 325.27,-398.96"/>
</g>
<!-- 5&#45;&gt;6 -->
<g id="edge15" class="edge">
<title>5&#45;&gt;6</title>
<path fill="none" stroke="grey" stroke-width="2" d="M297.81,-432.54C258.46,-423.62 219.06,-411.27 207,-396 193.41,-378.79 193.65,-353.35 196.56,-334.08"/>
<polygon fill="grey" stroke="grey" stroke-width="2" points="200.03,-334.56 198.38,-324.09 193.14,-333.3 200.03,-334.56"/>
</g>
<!-- 8 -->
<g id="node9" class="node">
<title>8</title>
<path fill="none" stroke="#d88d56" stroke-width="2" d="M330,-180C330,-180 250,-180 250,-180 244,-180 238,-174 238,-168 238,-168 238,-156 238,-156 238,-150 244,-144 250,-144 250,-144 330,-144 330,-144 336,-144 342,-150 342,-156 342,-156 342,-168 342,-168 342,-174 336,-180 330,-180"/>
<text text-anchor="middle" x="290" y="-159.5" font-family="sans" font-size="10.00">variant_annotator</text>
</g>
<!-- 5&#45;&gt;8 -->
<g id="edge18" class="edge">
<title>5&#45;&gt;8</title>
<path fill="none" stroke="grey" stroke-width="2" d="M392.03,-431.96C391.32,-413.03 387.86,-382.19 374,-360 360.06,-337.68 341.23,-346.13 327,-324 300.4,-282.64 292.84,-224.47 290.74,-190.55"/>
<polygon fill="grey" stroke="grey" stroke-width="2" points="294.23,-190.26 290.23,-180.45 287.24,-190.61 294.23,-190.26"/>
</g>
<!-- 6&#45;&gt;0 -->
<g id="edge7" class="edge">
<title>6&#45;&gt;0</title>
<path fill="none" stroke="grey" stroke-width="2" d="M190.27,-287.85C183.71,-277.92 176.39,-264.88 173,-252 168.92,-236.53 171.13,-231.89 173,-216 180.28,-154.08 200.03,-83.42 211.48,-45.84"/>
<polygon fill="grey" stroke="grey" stroke-width="2" points="214.86,-46.73 214.47,-36.15 208.17,-44.67 214.86,-46.73"/>
</g>
<!-- 7 -->
<g id="node8" class="node">
<title>7</title>
<path fill="none" stroke="#bed856" stroke-width="2" d="M268,-252C268,-252 194,-252 194,-252 188,-252 182,-246 182,-240 182,-240 182,-228 182,-228 182,-222 188,-216 194,-216 194,-216 268,-216 268,-216 274,-216 280,-222 280,-228 280,-228 280,-240 280,-240 280,-246 274,-252 268,-252"/>
<text text-anchor="middle" x="231" y="-231.5" font-family="sans" font-size="10.00">variant_filtration</text>
</g>
<!-- 6&#45;&gt;7 -->
<g id="edge16" class="edge">
<title>6&#45;&gt;7</title>
<path fill="none" stroke="grey" stroke-width="2" d="M209.92,-287.7C213.07,-279.81 216.88,-270.3 220.38,-261.55"/>
<polygon fill="grey" stroke="grey" stroke-width="2" points="223.69,-262.69 224.16,-252.1 217.19,-260.09 223.69,-262.69"/>
</g>
<!-- 7&#45;&gt;0 -->
<g id="edge5" class="edge">
<title>7&#45;&gt;0</title>
<path fill="none" stroke="grey" stroke-width="2" d="M230.12,-215.85C228.22,-178.83 223.71,-91.18 221.41,-46.39"/>
<polygon fill="grey" stroke="grey" stroke-width="2" points="224.89,-46.04 220.89,-36.23 217.9,-46.4 224.89,-46.04"/>
</g>
<!-- 7&#45;&gt;8 -->
<g id="edge17" class="edge">
<title>7&#45;&gt;8</title>
<path fill="none" stroke="grey" stroke-width="2" d="M245.58,-215.7C252.66,-207.3 261.28,-197.07 269.05,-187.86"/>
<polygon fill="grey" stroke="grey" stroke-width="2" points="271.81,-190.01 275.58,-180.1 266.46,-185.49 271.81,-190.01"/>
</g>
<!-- 8&#45;&gt;0 -->
<g id="edge2" class="edge">
<title>8&#45;&gt;0</title>
<path fill="none" stroke="grey" stroke-width="2" d="M278.7,-143.68C272.27,-133.5 264.27,-120.25 258,-108 247.51,-87.53 237.38,-63.5 230.21,-45.58"/>
<polygon fill="grey" stroke="grey" stroke-width="2" points="233.38,-44.07 226.46,-36.05 226.87,-46.64 233.38,-44.07"/>
</g>
<!-- 9 -->
<g id="node10" class="node">
<title>9</title>
<path fill="none" stroke="#56d88a" stroke-width="2" d="M359,-108C359,-108 279,-108 279,-108 273,-108 267,-102 267,-96 267,-96 267,-84 267,-84 267,-78 273,-72 279,-72 279,-72 359,-72 359,-72 365,-72 371,-78 371,-84 371,-84 371,-96 371,-96 371,-102 365,-108 359,-108"/>
<text text-anchor="middle" x="319" y="-87.5" font-family="sans" font-size="10.00">detected_variants</text>
</g>
<!-- 8&#45;&gt;9 -->
<g id="edge19" class="edge">
<title>8&#45;&gt;9</title>
<path fill="none" stroke="grey" stroke-width="2" d="M297.17,-143.7C300.43,-135.81 304.37,-126.3 308,-117.55"/>
<polygon fill="grey" stroke="grey" stroke-width="2" points="311.32,-118.68 311.91,-108.1 304.85,-116 311.32,-118.68"/>
</g>
<!-- 9&#45;&gt;0 -->
<g id="edge6" class="edge">
<title>9&#45;&gt;0</title>
<path fill="none" stroke="grey" stroke-width="2" d="M294.78,-71.88C282.08,-62.89 266.34,-51.76 252.58,-42.03"/>
<polygon fill="grey" stroke="grey" stroke-width="2" points="254.5,-39.11 244.31,-36.19 250.46,-44.82 254.5,-39.11"/>
</g>
</g>
</svg>
