<?xml version="1.0" encoding="UTF-8" standalone="no"?>
<!DOCTYPE svg PUBLIC "-//W3C//DTD SVG 1.1//EN"
 "http://www.w3.org/Graphics/SVG/1.1/DTD/svg11.dtd">
<!-- Generated by graphviz version 2.43.0 (0)
 -->
<!-- Title: snakemake_dag Pages: 1 -->
<svg width="669pt" height="548pt"
 viewBox="0.00 0.00 669.00 548.00" xmlns="http://www.w3.org/2000/svg" xmlns:xlink="http://www.w3.org/1999/xlink">
<g id="graph0" class="graph" transform="scale(1 1) rotate(0) translate(4 544)">
<title>snakemake_dag</title>
<polygon fill="white" stroke="transparent" points="-4,4 -4,-544 665,-544 665,4 -4,4"/>
<!-- 0 -->
<g id="node1" class="node">
<title>0</title>
<path fill="none" stroke="#56d892" stroke-width="2" d="M322,-36C322,-36 292,-36 292,-36 286,-36 280,-30 280,-24 280,-24 280,-12 280,-12 280,-6 286,0 292,0 292,0 322,0 322,0 328,0 334,-6 334,-12 334,-12 334,-24 334,-24 334,-30 328,-36 322,-36"/>
<text text-anchor="middle" x="307" y="-15.5" font-family="sans" font-size="10.00">all</text>
</g>
<!-- 1 -->
<g id="node2" class="node">
<title>1</title>
<path fill="none" stroke="#56a9d8" stroke-width="2" d="M104,-540C104,-540 12,-540 12,-540 6,-540 0,-534 0,-528 0,-528 0,-516 0,-516 0,-510 6,-504 12,-504 12,-504 104,-504 104,-504 110,-504 116,-510 116,-516 116,-516 116,-528 116,-528 116,-534 110,-540 104,-540"/>
<text text-anchor="middle" x="58" y="-519.5" font-family="sans" font-size="10.00">padd_target_regions</text>
</g>
<!-- 1&#45;&gt;0 -->
<g id="edge10" class="edge">
<title>1&#45;&gt;0</title>
<path fill="none" stroke="grey" stroke-width="2" d="M48.62,-503.75C43.41,-493.59 37.16,-480.34 33,-468 20.06,-429.68 14,-419.45 14,-379 14,-379 14,-379 14,-161 14,-115.19 28.96,-98.96 66,-72 127.27,-27.39 218.96,-19.13 269.75,-18.28"/>
<polygon fill="grey" stroke="grey" stroke-width="2" points="269.98,-21.78 279.95,-18.2 269.92,-14.78 269.98,-21.78"/>
</g>
<!-- 4 -->
<g id="node5" class="node">
<title>4</title>
<path fill="none" stroke="#56d8b9" stroke-width="2" d="M148,-468C148,-468 54,-468 54,-468 48,-468 42,-462 42,-456 42,-456 42,-444 42,-444 42,-438 48,-432 54,-432 54,-432 148,-432 148,-432 154,-432 160,-438 160,-444 160,-444 160,-456 160,-456 160,-462 154,-468 148,-468"/>
<text text-anchor="middle" x="101" y="-447.5" font-family="sans" font-size="10.00">snv_indels_bed_split</text>
</g>
<!-- 1&#45;&gt;4 -->
<g id="edge14" class="edge">
<title>1&#45;&gt;4</title>
<path fill="none" stroke="grey" stroke-width="2" d="M68.63,-503.7C73.63,-495.56 79.69,-485.69 85.21,-476.7"/>
<polygon fill="grey" stroke="grey" stroke-width="2" points="88.24,-478.46 90.49,-468.1 82.28,-474.79 88.24,-478.46"/>
</g>
<!-- 2 -->
<g id="node3" class="node">
<title>2</title>
<path fill="none" stroke="#56d86b" stroke-width="2" d="M423,-396C423,-396 259,-396 259,-396 253,-396 247,-390 247,-384 247,-384 247,-372 247,-372 247,-366 253,-360 259,-360 259,-360 423,-360 423,-360 429,-360 435,-366 435,-372 435,-372 435,-384 435,-384 435,-390 429,-396 423,-396"/>
<text text-anchor="middle" x="341" y="-375.5" font-family="sans" font-size="10.00">alignment_samtools_extract_reads</text>
</g>
<!-- 2&#45;&gt;0 -->
<g id="edge11" class="edge">
<title>2&#45;&gt;0</title>
<path fill="none" stroke="grey" stroke-width="2" d="M335.13,-359.87C327.27,-336.02 313.66,-291.32 308,-252 298.88,-188.63 304.89,-172.02 304,-108 303.78,-92 303.55,-87.99 304,-72 304.24,-63.67 304.68,-54.62 305.15,-46.39"/>
<polygon fill="grey" stroke="grey" stroke-width="2" points="308.66,-46.37 305.78,-36.18 301.67,-45.94 308.66,-46.37"/>
</g>
<!-- 5 -->
<g id="node6" class="node">
<title>5</title>
<path fill="none" stroke="#d8cb56" stroke-width="2" d="M526,-540C526,-540 362,-540 362,-540 356,-540 350,-534 350,-528 350,-528 350,-516 350,-516 350,-510 356,-504 362,-504 362,-504 526,-504 526,-504 532,-504 538,-510 538,-516 538,-516 538,-528 538,-528 538,-534 532,-540 526,-540"/>
<text text-anchor="middle" x="444" y="-519.5" font-family="sans" font-size="10.00">alignment_picard_mark_duplicates</text>
</g>
<!-- 2&#45;&gt;5 -->
<g id="edge15" class="edge">
<title>2&#45;&gt;5</title>
<path fill="none" stroke="grey" stroke-width="2" d="M367.65,-396.16C380.55,-405.52 395.49,-418.04 406,-432 420.15,-450.8 430.19,-475.67 436.38,-494.34"/>
<polygon fill="grey" stroke="grey" stroke-width="2" points="433.08,-495.51 439.43,-504 439.76,-493.41 433.08,-495.51"/>
</g>
<!-- 3 -->
<g id="node4" class="node">
<title>3</title>
<path fill="none" stroke="#68d856" stroke-width="2" d="M385.5,-468C385.5,-468 260.5,-468 260.5,-468 254.5,-468 248.5,-462 248.5,-456 248.5,-456 248.5,-444 248.5,-444 248.5,-438 254.5,-432 260.5,-432 260.5,-432 385.5,-432 385.5,-432 391.5,-432 397.5,-438 397.5,-444 397.5,-444 397.5,-456 397.5,-456 397.5,-462 391.5,-468 385.5,-468"/>
<text text-anchor="middle" x="323" y="-447.5" font-family="sans" font-size="10.00">alignment_samtools_index</text>
</g>
<!-- 3&#45;&gt;2 -->
<g id="edge12" class="edge">
<title>3&#45;&gt;2</title>
<path fill="none" stroke="grey" stroke-width="2" d="M327.45,-431.7C329.45,-423.9 331.87,-414.51 334.1,-405.83"/>
<polygon fill="grey" stroke="grey" stroke-width="2" points="337.5,-406.66 336.6,-396.1 330.72,-404.92 337.5,-406.66"/>
</g>
<!-- 6 -->
<g id="node7" class="node">
<title>6</title>
<path fill="none" stroke="#d8a456" stroke-width="2" d="M216.5,-396C216.5,-396 91.5,-396 91.5,-396 85.5,-396 79.5,-390 79.5,-384 79.5,-384 79.5,-372 79.5,-372 79.5,-366 85.5,-360 91.5,-360 91.5,-360 216.5,-360 216.5,-360 222.5,-360 228.5,-366 228.5,-372 228.5,-372 228.5,-384 228.5,-384 228.5,-390 222.5,-396 216.5,-396"/>
<text text-anchor="middle" x="154" y="-375.5" font-family="sans" font-size="10.00">snv_indels_haplotypecaller</text>
</g>
<!-- 3&#45;&gt;6 -->
<g id="edge16" class="edge">
<title>3&#45;&gt;6</title>
<path fill="none" stroke="grey" stroke-width="2" d="M281.66,-431.88C258.45,-422.26 229.31,-410.19 204.73,-400.01"/>
<polygon fill="grey" stroke="grey" stroke-width="2" points="205.79,-396.66 195.21,-396.07 203.11,-403.13 205.79,-396.66"/>
</g>
<!-- 4&#45;&gt;0 -->
<g id="edge7" class="edge">
<title>4&#45;&gt;0</title>
<path fill="none" stroke="grey" stroke-width="2" d="M88.84,-431.59C82.37,-421.58 74.79,-408.55 70,-396 55.62,-358.29 52,-347.36 52,-307 52,-307 52,-307 52,-161 52,-62.68 198.5,-31.82 269.42,-22.65"/>
<polygon fill="grey" stroke="grey" stroke-width="2" points="270.2,-26.08 279.71,-21.4 269.36,-19.13 270.2,-26.08"/>
</g>
<!-- 4&#45;&gt;6 -->
<g id="edge17" class="edge">
<title>4&#45;&gt;6</title>
<path fill="none" stroke="grey" stroke-width="2" d="M114.1,-431.7C120.39,-423.39 128.05,-413.28 134.96,-404.14"/>
<polygon fill="grey" stroke="grey" stroke-width="2" points="137.8,-406.19 141.05,-396.1 132.22,-401.96 137.8,-406.19"/>
</g>
<!-- 5&#45;&gt;0 -->
<g id="edge3" class="edge">
<title>5&#45;&gt;0</title>
<path fill="none" stroke="grey" stroke-width="2" d="M521.12,-503.99C583.49,-485.15 661,-447.89 661,-379 661,-379 661,-379 661,-161 661,-116.68 651.65,-98.34 616,-72 573.33,-40.48 416.51,-26.23 344.1,-21.23"/>
<polygon fill="grey" stroke="grey" stroke-width="2" points="344.26,-17.73 334.05,-20.56 343.79,-24.72 344.26,-17.73"/>
</g>
<!-- 5&#45;&gt;3 -->
<g id="edge13" class="edge">
<title>5&#45;&gt;3</title>
<path fill="none" stroke="grey" stroke-width="2" d="M414.4,-503.88C398.43,-494.64 378.54,-483.13 361.39,-473.21"/>
<polygon fill="grey" stroke="grey" stroke-width="2" points="363.12,-470.17 352.71,-468.19 359.62,-476.23 363.12,-470.17"/>
</g>
<!-- 5&#45;&gt;6 -->
<g id="edge18" class="edge">
<title>5&#45;&gt;6</title>
<path fill="none" stroke="grey" stroke-width="2" d="M349.95,-508.05C313.53,-500.2 272.61,-487.72 239,-468 211.59,-451.91 187.33,-424.47 171.82,-404.3"/>
<polygon fill="grey" stroke="grey" stroke-width="2" points="174.52,-402.07 165.73,-396.16 168.92,-406.26 174.52,-402.07"/>
</g>
<!-- 8 -->
<g id="node9" class="node">
<title>8</title>
<path fill="none" stroke="#56d0d8" stroke-width="2" d="M409,-252C409,-252 329,-252 329,-252 323,-252 317,-246 317,-240 317,-240 317,-228 317,-228 317,-222 323,-216 329,-216 329,-216 409,-216 409,-216 415,-216 421,-222 421,-228 421,-228 421,-240 421,-240 421,-246 415,-252 409,-252"/>
<text text-anchor="middle" x="369" y="-231.5" font-family="sans" font-size="10.00">variant_annotator</text>
</g>
<!-- 5&#45;&gt;8 -->
<g id="edge20" class="edge">
<title>5&#45;&gt;8</title>
<path fill="none" stroke="grey" stroke-width="2" d="M446.97,-503.68C451.45,-473.73 458.03,-410.64 444,-360 433.53,-322.2 408.25,-284.36 389.93,-260.38"/>
<polygon fill="grey" stroke="grey" stroke-width="2" points="392.45,-257.92 383.54,-252.2 386.94,-262.23 392.45,-257.92"/>
</g>
<!-- 12 -->
<g id="node13" class="node">
<title>12</title>
<path fill="none" stroke="#d85656" stroke-width="2" d="M576.5,-108C576.5,-108 511.5,-108 511.5,-108 505.5,-108 499.5,-102 499.5,-96 499.5,-96 499.5,-84 499.5,-84 499.5,-78 505.5,-72 511.5,-72 511.5,-72 576.5,-72 576.5,-72 582.5,-72 588.5,-78 588.5,-84 588.5,-84 588.5,-96 588.5,-96 588.5,-102 582.5,-108 576.5,-108"/>
<text text-anchor="middle" x="544" y="-87.5" font-family="sans" font-size="10.00">depth_of_baits</text>
</g>
<!-- 5&#45;&gt;12 -->
<g id="edge25" class="edge">
<title>5&#45;&gt;12</title>
<path fill="none" stroke="grey" stroke-width="2" d="M455.81,-503.96C472.51,-478.16 501,-427.08 501,-379 501,-379 501,-379 501,-233 501,-191.29 518.2,-145.54 530.84,-117.54"/>
<polygon fill="grey" stroke="grey" stroke-width="2" points="534.05,-118.96 535.09,-108.42 527.7,-116.01 534.05,-118.96"/>
</g>
<!-- 6&#45;&gt;0 -->
<g id="edge4" class="edge">
<title>6&#45;&gt;0</title>
<path fill="none" stroke="grey" stroke-width="2" d="M150.36,-359.6C145.1,-332.92 136,-280.23 136,-235 136,-235 136,-235 136,-161 136,-91.72 220.1,-49.77 270.34,-30.9"/>
<polygon fill="grey" stroke="grey" stroke-width="2" points="271.7,-34.13 279.9,-27.43 269.31,-27.55 271.7,-34.13"/>
</g>
<!-- 7 -->
<g id="node8" class="node">
<title>7</title>
<path fill="none" stroke="#567bd8" stroke-width="2" d="M250,-324C250,-324 176,-324 176,-324 170,-324 164,-318 164,-312 164,-312 164,-300 164,-300 164,-294 170,-288 176,-288 176,-288 250,-288 250,-288 256,-288 262,-294 262,-300 262,-300 262,-312 262,-312 262,-318 256,-324 250,-324"/>
<text text-anchor="middle" x="213" y="-303.5" font-family="sans" font-size="10.00">variant_filtration</text>
</g>
<!-- 6&#45;&gt;7 -->
<g id="edge19" class="edge">
<title>6&#45;&gt;7</title>
<path fill="none" stroke="grey" stroke-width="2" d="M168.58,-359.7C175.66,-351.3 184.28,-341.07 192.05,-331.86"/>
<polygon fill="grey" stroke="grey" stroke-width="2" points="194.81,-334.01 198.58,-324.1 189.46,-329.49 194.81,-334.01"/>
</g>
<!-- 7&#45;&gt;0 -->
<g id="edge8" class="edge">
<title>7&#45;&gt;0</title>
<path fill="none" stroke="grey" stroke-width="2" d="M212.73,-287.82C212.79,-247.68 216.97,-145.57 255,-72 260.54,-61.28 268.98,-51.32 277.46,-42.99"/>
<polygon fill="grey" stroke="grey" stroke-width="2" points="279.91,-45.49 284.84,-36.11 275.14,-40.36 279.91,-45.49"/>
</g>
<!-- 7&#45;&gt;8 -->
<g id="edge21" class="edge">
<title>7&#45;&gt;8</title>
<path fill="none" stroke="grey" stroke-width="2" d="M251.16,-287.88C272.39,-278.35 299.01,-266.41 321.57,-256.28"/>
<polygon fill="grey" stroke="grey" stroke-width="2" points="323.27,-259.36 330.96,-252.07 320.41,-252.97 323.27,-259.36"/>
</g>
<!-- 8&#45;&gt;0 -->
<g id="edge9" class="edge">
<title>8&#45;&gt;0</title>
<path fill="none" stroke="grey" stroke-width="2" d="M351.96,-215.88C343.33,-206.17 333.54,-193.32 328,-180 309.62,-135.8 306.39,-79.4 306.29,-46.43"/>
<polygon fill="grey" stroke="grey" stroke-width="2" points="309.79,-46.23 306.36,-36.2 302.79,-46.18 309.79,-46.23"/>
</g>
<!-- 9 -->
<g id="node10" class="node">
<title>9</title>
<path fill="none" stroke="#b6d856" stroke-width="2" d="M429,-180C429,-180 349,-180 349,-180 343,-180 337,-174 337,-168 337,-168 337,-156 337,-156 337,-150 343,-144 349,-144 349,-144 429,-144 429,-144 435,-144 441,-150 441,-156 441,-156 441,-168 441,-168 441,-174 435,-180 429,-180"/>
<text text-anchor="middle" x="389" y="-159.5" font-family="sans" font-size="10.00">detected_variants</text>
</g>
<!-- 8&#45;&gt;9 -->
<g id="edge22" class="edge">
<title>8&#45;&gt;9</title>
<path fill="none" stroke="grey" stroke-width="2" d="M373.94,-215.7C376.17,-207.9 378.85,-198.51 381.33,-189.83"/>
<polygon fill="grey" stroke="grey" stroke-width="2" points="384.73,-190.68 384.11,-180.1 378,-188.76 384.73,-190.68"/>
</g>
<!-- 9&#45;&gt;0 -->
<g id="edge5" class="edge">
<title>9&#45;&gt;0</title>
<path fill="none" stroke="grey" stroke-width="2" d="M418.5,-143.94C430.98,-134.99 444.19,-122.79 451,-108 457.7,-93.47 460.15,-85.12 451,-72 427.11,-37.74 378.47,-25.57 344.36,-21.28"/>
<polygon fill="grey" stroke="grey" stroke-width="2" points="344.6,-17.78 334.28,-20.18 343.84,-24.74 344.6,-17.78"/>
</g>
<!-- 10 -->
<g id="node11" class="node">
<title>10</title>
<path fill="none" stroke="#8fd856" stroke-width="2" d="M430.5,-108C430.5,-108 347.5,-108 347.5,-108 341.5,-108 335.5,-102 335.5,-96 335.5,-96 335.5,-84 335.5,-84 335.5,-78 341.5,-72 347.5,-72 347.5,-72 430.5,-72 430.5,-72 436.5,-72 442.5,-78 442.5,-84 442.5,-84 442.5,-96 442.5,-96 442.5,-102 436.5,-108 430.5,-108"/>
<text text-anchor="middle" x="389" y="-87.5" font-family="sans" font-size="10.00">sample_target_list</text>
</g>
<!-- 9&#45;&gt;10 -->
<g id="edge23" class="edge">
<title>9&#45;&gt;10</title>
<path fill="none" stroke="grey" stroke-width="2" d="M389,-143.7C389,-135.98 389,-126.71 389,-118.11"/>
<polygon fill="grey" stroke="grey" stroke-width="2" points="392.5,-118.1 389,-108.1 385.5,-118.1 392.5,-118.1"/>
</g>
<!-- 10&#45;&gt;0 -->
<g id="edge6" class="edge">
<title>10&#45;&gt;0</title>
<path fill="none" stroke="grey" stroke-width="2" d="M368.73,-71.7C358.5,-62.97 345.94,-52.24 334.82,-42.75"/>
<polygon fill="grey" stroke="grey" stroke-width="2" points="336.91,-39.94 327.04,-36.1 332.37,-45.26 336.91,-39.94"/>
</g>
<!-- 11 -->
<g id="node12" class="node">
<title>11</title>
<path fill="none" stroke="#d87d56" stroke-width="2" d="M620.5,-180C620.5,-180 541.5,-180 541.5,-180 535.5,-180 529.5,-174 529.5,-168 529.5,-168 529.5,-156 529.5,-156 529.5,-150 535.5,-144 541.5,-144 541.5,-144 620.5,-144 620.5,-144 626.5,-144 632.5,-150 632.5,-156 632.5,-156 632.5,-168 632.5,-168 632.5,-174 626.5,-180 620.5,-180"/>
<text text-anchor="middle" x="581" y="-159.5" font-family="sans" font-size="10.00">get_padded_baits</text>
</g>
<!-- 11&#45;&gt;0 -->
<g id="edge2" class="edge">
<title>11&#45;&gt;0</title>
<path fill="none" stroke="grey" stroke-width="2" d="M591.36,-143.86C601.72,-124.26 613.89,-92.26 597,-72 565.28,-33.96 415.73,-23.14 344.68,-20.13"/>
<polygon fill="grey" stroke="grey" stroke-width="2" points="344.51,-16.62 334.38,-19.73 344.23,-23.62 344.51,-16.62"/>
</g>
<!-- 11&#45;&gt;12 -->
<g id="edge24" class="edge">
<title>11&#45;&gt;12</title>
<path fill="none" stroke="grey" stroke-width="2" d="M571.85,-143.7C567.6,-135.64 562.44,-125.89 557.73,-116.98"/>
<polygon fill="grey" stroke="grey" stroke-width="2" points="560.81,-115.31 553.04,-108.1 554.62,-118.58 560.81,-115.31"/>
</g>
<!-- 12&#45;&gt;0 -->
<g id="edge1" class="edge">
<title>12&#45;&gt;0</title>
<path fill="none" stroke="grey" stroke-width="2" d="M499.42,-75.83C454.46,-62.55 385.84,-42.29 343.85,-29.88"/>
<polygon fill="grey" stroke="grey" stroke-width="2" points="344.62,-26.46 334.04,-26.99 342.64,-33.18 344.62,-26.46"/>
</g>
</g>
</svg>
