<?xml version="1.0" encoding="UTF-8" standalone="no"?>
<!DOCTYPE svg PUBLIC "-//W3C//DTD SVG 1.1//EN"
 "http://www.w3.org/Graphics/SVG/1.1/DTD/svg11.dtd">
<!-- Generated by graphviz version 2.43.0 (0)
 -->
<!-- Title: snakemake_dag Pages: 1 -->
<svg width="560pt" height="548pt"
 viewBox="0.00 0.00 560.00 548.00" xmlns="http://www.w3.org/2000/svg" xmlns:xlink="http://www.w3.org/1999/xlink">
<g id="graph0" class="graph" transform="scale(1 1) rotate(0) translate(4 544)">
<title>snakemake_dag</title>
<polygon fill="white" stroke="transparent" points="-4,4 -4,-544 556,-544 556,4 -4,4"/>
<!-- 0 -->
<g id="node1" class="node">
<title>0</title>
<path fill="none" stroke="#9fd856" stroke-width="2" d="M243,-36C243,-36 213,-36 213,-36 207,-36 201,-30 201,-24 201,-24 201,-12 201,-12 201,-6 207,0 213,0 213,0 243,0 243,0 249,0 255,-6 255,-12 255,-12 255,-24 255,-24 255,-30 249,-36 243,-36"/>
<text text-anchor="middle" x="228" y="-15.5" font-family="sans" font-size="10.00">all</text>
</g>
<!-- 1 -->
<g id="node2" class="node">
<title>1</title>
<path fill="none" stroke="#56d8c9" stroke-width="2" d="M104,-540C104,-540 12,-540 12,-540 6,-540 0,-534 0,-528 0,-528 0,-516 0,-516 0,-510 6,-504 12,-504 12,-504 104,-504 104,-504 110,-504 116,-510 116,-516 116,-516 116,-528 116,-528 116,-534 110,-540 104,-540"/>
<text text-anchor="middle" x="58" y="-519.5" font-family="sans" font-size="10.00">padd_target_regions</text>
</g>
<!-- 1&#45;&gt;0 -->
<g id="edge8" class="edge">
<title>1&#45;&gt;0</title>
<path fill="none" stroke="grey" stroke-width="2" d="M48.62,-503.75C43.41,-493.59 37.16,-480.34 33,-468 20.06,-429.68 14,-419.45 14,-379 14,-379 14,-379 14,-161 14,-77.12 129.56,-39.84 190.84,-25.97"/>
<polygon fill="grey" stroke="grey" stroke-width="2" points="191.86,-29.32 200.9,-23.79 190.38,-22.48 191.86,-29.32"/>
</g>
<!-- 4 -->
<g id="node5" class="node">
<title>4</title>
<path fill="none" stroke="#56d89a" stroke-width="2" d="M148,-468C148,-468 54,-468 54,-468 48,-468 42,-462 42,-456 42,-456 42,-444 42,-444 42,-438 48,-432 54,-432 54,-432 148,-432 148,-432 154,-432 160,-438 160,-444 160,-444 160,-456 160,-456 160,-462 154,-468 148,-468"/>
<text text-anchor="middle" x="101" y="-447.5" font-family="sans" font-size="10.00">snv_indels_bed_split</text>
</g>
<!-- 1&#45;&gt;4 -->
<g id="edge12" class="edge">
<title>1&#45;&gt;4</title>
<path fill="none" stroke="grey" stroke-width="2" d="M68.63,-503.7C73.63,-495.56 79.69,-485.69 85.21,-476.7"/>
<polygon fill="grey" stroke="grey" stroke-width="2" points="88.24,-478.46 90.49,-468.1 82.28,-474.79 88.24,-478.46"/>
</g>
<!-- 2 -->
<g id="node3" class="node">
<title>2</title>
<path fill="none" stroke="#d85656" stroke-width="2" d="M512,-396C512,-396 348,-396 348,-396 342,-396 336,-390 336,-384 336,-384 336,-372 336,-372 336,-366 342,-360 348,-360 348,-360 512,-360 512,-360 518,-360 524,-366 524,-372 524,-372 524,-384 524,-384 524,-390 518,-396 512,-396"/>
<text text-anchor="middle" x="430" y="-375.5" font-family="sans" font-size="10.00">alignment_samtools_extract_reads</text>
</g>
<!-- 2&#45;&gt;0 -->
<g id="edge1" class="edge">
<title>2&#45;&gt;0</title>
<path fill="none" stroke="grey" stroke-width="2" d="M430,-359.95C430,-333.29 430,-280.11 430,-235 430,-235 430,-235 430,-161 430,-117.63 422.25,-100.99 390,-72 355.05,-40.58 301.11,-27.74 265.2,-22.53"/>
<polygon fill="grey" stroke="grey" stroke-width="2" points="265.5,-19.04 255.13,-21.2 264.58,-25.98 265.5,-19.04"/>
</g>
<!-- 5 -->
<g id="node6" class="node">
<title>5</title>
<path fill="none" stroke="#5682d8" stroke-width="2" d="M474,-540C474,-540 310,-540 310,-540 304,-540 298,-534 298,-528 298,-528 298,-516 298,-516 298,-510 304,-504 310,-504 310,-504 474,-504 474,-504 480,-504 486,-510 486,-516 486,-516 486,-528 486,-528 486,-534 480,-540 474,-540"/>
<text text-anchor="middle" x="392" y="-519.5" font-family="sans" font-size="10.00">alignment_picard_mark_duplicates</text>
</g>
<!-- 2&#45;&gt;5 -->
<g id="edge13" class="edge">
<title>2&#45;&gt;5</title>
<path fill="none" stroke="grey" stroke-width="2" d="M425.4,-396.19C418.89,-420.53 406.91,-465.28 399.21,-494.06"/>
<polygon fill="grey" stroke="grey" stroke-width="2" points="395.79,-493.31 396.58,-503.87 402.55,-495.12 395.79,-493.31"/>
</g>
<!-- 3 -->
<g id="node4" class="node">
<title>3</title>
<path fill="none" stroke="#56b1d8" stroke-width="2" d="M352.5,-468C352.5,-468 227.5,-468 227.5,-468 221.5,-468 215.5,-462 215.5,-456 215.5,-456 215.5,-444 215.5,-444 215.5,-438 221.5,-432 227.5,-432 227.5,-432 352.5,-432 352.5,-432 358.5,-432 364.5,-438 364.5,-444 364.5,-444 364.5,-456 364.5,-456 364.5,-462 358.5,-468 352.5,-468"/>
<text text-anchor="middle" x="290" y="-447.5" font-family="sans" font-size="10.00">alignment_samtools_index</text>
</g>
<!-- 3&#45;&gt;2 -->
<g id="edge10" class="edge">
<title>3&#45;&gt;2</title>
<path fill="none" stroke="grey" stroke-width="2" d="M324.25,-431.88C343.06,-422.47 366.58,-410.71 386.67,-400.67"/>
<polygon fill="grey" stroke="grey" stroke-width="2" points="388.24,-403.79 395.62,-396.19 385.11,-397.53 388.24,-403.79"/>
</g>
<!-- 6 -->
<g id="node7" class="node">
<title>6</title>
<path fill="none" stroke="#70d856" stroke-width="2" d="M265.5,-396C265.5,-396 140.5,-396 140.5,-396 134.5,-396 128.5,-390 128.5,-384 128.5,-384 128.5,-372 128.5,-372 128.5,-366 134.5,-360 140.5,-360 140.5,-360 265.5,-360 265.5,-360 271.5,-360 277.5,-366 277.5,-372 277.5,-372 277.5,-384 277.5,-384 277.5,-390 271.5,-396 265.5,-396"/>
<text text-anchor="middle" x="203" y="-375.5" font-family="sans" font-size="10.00">snv_indels_haplotypecaller</text>
</g>
<!-- 3&#45;&gt;6 -->
<g id="edge15" class="edge">
<title>3&#45;&gt;6</title>
<path fill="none" stroke="grey" stroke-width="2" d="M268.49,-431.7C257.54,-422.88 244.05,-412.03 232.18,-402.47"/>
<polygon fill="grey" stroke="grey" stroke-width="2" points="234.24,-399.65 224.26,-396.1 229.86,-405.1 234.24,-399.65"/>
</g>
<!-- 4&#45;&gt;0 -->
<g id="edge7" class="edge">
<title>4&#45;&gt;0</title>
<path fill="none" stroke="grey" stroke-width="2" d="M101,-431.95C101,-405.29 101,-352.11 101,-307 101,-307 101,-307 101,-161 101,-106.04 154.51,-62.6 192.07,-38.88"/>
<polygon fill="grey" stroke="grey" stroke-width="2" points="194.05,-41.77 200.76,-33.56 190.4,-35.8 194.05,-41.77"/>
</g>
<!-- 4&#45;&gt;6 -->
<g id="edge14" class="edge">
<title>4&#45;&gt;6</title>
<path fill="none" stroke="grey" stroke-width="2" d="M125.95,-431.88C139.04,-422.89 155.26,-411.76 169.44,-402.03"/>
<polygon fill="grey" stroke="grey" stroke-width="2" points="171.69,-404.73 177.95,-396.19 167.73,-398.96 171.69,-404.73"/>
</g>
<!-- 5&#45;&gt;0 -->
<g id="edge9" class="edge">
<title>5&#45;&gt;0</title>
<path fill="none" stroke="grey" stroke-width="2" d="M436.57,-503.93C483.91,-482.55 552,-441.02 552,-379 552,-379 552,-379 552,-161 552,-36.9 350.13,-20.24 265.08,-18.73"/>
<polygon fill="grey" stroke="grey" stroke-width="2" points="265.11,-15.23 255.07,-18.61 265.03,-22.23 265.11,-15.23"/>
</g>
<!-- 5&#45;&gt;3 -->
<g id="edge11" class="edge">
<title>5&#45;&gt;3</title>
<path fill="none" stroke="grey" stroke-width="2" d="M367.05,-503.88C353.96,-494.89 337.74,-483.76 323.56,-474.03"/>
<polygon fill="grey" stroke="grey" stroke-width="2" points="325.27,-470.96 315.05,-468.19 321.31,-476.73 325.27,-470.96"/>
</g>
<!-- 5&#45;&gt;6 -->
<g id="edge16" class="edge">
<title>5&#45;&gt;6</title>
<path fill="none" stroke="grey" stroke-width="2" d="M297.81,-504.54C258.46,-495.62 219.06,-483.27 207,-468 193.41,-450.79 193.65,-425.35 196.56,-406.08"/>
<polygon fill="grey" stroke="grey" stroke-width="2" points="200.03,-406.56 198.38,-396.09 193.14,-405.3 200.03,-406.56"/>
</g>
<!-- 8 -->
<g id="node9" class="node">
<title>8</title>
<path fill="none" stroke="#d8b456" stroke-width="2" d="M329,-252C329,-252 249,-252 249,-252 243,-252 237,-246 237,-240 237,-240 237,-228 237,-228 237,-222 243,-216 249,-216 249,-216 329,-216 329,-216 335,-216 341,-222 341,-228 341,-228 341,-240 341,-240 341,-246 335,-252 329,-252"/>
<text text-anchor="middle" x="289" y="-231.5" font-family="sans" font-size="10.00">variant_annotator</text>
</g>
<!-- 5&#45;&gt;8 -->
<g id="edge19" class="edge">
<title>5&#45;&gt;8</title>
<path fill="none" stroke="grey" stroke-width="2" d="M392.03,-503.96C391.32,-485.03 387.86,-454.19 374,-432 360.06,-409.68 341.3,-418.09 327,-396 300.24,-354.67 292.28,-296.49 289.94,-262.56"/>
<polygon fill="grey" stroke="grey" stroke-width="2" points="293.43,-262.24 289.36,-252.45 286.44,-262.64 293.43,-262.24"/>
</g>
<!-- 6&#45;&gt;0 -->
<g id="edge5" class="edge">
<title>6&#45;&gt;0</title>
<path fill="none" stroke="grey" stroke-width="2" d="M190.48,-359.62C183.81,-349.63 175.98,-336.59 171,-324 156.12,-286.39 152,-275.45 152,-235 152,-235 152,-235 152,-161 152,-115.64 182.52,-70.75 204.88,-43.95"/>
<polygon fill="grey" stroke="grey" stroke-width="2" points="207.64,-46.09 211.51,-36.23 202.34,-41.53 207.64,-46.09"/>
</g>
<!-- 7 -->
<g id="node8" class="node">
<title>7</title>
<path fill="none" stroke="#d88556" stroke-width="2" d="M266,-324C266,-324 192,-324 192,-324 186,-324 180,-318 180,-312 180,-312 180,-300 180,-300 180,-294 186,-288 192,-288 192,-288 266,-288 266,-288 272,-288 278,-294 278,-300 278,-300 278,-312 278,-312 278,-318 272,-324 266,-324"/>
<text text-anchor="middle" x="229" y="-303.5" font-family="sans" font-size="10.00">variant_filtration</text>
</g>
<!-- 6&#45;&gt;7 -->
<g id="edge17" class="edge">
<title>6&#45;&gt;7</title>
<path fill="none" stroke="grey" stroke-width="2" d="M209.43,-359.7C212.36,-351.81 215.89,-342.3 219.14,-333.55"/>
<polygon fill="grey" stroke="grey" stroke-width="2" points="222.45,-334.7 222.65,-324.1 215.88,-332.26 222.45,-334.7"/>
</g>
<!-- 7&#45;&gt;0 -->
<g id="edge2" class="edge">
<title>7&#45;&gt;0</title>
<path fill="none" stroke="grey" stroke-width="2" d="M227.93,-287.75C225.69,-249.11 220.96,-152.66 224,-72 224.31,-63.67 224.91,-54.61 225.54,-46.38"/>
<polygon fill="grey" stroke="grey" stroke-width="2" points="229.05,-46.42 226.38,-36.17 222.07,-45.85 229.05,-46.42"/>
</g>
<!-- 7&#45;&gt;8 -->
<g id="edge18" class="edge">
<title>7&#45;&gt;8</title>
<path fill="none" stroke="grey" stroke-width="2" d="M243.83,-287.7C251.02,-279.3 259.8,-269.07 267.69,-259.86"/>
<polygon fill="grey" stroke="grey" stroke-width="2" points="270.49,-261.97 274.34,-252.1 265.17,-257.42 270.49,-261.97"/>
</g>
<!-- 8&#45;&gt;0 -->
<g id="edge3" class="edge">
<title>8&#45;&gt;0</title>
<path fill="none" stroke="grey" stroke-width="2" d="M272.38,-215.81C263.96,-206.08 254.41,-193.23 249,-180 230.89,-135.7 227.56,-79.33 227.38,-46.4"/>
<polygon fill="grey" stroke="grey" stroke-width="2" points="230.88,-46.19 227.42,-36.18 223.88,-46.16 230.88,-46.19"/>
</g>
<!-- 9 -->
<g id="node10" class="node">
<title>9</title>
<path fill="none" stroke="#56d86b" stroke-width="2" d="M350,-180C350,-180 270,-180 270,-180 264,-180 258,-174 258,-168 258,-168 258,-156 258,-156 258,-150 264,-144 270,-144 270,-144 350,-144 350,-144 356,-144 362,-150 362,-156 362,-156 362,-168 362,-168 362,-174 356,-180 350,-180"/>
<text text-anchor="middle" x="310" y="-159.5" font-family="sans" font-size="10.00">detected_variants</text>
</g>
<!-- 8&#45;&gt;9 -->
<g id="edge20" class="edge">
<title>8&#45;&gt;9</title>
<path fill="none" stroke="grey" stroke-width="2" d="M294.19,-215.7C296.53,-207.9 299.35,-198.51 301.95,-189.83"/>
<polygon fill="grey" stroke="grey" stroke-width="2" points="305.35,-190.69 304.87,-180.1 298.64,-188.68 305.35,-190.69"/>
</g>
<!-- 9&#45;&gt;0 -->
<g id="edge6" class="edge">
<title>9&#45;&gt;0</title>
<path fill="none" stroke="grey" stroke-width="2" d="M340.3,-143.8C352.88,-134.9 366.12,-122.77 373,-108 379.75,-93.49 382.17,-85.11 373,-72 348.85,-37.46 299.67,-25.36 265.31,-21.16"/>
<polygon fill="grey" stroke="grey" stroke-width="2" points="265.48,-17.66 255.17,-20.09 264.75,-24.62 265.48,-17.66"/>
</g>
<!-- 10 -->
<g id="node11" class="node">
<title>10</title>
<path fill="none" stroke="#ced856" stroke-width="2" d="M351.5,-108C351.5,-108 268.5,-108 268.5,-108 262.5,-108 256.5,-102 256.5,-96 256.5,-96 256.5,-84 256.5,-84 256.5,-78 262.5,-72 268.5,-72 268.5,-72 351.5,-72 351.5,-72 357.5,-72 363.5,-78 363.5,-84 363.5,-84 363.5,-96 363.5,-96 363.5,-102 357.5,-108 351.5,-108"/>
<text text-anchor="middle" x="310" y="-87.5" font-family="sans" font-size="10.00">sample_target_list</text>
</g>
<!-- 9&#45;&gt;10 -->
<g id="edge21" class="edge">
<title>9&#45;&gt;10</title>
<path fill="none" stroke="grey" stroke-width="2" d="M310,-143.7C310,-135.98 310,-126.71 310,-118.11"/>
<polygon fill="grey" stroke="grey" stroke-width="2" points="313.5,-118.1 310,-108.1 306.5,-118.1 313.5,-118.1"/>
</g>
<!-- 10&#45;&gt;0 -->
<g id="edge4" class="edge">
<title>10&#45;&gt;0</title>
<path fill="none" stroke="grey" stroke-width="2" d="M289.73,-71.7C279.5,-62.97 266.94,-52.24 255.82,-42.75"/>
<polygon fill="grey" stroke="grey" stroke-width="2" points="257.91,-39.94 248.04,-36.1 253.37,-45.26 257.91,-39.94"/>
</g>
</g>
</svg>
