<?xml version="1.0" encoding="UTF-8" standalone="no"?>
<!DOCTYPE svg PUBLIC "-//W3C//DTD SVG 1.1//EN"
 "http://www.w3.org/Graphics/SVG/1.1/DTD/svg11.dtd">
<!-- Generated by graphviz version 2.43.0 (0)
 -->
<!-- Title: snakemake_dag Pages: 1 -->
<svg width="759pt" height="908pt"
 viewBox="0.00 0.00 759.00 908.00" xmlns="http://www.w3.org/2000/svg" xmlns:xlink="http://www.w3.org/1999/xlink">
<g id="graph0" class="graph" transform="scale(1 1) rotate(0) translate(4 904)">
<title>snakemake_dag</title>
<polygon fill="white" stroke="transparent" points="-4,4 -4,-904 755,-904 755,4 -4,4"/>
<!-- 0 -->
<g id="node1" class="node">
<title>0</title>
<path fill="none" stroke="#68d856" stroke-width="2" d="M248.5,-36C248.5,-36 218.5,-36 218.5,-36 212.5,-36 206.5,-30 206.5,-24 206.5,-24 206.5,-12 206.5,-12 206.5,-6 212.5,0 218.5,0 218.5,0 248.5,0 248.5,0 254.5,0 260.5,-6 260.5,-12 260.5,-12 260.5,-24 260.5,-24 260.5,-30 254.5,-36 248.5,-36"/>
<text text-anchor="middle" x="233.5" y="-15.5" font-family="sans" font-size="10.00">all</text>
</g>
<!-- 1 -->
<g id="node2" class="node">
<title>1</title>
<path fill="none" stroke="#56d8a2" stroke-width="2" d="M85,-900C85,-900 12,-900 12,-900 6,-900 0,-894 0,-888 0,-888 0,-876 0,-876 0,-870 6,-864 12,-864 12,-864 85,-864 85,-864 91,-864 97,-870 97,-876 97,-876 97,-888 97,-888 97,-894 91,-900 85,-900"/>
<text text-anchor="middle" x="48.5" y="-879.5" font-family="sans" font-size="10.00">get_padded_bed</text>
</g>
<!-- 1&#45;&gt;0 -->
<g id="edge7" class="edge">
<title>1&#45;&gt;0</title>
<path fill="none" stroke="grey" stroke-width="2" d="M39.59,-863.58C27,-837.3 5.5,-785.62 5.5,-739 5.5,-739 5.5,-739 5.5,-161 5.5,-115.85 19.32,-100.31 54.5,-72 95.67,-38.87 157.01,-26.44 196.12,-21.78"/>
<polygon fill="grey" stroke="grey" stroke-width="2" points="196.72,-25.24 206.29,-20.69 195.97,-18.28 196.72,-25.24"/>
</g>
<!-- 3 -->
<g id="node4" class="node">
<title>3</title>
<path fill="none" stroke="#56b1d8" stroke-width="2" d="M139.5,-828C139.5,-828 45.5,-828 45.5,-828 39.5,-828 33.5,-822 33.5,-816 33.5,-816 33.5,-804 33.5,-804 33.5,-798 39.5,-792 45.5,-792 45.5,-792 139.5,-792 139.5,-792 145.5,-792 151.5,-798 151.5,-804 151.5,-804 151.5,-816 151.5,-816 151.5,-822 145.5,-828 139.5,-828"/>
<text text-anchor="middle" x="92.5" y="-807.5" font-family="sans" font-size="10.00">snv_indels_bed_split</text>
</g>
<!-- 1&#45;&gt;3 -->
<g id="edge14" class="edge">
<title>1&#45;&gt;3</title>
<path fill="none" stroke="grey" stroke-width="2" d="M59.38,-863.7C64.49,-855.56 70.7,-845.69 76.34,-836.7"/>
<polygon fill="grey" stroke="grey" stroke-width="2" points="79.39,-838.43 81.75,-828.1 73.46,-834.71 79.39,-838.43"/>
</g>
<!-- 2 -->
<g id="node3" class="node">
<title>2</title>
<path fill="none" stroke="#5673d8" stroke-width="2" d="M709,-180C709,-180 630,-180 630,-180 624,-180 618,-174 618,-168 618,-168 618,-156 618,-156 618,-150 624,-144 630,-144 630,-144 709,-144 709,-144 715,-144 721,-150 721,-156 721,-156 721,-168 721,-168 721,-174 715,-180 709,-180"/>
<text text-anchor="middle" x="669.5" y="-159.5" font-family="sans" font-size="10.00">get_padded_baits</text>
</g>
<!-- 2&#45;&gt;0 -->
<g id="edge13" class="edge">
<title>2&#45;&gt;0</title>
<path fill="none" stroke="grey" stroke-width="2" d="M663.94,-143.69C656.32,-122.97 640.52,-88.96 614.5,-72 558.24,-35.32 355.17,-23.56 270.73,-20.2"/>
<polygon fill="grey" stroke="grey" stroke-width="2" points="270.69,-16.7 260.57,-19.82 270.43,-23.7 270.69,-16.7"/>
</g>
<!-- 12 -->
<g id="node13" class="node">
<title>12</title>
<path fill="none" stroke="#56d863" stroke-width="2" d="M739,-108C739,-108 674,-108 674,-108 668,-108 662,-102 662,-96 662,-96 662,-84 662,-84 662,-78 668,-72 674,-72 674,-72 739,-72 739,-72 745,-72 751,-78 751,-84 751,-84 751,-96 751,-96 751,-102 745,-108 739,-108"/>
<text text-anchor="middle" x="706.5" y="-87.5" font-family="sans" font-size="10.00">depth_of_baits</text>
</g>
<!-- 2&#45;&gt;12 -->
<g id="edge24" class="edge">
<title>2&#45;&gt;12</title>
<path fill="none" stroke="grey" stroke-width="2" d="M678.65,-143.7C682.9,-135.64 688.06,-125.89 692.77,-116.98"/>
<polygon fill="grey" stroke="grey" stroke-width="2" points="695.88,-118.58 697.46,-108.1 689.69,-115.31 695.88,-118.58"/>
</g>
<!-- 3&#45;&gt;0 -->
<g id="edge11" class="edge">
<title>3&#45;&gt;0</title>
<path fill="none" stroke="grey" stroke-width="2" d="M80.34,-791.59C73.87,-781.58 66.29,-768.55 61.5,-756 47.12,-718.29 43.5,-707.36 43.5,-667 43.5,-667 43.5,-667 43.5,-161 43.5,-115.41 59.85,-101.63 94.5,-72 123.74,-47 166,-33.15 196.24,-25.94"/>
<polygon fill="grey" stroke="grey" stroke-width="2" points="197.41,-29.27 206.4,-23.66 195.87,-22.44 197.41,-29.27"/>
</g>
<!-- 4 -->
<g id="node5" class="node">
<title>4</title>
<path fill="none" stroke="#bed856" stroke-width="2" d="M208,-756C208,-756 83,-756 83,-756 77,-756 71,-750 71,-744 71,-744 71,-732 71,-732 71,-726 77,-720 83,-720 83,-720 208,-720 208,-720 214,-720 220,-726 220,-732 220,-732 220,-744 220,-744 220,-750 214,-756 208,-756"/>
<text text-anchor="middle" x="145.5" y="-735.5" font-family="sans" font-size="10.00">snv_indels_haplotypecaller</text>
</g>
<!-- 3&#45;&gt;4 -->
<g id="edge15" class="edge">
<title>3&#45;&gt;4</title>
<path fill="none" stroke="grey" stroke-width="2" d="M105.6,-791.7C111.89,-783.39 119.55,-773.28 126.46,-764.14"/>
<polygon fill="grey" stroke="grey" stroke-width="2" points="129.3,-766.19 132.55,-756.1 123.72,-761.96 129.3,-766.19"/>
</g>
<!-- 4&#45;&gt;0 -->
<g id="edge5" class="edge">
<title>4&#45;&gt;0</title>
<path fill="none" stroke="grey" stroke-width="2" d="M127.21,-719.97C117.87,-710.29 107.11,-697.43 100.5,-684 82.65,-647.71 81.5,-635.45 81.5,-595 81.5,-595 81.5,-595 81.5,-161 81.5,-115.41 99.67,-103.63 132.5,-72 150.84,-54.33 176.25,-41.03 196.99,-32.18"/>
<polygon fill="grey" stroke="grey" stroke-width="2" points="198.52,-35.34 206.45,-28.31 195.87,-28.86 198.52,-35.34"/>
</g>
<!-- 7 -->
<g id="node8" class="node">
<title>7</title>
<path fill="none" stroke="#d89556" stroke-width="2" d="M197.5,-684C197.5,-684 121.5,-684 121.5,-684 115.5,-684 109.5,-678 109.5,-672 109.5,-672 109.5,-660 109.5,-660 109.5,-654 115.5,-648 121.5,-648 121.5,-648 197.5,-648 197.5,-648 203.5,-648 209.5,-654 209.5,-660 209.5,-660 209.5,-672 209.5,-672 209.5,-678 203.5,-684 197.5,-684"/>
<text text-anchor="middle" x="159.5" y="-663.5" font-family="sans" font-size="10.00">snv_indels_bgzip</text>
</g>
<!-- 4&#45;&gt;7 -->
<g id="edge19" class="edge">
<title>4&#45;&gt;7</title>
<path fill="none" stroke="grey" stroke-width="2" d="M148.96,-719.7C150.5,-711.98 152.36,-702.71 154.08,-694.11"/>
<polygon fill="grey" stroke="grey" stroke-width="2" points="157.55,-694.6 156.08,-684.1 150.69,-693.22 157.55,-694.6"/>
</g>
<!-- 5 -->
<g id="node6" class="node">
<title>5</title>
<path fill="none" stroke="#5692d8" stroke-width="2" d="M228.5,-468C228.5,-468 154.5,-468 154.5,-468 148.5,-468 142.5,-462 142.5,-456 142.5,-456 142.5,-444 142.5,-444 142.5,-438 148.5,-432 154.5,-432 154.5,-432 228.5,-432 228.5,-432 234.5,-432 240.5,-438 240.5,-444 240.5,-444 240.5,-456 240.5,-456 240.5,-462 234.5,-468 228.5,-468"/>
<text text-anchor="middle" x="191.5" y="-447.5" font-family="sans" font-size="10.00">variant_filtration</text>
</g>
<!-- 5&#45;&gt;0 -->
<g id="edge12" class="edge">
<title>5&#45;&gt;0</title>
<path fill="none" stroke="grey" stroke-width="2" d="M169.1,-431.87C158.27,-422.43 146.02,-409.83 138.5,-396 119.18,-360.46 119.5,-347.45 119.5,-307 119.5,-307 119.5,-307 119.5,-161 119.5,-110 164.77,-66.88 198.26,-41.97"/>
<polygon fill="grey" stroke="grey" stroke-width="2" points="200.42,-44.73 206.48,-36.04 196.33,-39.05 200.42,-44.73"/>
</g>
<!-- 9 -->
<g id="node10" class="node">
<title>9</title>
<path fill="none" stroke="#56d8c1" stroke-width="2" d="M239.5,-396C239.5,-396 159.5,-396 159.5,-396 153.5,-396 147.5,-390 147.5,-384 147.5,-384 147.5,-372 147.5,-372 147.5,-366 153.5,-360 159.5,-360 159.5,-360 239.5,-360 239.5,-360 245.5,-360 251.5,-366 251.5,-372 251.5,-372 251.5,-384 251.5,-384 251.5,-390 245.5,-396 239.5,-396"/>
<text text-anchor="middle" x="199.5" y="-375.5" font-family="sans" font-size="10.00">variant_annotator</text>
</g>
<!-- 5&#45;&gt;9 -->
<g id="edge21" class="edge">
<title>5&#45;&gt;9</title>
<path fill="none" stroke="grey" stroke-width="2" d="M193.48,-431.7C194.36,-423.98 195.42,-414.71 196.4,-406.11"/>
<polygon fill="grey" stroke="grey" stroke-width="2" points="199.89,-406.44 197.55,-396.1 192.93,-405.64 199.89,-406.44"/>
</g>
<!-- 6 -->
<g id="node7" class="node">
<title>6</title>
<path fill="none" stroke="#56d0d8" stroke-width="2" d="M254,-540C254,-540 129,-540 129,-540 123,-540 117,-534 117,-528 117,-528 117,-516 117,-516 117,-510 123,-504 129,-504 129,-504 254,-504 254,-504 260,-504 266,-510 266,-516 266,-516 266,-528 266,-528 266,-534 260,-540 254,-540"/>
<text text-anchor="middle" x="191.5" y="-519.5" font-family="sans" font-size="10.00">snv_indels_bcftools_concat</text>
</g>
<!-- 6&#45;&gt;5 -->
<g id="edge16" class="edge">
<title>6&#45;&gt;5</title>
<path fill="none" stroke="grey" stroke-width="2" d="M191.5,-503.7C191.5,-495.98 191.5,-486.71 191.5,-478.11"/>
<polygon fill="grey" stroke="grey" stroke-width="2" points="195,-478.1 191.5,-468.1 188,-478.1 195,-478.1"/>
</g>
<!-- 7&#45;&gt;6 -->
<g id="edge17" class="edge">
<title>7&#45;&gt;6</title>
<path fill="none" stroke="grey" stroke-width="2" d="M156.46,-647.89C153.88,-629.68 151.58,-600.22 158.5,-576 161.21,-566.51 166.17,-557.06 171.43,-548.83"/>
<polygon fill="grey" stroke="grey" stroke-width="2" points="174.42,-550.67 177.17,-540.43 168.64,-546.72 174.42,-550.67"/>
</g>
<!-- 8 -->
<g id="node9" class="node">
<title>8</title>
<path fill="none" stroke="#88d856" stroke-width="2" d="M253.5,-612C253.5,-612 179.5,-612 179.5,-612 173.5,-612 167.5,-606 167.5,-600 167.5,-600 167.5,-588 167.5,-588 167.5,-582 173.5,-576 179.5,-576 179.5,-576 253.5,-576 253.5,-576 259.5,-576 265.5,-582 265.5,-588 265.5,-588 265.5,-600 265.5,-600 265.5,-606 259.5,-612 253.5,-612"/>
<text text-anchor="middle" x="216.5" y="-591.5" font-family="sans" font-size="10.00">snv_indels_tabix</text>
</g>
<!-- 7&#45;&gt;8 -->
<g id="edge20" class="edge">
<title>7&#45;&gt;8</title>
<path fill="none" stroke="grey" stroke-width="2" d="M173.59,-647.7C180.42,-639.3 188.76,-629.07 196.26,-619.86"/>
<polygon fill="grey" stroke="grey" stroke-width="2" points="198.97,-622.07 202.57,-612.1 193.54,-617.65 198.97,-622.07"/>
</g>
<!-- 8&#45;&gt;6 -->
<g id="edge18" class="edge">
<title>8&#45;&gt;6</title>
<path fill="none" stroke="grey" stroke-width="2" d="M210.32,-575.7C207.5,-567.81 204.11,-558.3 200.98,-549.55"/>
<polygon fill="grey" stroke="grey" stroke-width="2" points="204.27,-548.34 197.61,-540.1 197.68,-550.7 204.27,-548.34"/>
</g>
<!-- 9&#45;&gt;0 -->
<g id="edge10" class="edge">
<title>9&#45;&gt;0</title>
<path fill="none" stroke="grey" stroke-width="2" d="M191,-359.99C178.73,-333.82 157.5,-281.79 157.5,-235 157.5,-235 157.5,-235 157.5,-161 157.5,-115.64 188.02,-70.75 210.38,-43.95"/>
<polygon fill="grey" stroke="grey" stroke-width="2" points="213.14,-46.09 217.01,-36.23 207.84,-41.53 213.14,-46.09"/>
</g>
<!-- 10 -->
<g id="node11" class="node">
<title>10</title>
<path fill="none" stroke="#9fd856" stroke-width="2" d="M297.5,-324C297.5,-324 217.5,-324 217.5,-324 211.5,-324 205.5,-318 205.5,-312 205.5,-312 205.5,-300 205.5,-300 205.5,-294 211.5,-288 217.5,-288 217.5,-288 297.5,-288 297.5,-288 303.5,-288 309.5,-294 309.5,-300 309.5,-300 309.5,-312 309.5,-312 309.5,-318 303.5,-324 297.5,-324"/>
<text text-anchor="middle" x="257.5" y="-303.5" font-family="sans" font-size="10.00">detected_variants</text>
</g>
<!-- 9&#45;&gt;10 -->
<g id="edge22" class="edge">
<title>9&#45;&gt;10</title>
<path fill="none" stroke="grey" stroke-width="2" d="M213.84,-359.7C220.79,-351.3 229.27,-341.07 236.9,-331.86"/>
<polygon fill="grey" stroke="grey" stroke-width="2" points="239.64,-334.04 243.33,-324.1 234.25,-329.57 239.64,-334.04"/>
</g>
<!-- 10&#45;&gt;0 -->
<g id="edge6" class="edge">
<title>10&#45;&gt;0</title>
<path fill="none" stroke="grey" stroke-width="2" d="M238.46,-287.84C229.32,-278.3 219.33,-265.62 214.5,-252 189.32,-181 210.64,-90.46 224.27,-46.05"/>
<polygon fill="grey" stroke="grey" stroke-width="2" points="227.68,-46.88 227.37,-36.29 221.01,-44.76 227.68,-46.88"/>
</g>
<!-- 11 -->
<g id="node12" class="node">
<title>11</title>
<path fill="none" stroke="#d85656" stroke-width="2" d="M319,-252C319,-252 236,-252 236,-252 230,-252 224,-246 224,-240 224,-240 224,-228 224,-228 224,-222 230,-216 236,-216 236,-216 319,-216 319,-216 325,-216 331,-222 331,-228 331,-228 331,-240 331,-240 331,-246 325,-252 319,-252"/>
<text text-anchor="middle" x="277.5" y="-231.5" font-family="sans" font-size="10.00">sample_target_list</text>
</g>
<!-- 10&#45;&gt;11 -->
<g id="edge23" class="edge">
<title>10&#45;&gt;11</title>
<path fill="none" stroke="grey" stroke-width="2" d="M262.44,-287.7C264.67,-279.9 267.35,-270.51 269.83,-261.83"/>
<polygon fill="grey" stroke="grey" stroke-width="2" points="273.23,-262.68 272.61,-252.1 266.5,-260.76 273.23,-262.68"/>
</g>
<!-- 14 -->
<g id="node15" class="node">
<title>14</title>
<path fill="none" stroke="#d87556" stroke-width="2" d="M495.5,-180C495.5,-180 391.5,-180 391.5,-180 385.5,-180 379.5,-174 379.5,-168 379.5,-168 379.5,-156 379.5,-156 379.5,-150 385.5,-144 391.5,-144 391.5,-144 495.5,-144 495.5,-144 501.5,-144 507.5,-150 507.5,-156 507.5,-156 507.5,-168 507.5,-168 507.5,-174 501.5,-180 495.5,-180"/>
<text text-anchor="middle" x="443.5" y="-159.5" font-family="sans" font-size="10.00">get_clinical_guidelines</text>
</g>
<!-- 10&#45;&gt;14 -->
<g id="edge26" class="edge">
<title>10&#45;&gt;14</title>
<path fill="none" stroke="grey" stroke-width="2" d="M285.83,-287.99C301.93,-278.01 322.24,-264.87 339.5,-252 367.08,-231.43 396.73,-205.66 417.28,-187.15"/>
<polygon fill="grey" stroke="grey" stroke-width="2" points="419.9,-189.5 424.96,-180.19 415.2,-184.31 419.9,-189.5"/>
</g>
<!-- 11&#45;&gt;0 -->
<g id="edge1" class="edge">
<title>11&#45;&gt;0</title>
<path fill="none" stroke="grey" stroke-width="2" d="M267.69,-215.89C262.34,-205.77 256.09,-192.52 252.5,-180 239.4,-134.3 235.32,-78.82 234.05,-46.36"/>
<polygon fill="grey" stroke="grey" stroke-width="2" points="237.55,-46.16 233.72,-36.28 230.55,-46.39 237.55,-46.16"/>
</g>
<!-- 13 -->
<g id="node14" class="node">
<title>13</title>
<path fill="none" stroke="#56d882" stroke-width="2" d="M349,-180C349,-180 274,-180 274,-180 268,-180 262,-174 262,-168 262,-168 262,-156 262,-156 262,-150 268,-144 274,-144 274,-144 349,-144 349,-144 355,-144 361,-150 361,-156 361,-156 361,-168 361,-168 361,-174 355,-180 349,-180"/>
<text text-anchor="middle" x="311.5" y="-159.5" font-family="sans" font-size="10.00">depth_of_targets</text>
</g>
<!-- 11&#45;&gt;13 -->
<g id="edge25" class="edge">
<title>11&#45;&gt;13</title>
<path fill="none" stroke="grey" stroke-width="2" d="M285.9,-215.7C289.77,-207.73 294.45,-198.1 298.74,-189.26"/>
<polygon fill="grey" stroke="grey" stroke-width="2" points="301.97,-190.63 303.19,-180.1 295.67,-187.57 301.97,-190.63"/>
</g>
<!-- 12&#45;&gt;0 -->
<g id="edge8" class="edge">
<title>12&#45;&gt;0</title>
<path fill="none" stroke="grey" stroke-width="2" d="M661.9,-75.37C657.07,-74.13 652.2,-72.97 647.5,-72 510.2,-43.61 343.95,-27.86 270.95,-21.86"/>
<polygon fill="grey" stroke="grey" stroke-width="2" points="271.11,-18.36 260.86,-21.04 270.55,-25.34 271.11,-18.36"/>
</g>
<!-- 13&#45;&gt;0 -->
<g id="edge9" class="edge">
<title>13&#45;&gt;0</title>
<path fill="none" stroke="grey" stroke-width="2" d="M302.09,-143.87C288.62,-119.35 263.73,-74.03 247.92,-45.26"/>
<polygon fill="grey" stroke="grey" stroke-width="2" points="250.82,-43.27 242.94,-36.19 244.69,-46.64 250.82,-43.27"/>
</g>
<!-- 16 -->
<g id="node17" class="node">
<title>16</title>
<path fill="none" stroke="#d8d356" stroke-width="2" d="M391,-108C391,-108 312,-108 312,-108 306,-108 300,-102 300,-96 300,-96 300,-84 300,-84 300,-78 306,-72 312,-72 312,-72 391,-72 391,-72 397,-72 403,-78 403,-84 403,-84 403,-96 403,-96 403,-102 397,-108 391,-108"/>
<text text-anchor="middle" x="351.5" y="-87.5" font-family="sans" font-size="10.00">append_id_to_gdf</text>
</g>
<!-- 13&#45;&gt;16 -->
<g id="edge28" class="edge">
<title>13&#45;&gt;16</title>
<path fill="none" stroke="grey" stroke-width="2" d="M321.39,-143.7C325.99,-135.64 331.56,-125.89 336.65,-116.98"/>
<polygon fill="grey" stroke="grey" stroke-width="2" points="339.8,-118.52 341.73,-108.1 333.73,-115.05 339.8,-118.52"/>
</g>
<!-- 14&#45;&gt;0 -->
<g id="edge2" class="edge">
<title>14&#45;&gt;0</title>
<path fill="none" stroke="grey" stroke-width="2" d="M441.91,-143.76C439.15,-123.75 431.66,-91.07 411.5,-72 373.01,-35.6 310.59,-24.09 270.83,-20.52"/>
<polygon fill="grey" stroke="grey" stroke-width="2" points="270.98,-17.02 260.74,-19.74 270.44,-24 270.98,-17.02"/>
</g>
<!-- 15 -->
<g id="node16" class="node">
<title>15</title>
<path fill="none" stroke="#d8b456" stroke-width="2" d="M593.5,-108C593.5,-108 471.5,-108 471.5,-108 465.5,-108 459.5,-102 459.5,-96 459.5,-96 459.5,-84 459.5,-84 459.5,-78 465.5,-72 471.5,-72 471.5,-72 593.5,-72 593.5,-72 599.5,-72 605.5,-78 605.5,-84 605.5,-84 605.5,-96 605.5,-96 605.5,-102 599.5,-108 593.5,-108"/>
<text text-anchor="middle" x="532.5" y="-87.5" font-family="sans" font-size="10.00">get_interaction_guidelines</text>
</g>
<!-- 14&#45;&gt;15 -->
<g id="edge27" class="edge">
<title>14&#45;&gt;15</title>
<path fill="none" stroke="grey" stroke-width="2" d="M465.5,-143.7C476.71,-134.88 490.5,-124.03 502.65,-114.47"/>
<polygon fill="grey" stroke="grey" stroke-width="2" points="505.06,-117.04 510.75,-108.1 500.73,-111.54 505.06,-117.04"/>
</g>
<!-- 15&#45;&gt;0 -->
<g id="edge3" class="edge">
<title>15&#45;&gt;0</title>
<path fill="none" stroke="grey" stroke-width="2" d="M459.74,-71.97C399.83,-57.94 317.37,-38.63 270.33,-27.62"/>
<polygon fill="grey" stroke="grey" stroke-width="2" points="271.11,-24.21 260.57,-25.34 269.51,-31.03 271.11,-24.21"/>
</g>
<!-- 16&#45;&gt;0 -->
<g id="edge4" class="edge">
<title>16&#45;&gt;0</title>
<path fill="none" stroke="grey" stroke-width="2" d="M322.63,-71.88C306.74,-62.45 286.87,-50.66 269.92,-40.61"/>
<polygon fill="grey" stroke="grey" stroke-width="2" points="271.24,-37.32 260.85,-35.23 267.67,-43.34 271.24,-37.32"/>
</g>
</g>
</svg>
