<?xml version="1.0" encoding="UTF-8" standalone="no"?>
<!DOCTYPE svg PUBLIC "-//W3C//DTD SVG 1.1//EN"
 "http://www.w3.org/Graphics/SVG/1.1/DTD/svg11.dtd">
<!-- Generated by graphviz version 2.43.0 (0)
 -->
<!-- Title: snakemake_dag Pages: 1 -->
<svg width="694pt" height="692pt"
 viewBox="0.00 0.00 693.50 692.00" xmlns="http://www.w3.org/2000/svg" xmlns:xlink="http://www.w3.org/1999/xlink">
<g id="graph0" class="graph" transform="scale(1 1) rotate(0) translate(4 688)">
<title>snakemake_dag</title>
<polygon fill="white" stroke="transparent" points="-4,4 -4,-688 689.5,-688 689.5,4 -4,4"/>
<!-- 0 -->
<g id="node1" class="node">
<title>0</title>
<path fill="none" stroke="#88d856" stroke-width="2" d="M257,-36C257,-36 227,-36 227,-36 221,-36 215,-30 215,-24 215,-24 215,-12 215,-12 215,-6 221,0 227,0 227,0 257,0 257,0 263,0 269,-6 269,-12 269,-12 269,-24 269,-24 269,-30 263,-36 257,-36"/>
<text text-anchor="middle" x="242" y="-15.5" font-family="sans" font-size="10.00">all</text>
</g>
<!-- 1 -->
<g id="node2" class="node">
<title>1</title>
<path fill="none" stroke="#d85656" stroke-width="2" d="M104,-684C104,-684 12,-684 12,-684 6,-684 0,-678 0,-672 0,-672 0,-660 0,-660 0,-654 6,-648 12,-648 12,-648 104,-648 104,-648 110,-648 116,-654 116,-660 116,-660 116,-672 116,-672 116,-678 110,-684 104,-684"/>
<text text-anchor="middle" x="58" y="-663.5" font-family="sans" font-size="10.00">padd_target_regions</text>
</g>
<!-- 1&#45;&gt;0 -->
<g id="edge1" class="edge">
<title>1&#45;&gt;0</title>
<path fill="none" stroke="grey" stroke-width="2" d="M48.62,-647.75C43.41,-637.59 37.16,-624.34 33,-612 20.06,-573.68 14,-563.45 14,-523 14,-523 14,-523 14,-161 14,-115.85 27.82,-100.31 63,-72 104.17,-38.87 165.51,-26.44 204.62,-21.78"/>
<polygon fill="grey" stroke="grey" stroke-width="2" points="205.22,-25.24 214.79,-20.69 204.47,-18.28 205.22,-25.24"/>
</g>
<!-- 5 -->
<g id="node6" class="node">
<title>5</title>
<path fill="none" stroke="#567bd8" stroke-width="2" d="M148,-612C148,-612 54,-612 54,-612 48,-612 42,-606 42,-600 42,-600 42,-588 42,-588 42,-582 48,-576 54,-576 54,-576 148,-576 148,-576 154,-576 160,-582 160,-588 160,-588 160,-600 160,-600 160,-606 154,-612 148,-612"/>
<text text-anchor="middle" x="101" y="-591.5" font-family="sans" font-size="10.00">snv_indels_bed_split</text>
</g>
<!-- 1&#45;&gt;5 -->
<g id="edge16" class="edge">
<title>1&#45;&gt;5</title>
<path fill="none" stroke="grey" stroke-width="2" d="M68.63,-647.7C73.63,-639.56 79.69,-629.69 85.21,-620.7"/>
<polygon fill="grey" stroke="grey" stroke-width="2" points="88.24,-622.46 90.49,-612.1 82.28,-618.79 88.24,-622.46"/>
</g>
<!-- 2 -->
<g id="node3" class="node">
<title>2</title>
<path fill="none" stroke="#68d856" stroke-width="2" d="M673.5,-180C673.5,-180 594.5,-180 594.5,-180 588.5,-180 582.5,-174 582.5,-168 582.5,-168 582.5,-156 582.5,-156 582.5,-150 588.5,-144 594.5,-144 594.5,-144 673.5,-144 673.5,-144 679.5,-144 685.5,-150 685.5,-156 685.5,-156 685.5,-168 685.5,-168 685.5,-174 679.5,-180 673.5,-180"/>
<text text-anchor="middle" x="634" y="-159.5" font-family="sans" font-size="10.00">get_padded_baits</text>
</g>
<!-- 2&#45;&gt;0 -->
<g id="edge7" class="edge">
<title>2&#45;&gt;0</title>
<path fill="none" stroke="grey" stroke-width="2" d="M633.95,-143.68C632.89,-123.27 627.81,-89.9 607,-72 558.4,-30.2 362.54,-21.37 279.51,-19.5"/>
<polygon fill="grey" stroke="grey" stroke-width="2" points="279.33,-15.99 269.26,-19.29 279.19,-22.99 279.33,-15.99"/>
</g>
<!-- 12 -->
<g id="node13" class="node">
<title>12</title>
<path fill="none" stroke="#afd856" stroke-width="2" d="M586.5,-108C586.5,-108 521.5,-108 521.5,-108 515.5,-108 509.5,-102 509.5,-96 509.5,-96 509.5,-84 509.5,-84 509.5,-78 515.5,-72 521.5,-72 521.5,-72 586.5,-72 586.5,-72 592.5,-72 598.5,-78 598.5,-84 598.5,-84 598.5,-96 598.5,-96 598.5,-102 592.5,-108 586.5,-108"/>
<text text-anchor="middle" x="554" y="-87.5" font-family="sans" font-size="10.00">depth_of_baits</text>
</g>
<!-- 2&#45;&gt;12 -->
<g id="edge27" class="edge">
<title>2&#45;&gt;12</title>
<path fill="none" stroke="grey" stroke-width="2" d="M614.22,-143.7C604.25,-134.97 591.99,-124.24 581.14,-114.75"/>
<polygon fill="grey" stroke="grey" stroke-width="2" points="583.38,-112.06 573.55,-108.1 578.77,-117.32 583.38,-112.06"/>
</g>
<!-- 3 -->
<g id="node4" class="node">
<title>3</title>
<path fill="none" stroke="#56d8a9" stroke-width="2" d="M438,-540C438,-540 274,-540 274,-540 268,-540 262,-534 262,-528 262,-528 262,-516 262,-516 262,-510 268,-504 274,-504 274,-504 438,-504 438,-504 444,-504 450,-510 450,-516 450,-516 450,-528 450,-528 450,-534 444,-540 438,-540"/>
<text text-anchor="middle" x="356" y="-519.5" font-family="sans" font-size="10.00">alignment_samtools_extract_reads</text>
</g>
<!-- 3&#45;&gt;0 -->
<g id="edge9" class="edge">
<title>3&#45;&gt;0</title>
<path fill="none" stroke="grey" stroke-width="2" d="M374.64,-503.69C399.39,-478.72 440,-429.98 440,-379 440,-379 440,-379 440,-161 440,-120.46 447.67,-101.63 420,-72 383.56,-32.98 319.79,-22.26 279.29,-19.56"/>
<polygon fill="grey" stroke="grey" stroke-width="2" points="279.45,-16.06 269.28,-19.02 279.07,-23.05 279.45,-16.06"/>
</g>
<!-- 6 -->
<g id="node7" class="node">
<title>6</title>
<path fill="none" stroke="#56d8d0" stroke-width="2" d="M560,-684C560,-684 396,-684 396,-684 390,-684 384,-678 384,-672 384,-672 384,-660 384,-660 384,-654 390,-648 396,-648 396,-648 560,-648 560,-648 566,-648 572,-654 572,-660 572,-660 572,-672 572,-672 572,-678 566,-684 560,-684"/>
<text text-anchor="middle" x="478" y="-663.5" font-family="sans" font-size="10.00">alignment_picard_mark_duplicates</text>
</g>
<!-- 3&#45;&gt;6 -->
<g id="edge17" class="edge">
<title>3&#45;&gt;6</title>
<path fill="none" stroke="grey" stroke-width="2" d="M380.75,-540.23C393.61,-549.88 409.08,-562.63 421,-576 438.24,-595.33 453.79,-620.4 464.28,-639.01"/>
<polygon fill="grey" stroke="grey" stroke-width="2" points="461.25,-640.76 469.15,-647.82 467.38,-637.38 461.25,-640.76"/>
</g>
<!-- 4 -->
<g id="node5" class="node">
<title>4</title>
<path fill="none" stroke="#ced856" stroke-width="2" d="M400.5,-612C400.5,-612 275.5,-612 275.5,-612 269.5,-612 263.5,-606 263.5,-600 263.5,-600 263.5,-588 263.5,-588 263.5,-582 269.5,-576 275.5,-576 275.5,-576 400.5,-576 400.5,-576 406.5,-576 412.5,-582 412.5,-588 412.5,-588 412.5,-600 412.5,-600 412.5,-606 406.5,-612 400.5,-612"/>
<text text-anchor="middle" x="338" y="-591.5" font-family="sans" font-size="10.00">alignment_samtools_index</text>
</g>
<!-- 4&#45;&gt;3 -->
<g id="edge14" class="edge">
<title>4&#45;&gt;3</title>
<path fill="none" stroke="grey" stroke-width="2" d="M342.45,-575.7C344.45,-567.9 346.87,-558.51 349.1,-549.83"/>
<polygon fill="grey" stroke="grey" stroke-width="2" points="352.5,-550.66 351.6,-540.1 345.72,-548.92 352.5,-550.66"/>
</g>
<!-- 7 -->
<g id="node8" class="node">
<title>7</title>
<path fill="none" stroke="#d89c56" stroke-width="2" d="M230.5,-540C230.5,-540 105.5,-540 105.5,-540 99.5,-540 93.5,-534 93.5,-528 93.5,-528 93.5,-516 93.5,-516 93.5,-510 99.5,-504 105.5,-504 105.5,-504 230.5,-504 230.5,-504 236.5,-504 242.5,-510 242.5,-516 242.5,-516 242.5,-528 242.5,-528 242.5,-534 236.5,-540 230.5,-540"/>
<text text-anchor="middle" x="168" y="-519.5" font-family="sans" font-size="10.00">snv_indels_haplotypecaller</text>
</g>
<!-- 4&#45;&gt;7 -->
<g id="edge20" class="edge">
<title>4&#45;&gt;7</title>
<path fill="none" stroke="grey" stroke-width="2" d="M296.41,-575.88C272.97,-566.22 243.5,-554.09 218.7,-543.88"/>
<polygon fill="grey" stroke="grey" stroke-width="2" points="220.03,-540.64 209.45,-540.07 217.37,-547.11 220.03,-540.64"/>
</g>
<!-- 5&#45;&gt;0 -->
<g id="edge13" class="edge">
<title>5&#45;&gt;0</title>
<path fill="none" stroke="grey" stroke-width="2" d="M90.85,-575.73C76.49,-549.64 52,-498.2 52,-451 52,-451 52,-451 52,-161 52,-115.41 68.35,-101.63 103,-72 132.24,-47 174.5,-33.15 204.74,-25.94"/>
<polygon fill="grey" stroke="grey" stroke-width="2" points="205.91,-29.27 214.9,-23.66 204.37,-22.44 205.91,-29.27"/>
</g>
<!-- 5&#45;&gt;7 -->
<g id="edge18" class="edge">
<title>5&#45;&gt;7</title>
<path fill="none" stroke="grey" stroke-width="2" d="M117.56,-575.7C125.68,-567.22 135.59,-556.86 144.47,-547.58"/>
<polygon fill="grey" stroke="grey" stroke-width="2" points="147.24,-549.75 151.63,-540.1 142.19,-544.91 147.24,-549.75"/>
</g>
<!-- 6&#45;&gt;0 -->
<g id="edge11" class="edge">
<title>6&#45;&gt;0</title>
<path fill="none" stroke="grey" stroke-width="2" d="M478,-647.95C478,-621.29 478,-568.11 478,-523 478,-523 478,-523 478,-161 478,-118.66 475.52,-100.28 444,-72 398.03,-30.76 323.8,-20.93 279.27,-18.98"/>
<polygon fill="grey" stroke="grey" stroke-width="2" points="279.27,-15.48 269.16,-18.65 279.04,-22.47 279.27,-15.48"/>
</g>
<!-- 6&#45;&gt;4 -->
<g id="edge15" class="edge">
<title>6&#45;&gt;4</title>
<path fill="none" stroke="grey" stroke-width="2" d="M443.75,-647.88C424.94,-638.47 401.42,-626.71 381.33,-616.67"/>
<polygon fill="grey" stroke="grey" stroke-width="2" points="382.89,-613.53 372.38,-612.19 379.76,-619.79 382.89,-613.53"/>
</g>
<!-- 6&#45;&gt;7 -->
<g id="edge19" class="edge">
<title>6&#45;&gt;7</title>
<path fill="none" stroke="grey" stroke-width="2" d="M383.97,-654.92C342.13,-647.45 293.51,-634.49 254,-612 226.22,-596.19 201.69,-568.7 186.01,-548.45"/>
<polygon fill="grey" stroke="grey" stroke-width="2" points="188.66,-546.15 179.85,-540.27 183.07,-550.36 188.66,-546.15"/>
</g>
<!-- 9 -->
<g id="node10" class="node">
<title>9</title>
<path fill="none" stroke="#56c1d8" stroke-width="2" d="M267,-396C267,-396 187,-396 187,-396 181,-396 175,-390 175,-384 175,-384 175,-372 175,-372 175,-366 181,-360 187,-360 187,-360 267,-360 267,-360 273,-360 279,-366 279,-372 279,-372 279,-384 279,-384 279,-390 273,-396 267,-396"/>
<text text-anchor="middle" x="227" y="-375.5" font-family="sans" font-size="10.00">variant_annotator</text>
</g>
<!-- 6&#45;&gt;9 -->
<g id="edge23" class="edge">
<title>6&#45;&gt;9</title>
<path fill="none" stroke="grey" stroke-width="2" d="M483.82,-647.56C486.93,-637.33 490.43,-624.08 492,-612 498.46,-562.23 493.33,-540.62 459,-504 411.96,-453.83 340.18,-419.48 288.93,-399.67"/>
<polygon fill="grey" stroke="grey" stroke-width="2" points="289.88,-396.29 279.28,-396.02 287.4,-402.83 289.88,-396.29"/>
</g>
<!-- 6&#45;&gt;12 -->
<g id="edge26" class="edge">
<title>6&#45;&gt;12</title>
<path fill="none" stroke="grey" stroke-width="2" d="M494.49,-647.77C516.84,-622.53 554,-573.05 554,-523 554,-523 554,-523 554,-233 554,-193 554,-146.65 554,-118.08"/>
<polygon fill="grey" stroke="grey" stroke-width="2" points="557.5,-118.05 554,-108.05 550.5,-118.05 557.5,-118.05"/>
</g>
<!-- 13 -->
<g id="node14" class="node">
<title>13</title>
<path fill="none" stroke="#56d86b" stroke-width="2" d="M377.5,-180C377.5,-180 302.5,-180 302.5,-180 296.5,-180 290.5,-174 290.5,-168 290.5,-168 290.5,-156 290.5,-156 290.5,-150 296.5,-144 302.5,-144 302.5,-144 377.5,-144 377.5,-144 383.5,-144 389.5,-150 389.5,-156 389.5,-156 389.5,-168 389.5,-168 389.5,-174 383.5,-180 377.5,-180"/>
<text text-anchor="middle" x="340" y="-159.5" font-family="sans" font-size="10.00">depth_of_targets</text>
</g>
<!-- 6&#45;&gt;13 -->
<g id="edge28" class="edge">
<title>6&#45;&gt;13</title>
<path fill="none" stroke="grey" stroke-width="2" d="M521.56,-647.96C538.26,-639.45 556.13,-627.58 568,-612 592.83,-579.41 592,-563.97 592,-523 592,-523 592,-523 592,-305 592,-217.23 474.54,-183.12 400,-170.31"/>
<polygon fill="grey" stroke="grey" stroke-width="2" points="400.22,-166.8 389.79,-168.64 399.09,-173.7 400.22,-166.8"/>
</g>
<!-- 7&#45;&gt;0 -->
<g id="edge2" class="edge">
<title>7&#45;&gt;0</title>
<path fill="none" stroke="grey" stroke-width="2" d="M142.95,-503.77C131.25,-494.48 118.15,-482.04 110,-468 89.65,-432.93 90,-419.54 90,-379 90,-379 90,-379 90,-161 90,-115.41 108.17,-103.63 141,-72 159.34,-54.33 184.75,-41.03 205.49,-32.18"/>
<polygon fill="grey" stroke="grey" stroke-width="2" points="207.02,-35.34 214.95,-28.31 204.37,-28.86 207.02,-35.34"/>
</g>
<!-- 8 -->
<g id="node9" class="node">
<title>8</title>
<path fill="none" stroke="#d87556" stroke-width="2" d="M205,-468C205,-468 131,-468 131,-468 125,-468 119,-462 119,-456 119,-456 119,-444 119,-444 119,-438 125,-432 131,-432 131,-432 205,-432 205,-432 211,-432 217,-438 217,-444 217,-444 217,-456 217,-456 217,-462 211,-468 205,-468"/>
<text text-anchor="middle" x="168" y="-447.5" font-family="sans" font-size="10.00">variant_filtration</text>
</g>
<!-- 7&#45;&gt;8 -->
<g id="edge21" class="edge">
<title>7&#45;&gt;8</title>
<path fill="none" stroke="grey" stroke-width="2" d="M168,-503.7C168,-495.98 168,-486.71 168,-478.11"/>
<polygon fill="grey" stroke="grey" stroke-width="2" points="171.5,-478.1 168,-468.1 164.5,-478.1 171.5,-478.1"/>
</g>
<!-- 8&#45;&gt;0 -->
<g id="edge3" class="edge">
<title>8&#45;&gt;0</title>
<path fill="none" stroke="grey" stroke-width="2" d="M159.91,-431.95C148.22,-405.72 128,-353.61 128,-307 128,-307 128,-307 128,-161 128,-110 173.27,-66.88 206.76,-41.97"/>
<polygon fill="grey" stroke="grey" stroke-width="2" points="208.92,-44.73 214.98,-36.04 204.83,-39.05 208.92,-44.73"/>
</g>
<!-- 8&#45;&gt;9 -->
<g id="edge22" class="edge">
<title>8&#45;&gt;9</title>
<path fill="none" stroke="grey" stroke-width="2" d="M182.58,-431.7C189.66,-423.3 198.28,-413.07 206.05,-403.86"/>
<polygon fill="grey" stroke="grey" stroke-width="2" points="208.81,-406.01 212.58,-396.1 203.46,-401.49 208.81,-406.01"/>
</g>
<!-- 9&#45;&gt;0 -->
<g id="edge6" class="edge">
<title>9&#45;&gt;0</title>
<path fill="none" stroke="grey" stroke-width="2" d="M209.96,-359.76C201.25,-350.02 191.2,-337.17 185,-324 167.76,-287.41 166,-275.45 166,-235 166,-235 166,-235 166,-161 166,-115.64 196.52,-70.75 218.88,-43.95"/>
<polygon fill="grey" stroke="grey" stroke-width="2" points="221.64,-46.09 225.51,-36.23 216.34,-41.53 221.64,-46.09"/>
</g>
<!-- 10 -->
<g id="node11" class="node">
<title>10</title>
<path fill="none" stroke="#569ad8" stroke-width="2" d="M286,-324C286,-324 206,-324 206,-324 200,-324 194,-318 194,-312 194,-312 194,-300 194,-300 194,-294 200,-288 206,-288 206,-288 286,-288 286,-288 292,-288 298,-294 298,-300 298,-300 298,-312 298,-312 298,-318 292,-324 286,-324"/>
<text text-anchor="middle" x="246" y="-303.5" font-family="sans" font-size="10.00">detected_variants</text>
</g>
<!-- 9&#45;&gt;10 -->
<g id="edge24" class="edge">
<title>9&#45;&gt;10</title>
<path fill="none" stroke="grey" stroke-width="2" d="M231.7,-359.7C233.81,-351.9 236.36,-342.51 238.72,-333.83"/>
<polygon fill="grey" stroke="grey" stroke-width="2" points="242.12,-334.67 241.36,-324.1 235.36,-332.84 242.12,-334.67"/>
</g>
<!-- 10&#45;&gt;0 -->
<g id="edge12" class="edge">
<title>10&#45;&gt;0</title>
<path fill="none" stroke="grey" stroke-width="2" d="M236.46,-287.93C231.36,-277.82 225.61,-264.57 223,-252 207.76,-178.58 224.41,-89.77 234.86,-46.03"/>
<polygon fill="grey" stroke="grey" stroke-width="2" points="238.3,-46.71 237.3,-36.16 231.51,-45.03 238.3,-46.71"/>
</g>
<!-- 11 -->
<g id="node12" class="node">
<title>11</title>
<path fill="none" stroke="#d8bc56" stroke-width="2" d="M327.5,-252C327.5,-252 244.5,-252 244.5,-252 238.5,-252 232.5,-246 232.5,-240 232.5,-240 232.5,-228 232.5,-228 232.5,-222 238.5,-216 244.5,-216 244.5,-216 327.5,-216 327.5,-216 333.5,-216 339.5,-222 339.5,-228 339.5,-228 339.5,-240 339.5,-240 339.5,-246 333.5,-252 327.5,-252"/>
<text text-anchor="middle" x="286" y="-231.5" font-family="sans" font-size="10.00">sample_target_list</text>
</g>
<!-- 10&#45;&gt;11 -->
<g id="edge25" class="edge">
<title>10&#45;&gt;11</title>
<path fill="none" stroke="grey" stroke-width="2" d="M255.89,-287.7C260.49,-279.64 266.06,-269.89 271.15,-260.98"/>
<polygon fill="grey" stroke="grey" stroke-width="2" points="274.3,-262.52 276.23,-252.1 268.23,-259.05 274.3,-262.52"/>
</g>
<!-- 11&#45;&gt;0 -->
<g id="edge4" class="edge">
<title>11&#45;&gt;0</title>
<path fill="none" stroke="grey" stroke-width="2" d="M282.47,-215.85C274.85,-178.75 256.76,-90.81 247.57,-46.1"/>
<polygon fill="grey" stroke="grey" stroke-width="2" points="250.99,-45.32 245.54,-36.23 244.13,-46.73 250.99,-45.32"/>
</g>
<!-- 11&#45;&gt;13 -->
<g id="edge29" class="edge">
<title>11&#45;&gt;13</title>
<path fill="none" stroke="grey" stroke-width="2" d="M299.35,-215.7C305.76,-207.39 313.56,-197.28 320.61,-188.14"/>
<polygon fill="grey" stroke="grey" stroke-width="2" points="323.47,-190.16 326.81,-180.1 317.93,-185.88 323.47,-190.16"/>
</g>
<!-- 12&#45;&gt;0 -->
<g id="edge5" class="edge">
<title>12&#45;&gt;0</title>
<path fill="none" stroke="grey" stroke-width="2" d="M509.38,-76.43C503.55,-74.88 497.64,-73.37 492,-72 416.89,-53.76 328.23,-35.8 279.24,-26.19"/>
<polygon fill="grey" stroke="grey" stroke-width="2" points="279.61,-22.69 269.12,-24.21 278.27,-29.56 279.61,-22.69"/>
</g>
<!-- 13&#45;&gt;0 -->
<g id="edge8" class="edge">
<title>13&#45;&gt;0</title>
<path fill="none" stroke="grey" stroke-width="2" d="M325.93,-143.63C317.83,-133.42 307.58,-120.17 299,-108 284.33,-87.18 268.81,-62.78 257.67,-44.79"/>
<polygon fill="grey" stroke="grey" stroke-width="2" points="260.5,-42.71 252.28,-36.02 254.54,-46.38 260.5,-42.71"/>
</g>
<!-- 14 -->
<g id="node15" class="node">
<title>14</title>
<path fill="none" stroke="#56d88a" stroke-width="2" d="M399.5,-108C399.5,-108 320.5,-108 320.5,-108 314.5,-108 308.5,-102 308.5,-96 308.5,-96 308.5,-84 308.5,-84 308.5,-78 314.5,-72 320.5,-72 320.5,-72 399.5,-72 399.5,-72 405.5,-72 411.5,-78 411.5,-84 411.5,-84 411.5,-96 411.5,-96 411.5,-102 405.5,-108 399.5,-108"/>
<text text-anchor="middle" x="360" y="-87.5" font-family="sans" font-size="10.00">append_id_to_gdf</text>
</g>
<!-- 13&#45;&gt;14 -->
<g id="edge30" class="edge">
<title>13&#45;&gt;14</title>
<path fill="none" stroke="grey" stroke-width="2" d="M344.94,-143.7C347.17,-135.9 349.85,-126.51 352.33,-117.83"/>
<polygon fill="grey" stroke="grey" stroke-width="2" points="355.73,-118.68 355.11,-108.1 349,-116.76 355.73,-118.68"/>
</g>
<!-- 14&#45;&gt;0 -->
<g id="edge10" class="edge">
<title>14&#45;&gt;0</title>
<path fill="none" stroke="grey" stroke-width="2" d="M331.13,-71.88C315.24,-62.45 295.37,-50.66 278.42,-40.61"/>
<polygon fill="grey" stroke="grey" stroke-width="2" points="279.74,-37.32 269.35,-35.23 276.17,-43.34 279.74,-37.32"/>
</g>
</g>
</svg>
