<?xml version="1.0" encoding="UTF-8" standalone="no"?>
<!DOCTYPE svg PUBLIC "-//W3C//DTD SVG 1.1//EN"
 "http://www.w3.org/Graphics/SVG/1.1/DTD/svg11.dtd">
<!-- Generated by graphviz version 2.43.0 (0)
 -->
<!-- Title: snakemake_dag Pages: 1 -->
<svg width="709pt" height="620pt"
 viewBox="0.00 0.00 709.42 620.00" xmlns="http://www.w3.org/2000/svg" xmlns:xlink="http://www.w3.org/1999/xlink">
<g id="graph0" class="graph" transform="scale(1 1) rotate(0) translate(4 616)">
<title>snakemake_dag</title>
<polygon fill="white" stroke="transparent" points="-4,4 -4,-616 705.42,-616 705.42,4 -4,4"/>
<!-- 0 -->
<g id="node1" class="node">
<title>0</title>
<path fill="none" stroke="#56d87b" stroke-width="2" d="M338,-36C338,-36 308,-36 308,-36 302,-36 296,-30 296,-24 296,-24 296,-12 296,-12 296,-6 302,0 308,0 308,0 338,0 338,0 344,0 350,-6 350,-12 350,-12 350,-24 350,-24 350,-30 344,-36 338,-36"/>
<text text-anchor="middle" x="323" y="-15.5" font-family="sans" font-size="10.00">all</text>
</g>
<!-- 1 -->
<g id="node2" class="node">
<title>1</title>
<path fill="none" stroke="#59d856" stroke-width="2" d="M104,-612C104,-612 12,-612 12,-612 6,-612 0,-606 0,-600 0,-600 0,-588 0,-588 0,-582 6,-576 12,-576 12,-576 104,-576 104,-576 110,-576 116,-582 116,-588 116,-588 116,-600 116,-600 116,-606 110,-612 104,-612"/>
<text text-anchor="middle" x="58" y="-591.5" font-family="sans" font-size="10.00">padd_target_regions</text>
</g>
<!-- 1&#45;&gt;0 -->
<g id="edge7" class="edge">
<title>1&#45;&gt;0</title>
<path fill="none" stroke="grey" stroke-width="2" d="M48.62,-575.75C43.41,-565.59 37.16,-552.34 33,-540 20.06,-501.68 14,-491.45 14,-451 14,-451 14,-451 14,-161 14,-42.65 203.47,-22.58 285.68,-19.44"/>
<polygon fill="grey" stroke="grey" stroke-width="2" points="285.96,-22.93 295.85,-19.12 285.74,-15.94 285.96,-22.93"/>
</g>
<!-- 5 -->
<g id="node6" class="node">
<title>5</title>
<path fill="none" stroke="#78d856" stroke-width="2" d="M148,-540C148,-540 54,-540 54,-540 48,-540 42,-534 42,-528 42,-528 42,-516 42,-516 42,-510 48,-504 54,-504 54,-504 148,-504 148,-504 154,-504 160,-510 160,-516 160,-516 160,-528 160,-528 160,-534 154,-540 148,-540"/>
<text text-anchor="middle" x="101" y="-519.5" font-family="sans" font-size="10.00">snv_indels_bed_split</text>
</g>
<!-- 1&#45;&gt;5 -->
<g id="edge15" class="edge">
<title>1&#45;&gt;5</title>
<path fill="none" stroke="grey" stroke-width="2" d="M68.63,-575.7C73.63,-567.56 79.69,-557.69 85.21,-548.7"/>
<polygon fill="grey" stroke="grey" stroke-width="2" points="88.24,-550.46 90.49,-540.1 82.28,-546.79 88.24,-550.46"/>
</g>
<!-- 2 -->
<g id="node3" class="node">
<title>2</title>
<path fill="none" stroke="#56d8c9" stroke-width="2" d="M620.5,-180C620.5,-180 541.5,-180 541.5,-180 535.5,-180 529.5,-174 529.5,-168 529.5,-168 529.5,-156 529.5,-156 529.5,-150 535.5,-144 541.5,-144 541.5,-144 620.5,-144 620.5,-144 626.5,-144 632.5,-150 632.5,-156 632.5,-156 632.5,-168 632.5,-168 632.5,-174 626.5,-180 620.5,-180"/>
<text text-anchor="middle" x="581" y="-159.5" font-family="sans" font-size="10.00">get_padded_baits</text>
</g>
<!-- 2&#45;&gt;0 -->
<g id="edge9" class="edge">
<title>2&#45;&gt;0</title>
<path fill="none" stroke="grey" stroke-width="2" d="M576.36,-143.82C569.99,-123.57 556.55,-90.34 533,-72 482.33,-32.54 405.79,-22.14 360.46,-19.59"/>
<polygon fill="grey" stroke="grey" stroke-width="2" points="360.34,-16.08 350.19,-19.12 360.01,-23.07 360.34,-16.08"/>
</g>
<!-- 12 -->
<g id="node13" class="node">
<title>12</title>
<path fill="none" stroke="#56c9d8" stroke-width="2" d="M658.5,-108C658.5,-108 593.5,-108 593.5,-108 587.5,-108 581.5,-102 581.5,-96 581.5,-96 581.5,-84 581.5,-84 581.5,-78 587.5,-72 593.5,-72 593.5,-72 658.5,-72 658.5,-72 664.5,-72 670.5,-78 670.5,-84 670.5,-84 670.5,-96 670.5,-96 670.5,-102 664.5,-108 658.5,-108"/>
<text text-anchor="middle" x="626" y="-87.5" font-family="sans" font-size="10.00">depth_of_baits</text>
</g>
<!-- 2&#45;&gt;12 -->
<g id="edge25" class="edge">
<title>2&#45;&gt;12</title>
<path fill="none" stroke="grey" stroke-width="2" d="M592.12,-143.7C597.36,-135.56 603.7,-125.69 609.48,-116.7"/>
<polygon fill="grey" stroke="grey" stroke-width="2" points="612.54,-118.41 615,-108.1 606.65,-114.62 612.54,-118.41"/>
</g>
<!-- 3 -->
<g id="node4" class="node">
<title>3</title>
<path fill="none" stroke="#d8a456" stroke-width="2" d="M423,-468C423,-468 259,-468 259,-468 253,-468 247,-462 247,-456 247,-456 247,-444 247,-444 247,-438 253,-432 259,-432 259,-432 423,-432 423,-432 429,-432 435,-438 435,-444 435,-444 435,-456 435,-456 435,-462 429,-468 423,-468"/>
<text text-anchor="middle" x="341" y="-447.5" font-family="sans" font-size="10.00">alignment_samtools_extract_reads</text>
</g>
<!-- 3&#45;&gt;0 -->
<g id="edge2" class="edge">
<title>3&#45;&gt;0</title>
<path fill="none" stroke="grey" stroke-width="2" d="M330.57,-432C316.94,-408.66 293.75,-364.93 285,-324 263.3,-222.49 296.52,-99.14 313.73,-45.75"/>
<polygon fill="grey" stroke="grey" stroke-width="2" points="317.12,-46.63 316.93,-36.03 310.48,-44.43 317.12,-46.63"/>
</g>
<!-- 6 -->
<g id="node7" class="node">
<title>6</title>
<path fill="none" stroke="#56d8a2" stroke-width="2" d="M545,-612C545,-612 381,-612 381,-612 375,-612 369,-606 369,-600 369,-600 369,-588 369,-588 369,-582 375,-576 381,-576 381,-576 545,-576 545,-576 551,-576 557,-582 557,-588 557,-588 557,-600 557,-600 557,-606 551,-612 545,-612"/>
<text text-anchor="middle" x="463" y="-591.5" font-family="sans" font-size="10.00">alignment_picard_mark_duplicates</text>
</g>
<!-- 3&#45;&gt;6 -->
<g id="edge16" class="edge">
<title>3&#45;&gt;6</title>
<path fill="none" stroke="grey" stroke-width="2" d="M365.75,-468.23C378.61,-477.88 394.08,-490.63 406,-504 423.24,-523.33 438.79,-548.4 449.28,-567.01"/>
<polygon fill="grey" stroke="grey" stroke-width="2" points="446.25,-568.76 454.15,-575.82 452.38,-565.38 446.25,-568.76"/>
</g>
<!-- 4 -->
<g id="node5" class="node">
<title>4</title>
<path fill="none" stroke="#d87d56" stroke-width="2" d="M385.5,-540C385.5,-540 260.5,-540 260.5,-540 254.5,-540 248.5,-534 248.5,-528 248.5,-528 248.5,-516 248.5,-516 248.5,-510 254.5,-504 260.5,-504 260.5,-504 385.5,-504 385.5,-504 391.5,-504 397.5,-510 397.5,-516 397.5,-516 397.5,-528 397.5,-528 397.5,-534 391.5,-540 385.5,-540"/>
<text text-anchor="middle" x="323" y="-519.5" font-family="sans" font-size="10.00">alignment_samtools_index</text>
</g>
<!-- 4&#45;&gt;3 -->
<g id="edge13" class="edge">
<title>4&#45;&gt;3</title>
<path fill="none" stroke="grey" stroke-width="2" d="M327.45,-503.7C329.45,-495.9 331.87,-486.51 334.1,-477.83"/>
<polygon fill="grey" stroke="grey" stroke-width="2" points="337.5,-478.66 336.6,-468.1 330.72,-476.92 337.5,-478.66"/>
</g>
<!-- 7 -->
<g id="node8" class="node">
<title>7</title>
<path fill="none" stroke="#d8c356" stroke-width="2" d="M216.5,-468C216.5,-468 91.5,-468 91.5,-468 85.5,-468 79.5,-462 79.5,-456 79.5,-456 79.5,-444 79.5,-444 79.5,-438 85.5,-432 91.5,-432 91.5,-432 216.5,-432 216.5,-432 222.5,-432 228.5,-438 228.5,-444 228.5,-444 228.5,-456 228.5,-456 228.5,-462 222.5,-468 216.5,-468"/>
<text text-anchor="middle" x="154" y="-447.5" font-family="sans" font-size="10.00">snv_indels_haplotypecaller</text>
</g>
<!-- 4&#45;&gt;7 -->
<g id="edge17" class="edge">
<title>4&#45;&gt;7</title>
<path fill="none" stroke="grey" stroke-width="2" d="M281.66,-503.88C258.45,-494.26 229.31,-482.19 204.73,-472.01"/>
<polygon fill="grey" stroke="grey" stroke-width="2" points="205.79,-468.66 195.21,-468.07 203.11,-475.13 205.79,-468.66"/>
</g>
<!-- 5&#45;&gt;0 -->
<g id="edge6" class="edge">
<title>5&#45;&gt;0</title>
<path fill="none" stroke="grey" stroke-width="2" d="M88.84,-503.59C82.37,-493.58 74.79,-480.55 70,-468 55.62,-430.29 52,-419.36 52,-379 52,-379 52,-379 52,-161 52,-56.84 211.03,-28.93 285.44,-21.58"/>
<polygon fill="grey" stroke="grey" stroke-width="2" points="286.13,-25.03 295.77,-20.63 285.5,-18.06 286.13,-25.03"/>
</g>
<!-- 5&#45;&gt;7 -->
<g id="edge18" class="edge">
<title>5&#45;&gt;7</title>
<path fill="none" stroke="grey" stroke-width="2" d="M114.1,-503.7C120.39,-495.39 128.05,-485.28 134.96,-476.14"/>
<polygon fill="grey" stroke="grey" stroke-width="2" points="137.8,-478.19 141.05,-468.1 132.22,-473.96 137.8,-478.19"/>
</g>
<!-- 6&#45;&gt;0 -->
<g id="edge8" class="edge">
<title>6&#45;&gt;0</title>
<path fill="none" stroke="grey" stroke-width="2" d="M554.92,-575.92C621.18,-557.68 699,-521.29 699,-451 699,-451 699,-451 699,-161 699,-120.46 708.7,-99.6 679,-72 633.28,-29.51 442.11,-21.06 360.35,-19.4"/>
<polygon fill="grey" stroke="grey" stroke-width="2" points="360.08,-15.89 350.02,-19.21 359.96,-22.89 360.08,-15.89"/>
</g>
<!-- 6&#45;&gt;4 -->
<g id="edge14" class="edge">
<title>6&#45;&gt;4</title>
<path fill="none" stroke="grey" stroke-width="2" d="M428.75,-575.88C409.94,-566.47 386.42,-554.71 366.33,-544.67"/>
<polygon fill="grey" stroke="grey" stroke-width="2" points="367.89,-541.53 357.38,-540.19 364.76,-547.79 367.89,-541.53"/>
</g>
<!-- 6&#45;&gt;7 -->
<g id="edge19" class="edge">
<title>6&#45;&gt;7</title>
<path fill="none" stroke="grey" stroke-width="2" d="M368.91,-583.03C327.06,-575.58 278.44,-562.6 239,-540 211.42,-524.2 187.2,-496.71 171.74,-476.45"/>
<polygon fill="grey" stroke="grey" stroke-width="2" points="174.43,-474.21 165.66,-468.27 168.81,-478.39 174.43,-474.21"/>
</g>
<!-- 9 -->
<g id="node10" class="node">
<title>9</title>
<path fill="none" stroke="#56a2d8" stroke-width="2" d="M386,-324C386,-324 306,-324 306,-324 300,-324 294,-318 294,-312 294,-312 294,-300 294,-300 294,-294 300,-288 306,-288 306,-288 386,-288 386,-288 392,-288 398,-294 398,-300 398,-300 398,-312 398,-312 398,-318 392,-324 386,-324"/>
<text text-anchor="middle" x="346" y="-303.5" font-family="sans" font-size="10.00">variant_annotator</text>
</g>
<!-- 6&#45;&gt;9 -->
<g id="edge21" class="edge">
<title>6&#45;&gt;9</title>
<path fill="none" stroke="grey" stroke-width="2" d="M463.94,-575.79C464.97,-545.5 464.28,-481.18 444,-432 427.68,-392.43 395.13,-354.9 372.03,-331.47"/>
<polygon fill="grey" stroke="grey" stroke-width="2" points="374.45,-328.95 364.89,-324.38 369.51,-333.91 374.45,-328.95"/>
</g>
<!-- 6&#45;&gt;12 -->
<g id="edge26" class="edge">
<title>6&#45;&gt;12</title>
<path fill="none" stroke="grey" stroke-width="2" d="M527.56,-575.98C585.34,-556.38 661,-517.94 661,-451 661,-451 661,-451 661,-233 661,-191.84 646.97,-145.88 636.67,-117.69"/>
<polygon fill="grey" stroke="grey" stroke-width="2" points="639.88,-116.28 633.08,-108.15 633.33,-118.74 639.88,-116.28"/>
</g>
<!-- 13 -->
<g id="node14" class="node">
<title>13</title>
<path fill="none" stroke="#9fd856" stroke-width="2" d="M512.5,-108C512.5,-108 437.5,-108 437.5,-108 431.5,-108 425.5,-102 425.5,-96 425.5,-96 425.5,-84 425.5,-84 425.5,-78 431.5,-72 437.5,-72 437.5,-72 512.5,-72 512.5,-72 518.5,-72 524.5,-78 524.5,-84 524.5,-84 524.5,-96 524.5,-96 524.5,-102 518.5,-108 512.5,-108"/>
<text text-anchor="middle" x="475" y="-87.5" font-family="sans" font-size="10.00">depth_of_targets</text>
</g>
<!-- 6&#45;&gt;13 -->
<g id="edge27" class="edge">
<title>6&#45;&gt;13</title>
<path fill="none" stroke="grey" stroke-width="2" d="M470.69,-575.91C481.79,-549.62 501,-497.45 501,-451 501,-451 501,-451 501,-233 501,-192.55 490.67,-146.67 483.03,-118.28"/>
<polygon fill="grey" stroke="grey" stroke-width="2" points="486.31,-117 480.26,-108.3 479.56,-118.87 486.31,-117"/>
</g>
<!-- 7&#45;&gt;0 -->
<g id="edge3" class="edge">
<title>7&#45;&gt;0</title>
<path fill="none" stroke="grey" stroke-width="2" d="M149.35,-431.66C142.62,-405.05 131,-352.45 131,-307 131,-307 131,-307 131,-161 131,-84.7 230.24,-44.71 286.02,-28.26"/>
<polygon fill="grey" stroke="grey" stroke-width="2" points="287.23,-31.56 295.9,-25.46 285.32,-24.82 287.23,-31.56"/>
</g>
<!-- 8 -->
<g id="node9" class="node">
<title>8</title>
<path fill="none" stroke="#c6d856" stroke-width="2" d="M245,-396C245,-396 171,-396 171,-396 165,-396 159,-390 159,-384 159,-384 159,-372 159,-372 159,-366 165,-360 171,-360 171,-360 245,-360 245,-360 251,-360 257,-366 257,-372 257,-372 257,-384 257,-384 257,-390 251,-396 245,-396"/>
<text text-anchor="middle" x="208" y="-375.5" font-family="sans" font-size="10.00">variant_filtration</text>
</g>
<!-- 7&#45;&gt;8 -->
<g id="edge20" class="edge">
<title>7&#45;&gt;8</title>
<path fill="none" stroke="grey" stroke-width="2" d="M167.35,-431.7C173.76,-423.39 181.56,-413.28 188.61,-404.14"/>
<polygon fill="grey" stroke="grey" stroke-width="2" points="191.47,-406.16 194.81,-396.1 185.93,-401.88 191.47,-406.16"/>
</g>
<!-- 8&#45;&gt;0 -->
<g id="edge4" class="edge">
<title>8&#45;&gt;0</title>
<path fill="none" stroke="grey" stroke-width="2" d="M208.99,-359.96C210.44,-333.31 213,-280.14 213,-235 213,-235 213,-235 213,-161 213,-118.66 220.93,-105.36 247,-72 257.73,-58.28 272.97,-46.68 287,-37.87"/>
<polygon fill="grey" stroke="grey" stroke-width="2" points="289.21,-40.63 295.98,-32.48 285.61,-34.62 289.21,-40.63"/>
</g>
<!-- 8&#45;&gt;9 -->
<g id="edge22" class="edge">
<title>8&#45;&gt;9</title>
<path fill="none" stroke="grey" stroke-width="2" d="M241.76,-359.88C260.22,-350.51 283.28,-338.81 303.02,-328.8"/>
<polygon fill="grey" stroke="grey" stroke-width="2" points="304.78,-331.83 312.11,-324.19 301.61,-325.59 304.78,-331.83"/>
</g>
<!-- 9&#45;&gt;0 -->
<g id="edge11" class="edge">
<title>9&#45;&gt;0</title>
<path fill="none" stroke="grey" stroke-width="2" d="M335.09,-287.58C329.44,-277.57 323.09,-264.54 320,-252 302.05,-179.25 311.64,-89.8 318.32,-45.9"/>
<polygon fill="grey" stroke="grey" stroke-width="2" points="321.78,-46.43 319.9,-36 314.87,-45.33 321.78,-46.43"/>
</g>
<!-- 10 -->
<g id="node11" class="node">
<title>10</title>
<path fill="none" stroke="#d85656" stroke-width="2" d="M421,-252C421,-252 341,-252 341,-252 335,-252 329,-246 329,-240 329,-240 329,-228 329,-228 329,-222 335,-216 341,-216 341,-216 421,-216 421,-216 427,-216 433,-222 433,-228 433,-228 433,-240 433,-240 433,-246 427,-252 421,-252"/>
<text text-anchor="middle" x="381" y="-231.5" font-family="sans" font-size="10.00">detected_variants</text>
</g>
<!-- 9&#45;&gt;10 -->
<g id="edge23" class="edge">
<title>9&#45;&gt;10</title>
<path fill="none" stroke="grey" stroke-width="2" d="M354.65,-287.7C358.64,-279.73 363.45,-270.1 367.87,-261.26"/>
<polygon fill="grey" stroke="grey" stroke-width="2" points="371.11,-262.61 372.45,-252.1 364.85,-259.48 371.11,-262.61"/>
</g>
<!-- 10&#45;&gt;0 -->
<g id="edge1" class="edge">
<title>10&#45;&gt;0</title>
<path fill="none" stroke="grey" stroke-width="2" d="M410.5,-215.94C422.98,-206.99 436.19,-194.79 443,-180 449.7,-165.47 448.97,-158.84 443,-144 437.99,-131.55 381.62,-75.69 347.96,-43.01"/>
<polygon fill="grey" stroke="grey" stroke-width="2" points="350.36,-40.46 340.74,-36.02 345.49,-45.49 350.36,-40.46"/>
</g>
<!-- 11 -->
<g id="node12" class="node">
<title>11</title>
<path fill="none" stroke="#567bd8" stroke-width="2" d="M422.5,-180C422.5,-180 339.5,-180 339.5,-180 333.5,-180 327.5,-174 327.5,-168 327.5,-168 327.5,-156 327.5,-156 327.5,-150 333.5,-144 339.5,-144 339.5,-144 422.5,-144 422.5,-144 428.5,-144 434.5,-150 434.5,-156 434.5,-156 434.5,-168 434.5,-168 434.5,-174 428.5,-180 422.5,-180"/>
<text text-anchor="middle" x="381" y="-159.5" font-family="sans" font-size="10.00">sample_target_list</text>
</g>
<!-- 10&#45;&gt;11 -->
<g id="edge24" class="edge">
<title>10&#45;&gt;11</title>
<path fill="none" stroke="grey" stroke-width="2" d="M381,-215.7C381,-207.98 381,-198.71 381,-190.11"/>
<polygon fill="grey" stroke="grey" stroke-width="2" points="384.5,-190.1 381,-180.1 377.5,-190.1 384.5,-190.1"/>
</g>
<!-- 11&#45;&gt;0 -->
<g id="edge12" class="edge">
<title>11&#45;&gt;0</title>
<path fill="none" stroke="grey" stroke-width="2" d="M374,-143.87C364.03,-119.46 345.64,-74.43 333.88,-45.64"/>
<polygon fill="grey" stroke="grey" stroke-width="2" points="337.04,-44.12 330.02,-36.19 330.56,-46.77 337.04,-44.12"/>
</g>
<!-- 11&#45;&gt;13 -->
<g id="edge28" class="edge">
<title>11&#45;&gt;13</title>
<path fill="none" stroke="grey" stroke-width="2" d="M404.24,-143.7C416.19,-134.8 430.92,-123.82 443.85,-114.2"/>
<polygon fill="grey" stroke="grey" stroke-width="2" points="446.1,-116.88 452.03,-108.1 441.92,-111.27 446.1,-116.88"/>
</g>
<!-- 12&#45;&gt;0 -->
<g id="edge10" class="edge">
<title>12&#45;&gt;0</title>
<path fill="none" stroke="grey" stroke-width="2" d="M581.31,-75.78C576.49,-74.46 571.65,-73.17 567,-72 494.17,-53.62 408.14,-35.84 360.15,-26.27"/>
<polygon fill="grey" stroke="grey" stroke-width="2" points="360.71,-22.81 350.22,-24.3 359.34,-29.68 360.71,-22.81"/>
</g>
<!-- 13&#45;&gt;0 -->
<g id="edge5" class="edge">
<title>13&#45;&gt;0</title>
<path fill="none" stroke="grey" stroke-width="2" d="M437.82,-71.88C414.02,-60.92 383.3,-46.77 359.61,-35.86"/>
<polygon fill="grey" stroke="grey" stroke-width="2" points="360.81,-32.56 350.27,-31.56 357.88,-38.92 360.81,-32.56"/>
</g>
</g>
</svg>
