<?xml version="1.0" encoding="UTF-8" standalone="no"?>
<!DOCTYPE svg PUBLIC "-//W3C//DTD SVG 1.1//EN"
 "http://www.w3.org/Graphics/SVG/1.1/DTD/svg11.dtd">
<!-- Generated by graphviz version 2.43.0 (0)
 -->
<!-- Title: snakemake_dag Pages: 1 -->
<svg width="692pt" height="548pt"
 viewBox="0.00 0.00 691.50 548.00" xmlns="http://www.w3.org/2000/svg" xmlns:xlink="http://www.w3.org/1999/xlink">
<g id="graph0" class="graph" transform="scale(1 1) rotate(0) translate(4 544)">
<title>snakemake_dag</title>
<polygon fill="white" stroke="transparent" points="-4,4 -4,-544 687.5,-544 687.5,4 -4,4"/>
<!-- 0 -->
<g id="node1" class="node">
<title>0</title>
<path fill="none" stroke="#56d8d8" stroke-width="2" d="M285,-36C285,-36 255,-36 255,-36 249,-36 243,-30 243,-24 243,-24 243,-12 243,-12 243,-6 249,0 255,0 255,0 285,0 285,0 291,0 297,-6 297,-12 297,-12 297,-24 297,-24 297,-30 291,-36 285,-36"/>
<text text-anchor="middle" x="270" y="-15.5" font-family="sans" font-size="10.00">all</text>
</g>
<!-- 1 -->
<g id="node2" class="node">
<title>1</title>
<path fill="none" stroke="#80d856" stroke-width="2" d="M104,-540C104,-540 12,-540 12,-540 6,-540 0,-534 0,-528 0,-528 0,-516 0,-516 0,-510 6,-504 12,-504 12,-504 104,-504 104,-504 110,-504 116,-510 116,-516 116,-516 116,-528 116,-528 116,-534 110,-540 104,-540"/>
<text text-anchor="middle" x="58" y="-519.5" font-family="sans" font-size="10.00">padd_target_regions</text>
</g>
<!-- 1&#45;&gt;0 -->
<g id="edge5" class="edge">
<title>1&#45;&gt;0</title>
<path fill="none" stroke="grey" stroke-width="2" d="M48.62,-503.75C43.41,-493.59 37.16,-480.34 33,-468 20.06,-429.68 14,-419.45 14,-379 14,-379 14,-379 14,-161 14,-62.38 161.07,-31.68 232.27,-22.6"/>
<polygon fill="grey" stroke="grey" stroke-width="2" points="233.09,-26.02 242.6,-21.36 232.26,-19.07 233.09,-26.02"/>
</g>
<!-- 4 -->
<g id="node5" class="node">
<title>4</title>
<path fill="none" stroke="#d88556" stroke-width="2" d="M148,-468C148,-468 54,-468 54,-468 48,-468 42,-462 42,-456 42,-456 42,-444 42,-444 42,-438 48,-432 54,-432 54,-432 148,-432 148,-432 154,-432 160,-438 160,-444 160,-444 160,-456 160,-456 160,-462 154,-468 148,-468"/>
<text text-anchor="middle" x="101" y="-447.5" font-family="sans" font-size="10.00">snv_indels_bed_split</text>
</g>
<!-- 1&#45;&gt;4 -->
<g id="edge13" class="edge">
<title>1&#45;&gt;4</title>
<path fill="none" stroke="grey" stroke-width="2" d="M68.63,-503.7C73.63,-495.56 79.69,-485.69 85.21,-476.7"/>
<polygon fill="grey" stroke="grey" stroke-width="2" points="88.24,-478.46 90.49,-468.1 82.28,-474.79 88.24,-478.46"/>
</g>
<!-- 2 -->
<g id="node3" class="node">
<title>2</title>
<path fill="none" stroke="#56d882" stroke-width="2" d="M512,-396C512,-396 348,-396 348,-396 342,-396 336,-390 336,-384 336,-384 336,-372 336,-372 336,-366 342,-360 348,-360 348,-360 512,-360 512,-360 518,-360 524,-366 524,-372 524,-372 524,-384 524,-384 524,-390 518,-396 512,-396"/>
<text text-anchor="middle" x="430" y="-375.5" font-family="sans" font-size="10.00">alignment_samtools_extract_reads</text>
</g>
<!-- 2&#45;&gt;0 -->
<g id="edge7" class="edge">
<title>2&#45;&gt;0</title>
<path fill="none" stroke="grey" stroke-width="2" d="M430.2,-359.95C430.49,-333.29 431,-280.12 431,-235 431,-235 431,-235 431,-161 431,-117.45 421.04,-102.55 390,-72 367.07,-49.43 332.91,-35.63 306.9,-27.8"/>
<polygon fill="grey" stroke="grey" stroke-width="2" points="307.59,-24.36 297.01,-24.99 305.67,-31.09 307.59,-24.36"/>
</g>
<!-- 5 -->
<g id="node6" class="node">
<title>5</title>
<path fill="none" stroke="#d6d856" stroke-width="2" d="M474,-540C474,-540 310,-540 310,-540 304,-540 298,-534 298,-528 298,-528 298,-516 298,-516 298,-510 304,-504 310,-504 310,-504 474,-504 474,-504 480,-504 486,-510 486,-516 486,-516 486,-528 486,-528 486,-534 480,-540 474,-540"/>
<text text-anchor="middle" x="392" y="-519.5" font-family="sans" font-size="10.00">alignment_picard_mark_duplicates</text>
</g>
<!-- 2&#45;&gt;5 -->
<g id="edge14" class="edge">
<title>2&#45;&gt;5</title>
<path fill="none" stroke="grey" stroke-width="2" d="M425.4,-396.19C418.89,-420.53 406.91,-465.28 399.21,-494.06"/>
<polygon fill="grey" stroke="grey" stroke-width="2" points="395.79,-493.31 396.58,-503.87 402.55,-495.12 395.79,-493.31"/>
</g>
<!-- 3 -->
<g id="node4" class="node">
<title>3</title>
<path fill="none" stroke="#afd856" stroke-width="2" d="M352.5,-468C352.5,-468 227.5,-468 227.5,-468 221.5,-468 215.5,-462 215.5,-456 215.5,-456 215.5,-444 215.5,-444 215.5,-438 221.5,-432 227.5,-432 227.5,-432 352.5,-432 352.5,-432 358.5,-432 364.5,-438 364.5,-444 364.5,-444 364.5,-456 364.5,-456 364.5,-462 358.5,-468 352.5,-468"/>
<text text-anchor="middle" x="290" y="-447.5" font-family="sans" font-size="10.00">alignment_samtools_index</text>
</g>
<!-- 3&#45;&gt;2 -->
<g id="edge11" class="edge">
<title>3&#45;&gt;2</title>
<path fill="none" stroke="grey" stroke-width="2" d="M324.25,-431.88C343.06,-422.47 366.58,-410.71 386.67,-400.67"/>
<polygon fill="grey" stroke="grey" stroke-width="2" points="388.24,-403.79 395.62,-396.19 385.11,-397.53 388.24,-403.79"/>
</g>
<!-- 6 -->
<g id="node7" class="node">
<title>6</title>
<path fill="none" stroke="#56d8a9" stroke-width="2" d="M265.5,-396C265.5,-396 140.5,-396 140.5,-396 134.5,-396 128.5,-390 128.5,-384 128.5,-384 128.5,-372 128.5,-372 128.5,-366 134.5,-360 140.5,-360 140.5,-360 265.5,-360 265.5,-360 271.5,-360 277.5,-366 277.5,-372 277.5,-372 277.5,-384 277.5,-384 277.5,-390 271.5,-396 265.5,-396"/>
<text text-anchor="middle" x="203" y="-375.5" font-family="sans" font-size="10.00">snv_indels_haplotypecaller</text>
</g>
<!-- 3&#45;&gt;6 -->
<g id="edge15" class="edge">
<title>3&#45;&gt;6</title>
<path fill="none" stroke="grey" stroke-width="2" d="M268.49,-431.7C257.54,-422.88 244.05,-412.03 232.18,-402.47"/>
<polygon fill="grey" stroke="grey" stroke-width="2" points="234.24,-399.65 224.26,-396.1 229.86,-405.1 234.24,-399.65"/>
</g>
<!-- 4&#45;&gt;0 -->
<g id="edge2" class="edge">
<title>4&#45;&gt;0</title>
<path fill="none" stroke="grey" stroke-width="2" d="M101,-431.95C101,-405.29 101,-352.11 101,-307 101,-307 101,-307 101,-161 101,-92.38 183.68,-50.28 233.38,-31.17"/>
<polygon fill="grey" stroke="grey" stroke-width="2" points="234.69,-34.42 242.85,-27.66 232.25,-27.86 234.69,-34.42"/>
</g>
<!-- 4&#45;&gt;6 -->
<g id="edge16" class="edge">
<title>4&#45;&gt;6</title>
<path fill="none" stroke="grey" stroke-width="2" d="M125.95,-431.88C139.04,-422.89 155.26,-411.76 169.44,-402.03"/>
<polygon fill="grey" stroke="grey" stroke-width="2" points="171.69,-404.73 177.95,-396.19 167.73,-398.96 171.69,-404.73"/>
</g>
<!-- 5&#45;&gt;0 -->
<g id="edge4" class="edge">
<title>5&#45;&gt;0</title>
<path fill="none" stroke="grey" stroke-width="2" d="M436.57,-503.93C483.91,-482.55 552,-441.02 552,-379 552,-379 552,-379 552,-161 552,-52.63 383.81,-26.95 307.21,-20.88"/>
<polygon fill="grey" stroke="grey" stroke-width="2" points="307.27,-17.37 297.04,-20.14 306.76,-24.35 307.27,-17.37"/>
</g>
<!-- 5&#45;&gt;3 -->
<g id="edge12" class="edge">
<title>5&#45;&gt;3</title>
<path fill="none" stroke="grey" stroke-width="2" d="M367.05,-503.88C353.96,-494.89 337.74,-483.76 323.56,-474.03"/>
<polygon fill="grey" stroke="grey" stroke-width="2" points="325.27,-470.96 315.05,-468.19 321.31,-476.73 325.27,-470.96"/>
</g>
<!-- 5&#45;&gt;6 -->
<g id="edge17" class="edge">
<title>5&#45;&gt;6</title>
<path fill="none" stroke="grey" stroke-width="2" d="M297.99,-504.84C258.16,-495.93 218.12,-483.51 206,-468 192.5,-450.73 193.03,-425.3 196.2,-406.04"/>
<polygon fill="grey" stroke="grey" stroke-width="2" points="199.66,-406.55 198.15,-396.07 192.79,-405.21 199.66,-406.55"/>
</g>
<!-- 8 -->
<g id="node9" class="node">
<title>8</title>
<path fill="none" stroke="#d85656" stroke-width="2" d="M329,-252C329,-252 249,-252 249,-252 243,-252 237,-246 237,-240 237,-240 237,-228 237,-228 237,-222 243,-216 249,-216 249,-216 329,-216 329,-216 335,-216 341,-222 341,-228 341,-228 341,-240 341,-240 341,-246 335,-252 329,-252"/>
<text text-anchor="middle" x="289" y="-231.5" font-family="sans" font-size="10.00">variant_annotator</text>
</g>
<!-- 5&#45;&gt;8 -->
<g id="edge20" class="edge">
<title>5&#45;&gt;8</title>
<path fill="none" stroke="grey" stroke-width="2" d="M391.76,-503.98C390.76,-485.06 386.9,-454.24 373,-432 359.24,-409.98 340.99,-417.87 327,-396 300.46,-354.53 292.42,-296.39 290.01,-262.52"/>
<polygon fill="grey" stroke="grey" stroke-width="2" points="293.5,-262.19 289.41,-252.42 286.51,-262.61 293.5,-262.19"/>
</g>
<!-- 6&#45;&gt;0 -->
<g id="edge8" class="edge">
<title>6&#45;&gt;0</title>
<path fill="none" stroke="grey" stroke-width="2" d="M190.89,-359.57C184.44,-349.56 176.85,-336.52 172,-324 157.38,-286.29 153,-275.45 153,-235 153,-235 153,-235 153,-161 153,-109.17 200,-66 234.42,-41.33"/>
<polygon fill="grey" stroke="grey" stroke-width="2" points="236.65,-44.04 242.86,-35.46 232.65,-38.3 236.65,-44.04"/>
</g>
<!-- 7 -->
<g id="node8" class="node">
<title>7</title>
<path fill="none" stroke="#56a9d8" stroke-width="2" d="M267,-324C267,-324 193,-324 193,-324 187,-324 181,-318 181,-312 181,-312 181,-300 181,-300 181,-294 187,-288 193,-288 193,-288 267,-288 267,-288 273,-288 279,-294 279,-300 279,-300 279,-312 279,-312 279,-318 273,-324 267,-324"/>
<text text-anchor="middle" x="230" y="-303.5" font-family="sans" font-size="10.00">variant_filtration</text>
</g>
<!-- 6&#45;&gt;7 -->
<g id="edge18" class="edge">
<title>6&#45;&gt;7</title>
<path fill="none" stroke="grey" stroke-width="2" d="M209.67,-359.7C212.71,-351.81 216.38,-342.3 219.76,-333.55"/>
<polygon fill="grey" stroke="grey" stroke-width="2" points="223.07,-334.69 223.4,-324.1 216.54,-332.17 223.07,-334.69"/>
</g>
<!-- 7&#45;&gt;0 -->
<g id="edge9" class="edge">
<title>7&#45;&gt;0</title>
<path fill="none" stroke="grey" stroke-width="2" d="M227.52,-287.81C222.48,-248.47 213.53,-149.38 238,-72 241,-62.52 246.01,-52.97 251.19,-44.63"/>
<polygon fill="grey" stroke="grey" stroke-width="2" points="254.21,-46.41 256.78,-36.13 248.36,-42.56 254.21,-46.41"/>
</g>
<!-- 7&#45;&gt;8 -->
<g id="edge19" class="edge">
<title>7&#45;&gt;8</title>
<path fill="none" stroke="grey" stroke-width="2" d="M244.58,-287.7C251.66,-279.3 260.28,-269.07 268.05,-259.86"/>
<polygon fill="grey" stroke="grey" stroke-width="2" points="270.81,-262.01 274.58,-252.1 265.46,-257.49 270.81,-262.01"/>
</g>
<!-- 8&#45;&gt;0 -->
<g id="edge1" class="edge">
<title>8&#45;&gt;0</title>
<path fill="none" stroke="grey" stroke-width="2" d="M272.26,-215.94C263.9,-206.25 254.6,-193.4 250,-180 234.39,-134.6 238.62,-119.08 248,-72 249.79,-63.01 253.14,-53.64 256.69,-45.32"/>
<polygon fill="grey" stroke="grey" stroke-width="2" points="259.92,-46.67 260.87,-36.12 253.54,-43.77 259.92,-46.67"/>
</g>
<!-- 9 -->
<g id="node10" class="node">
<title>9</title>
<path fill="none" stroke="#d8ac56" stroke-width="2" d="M351,-180C351,-180 271,-180 271,-180 265,-180 259,-174 259,-168 259,-168 259,-156 259,-156 259,-150 265,-144 271,-144 271,-144 351,-144 351,-144 357,-144 363,-150 363,-156 363,-156 363,-168 363,-168 363,-174 357,-180 351,-180"/>
<text text-anchor="middle" x="311" y="-159.5" font-family="sans" font-size="10.00">detected_variants</text>
</g>
<!-- 8&#45;&gt;9 -->
<g id="edge21" class="edge">
<title>8&#45;&gt;9</title>
<path fill="none" stroke="grey" stroke-width="2" d="M294.44,-215.7C296.89,-207.9 299.84,-198.51 302.57,-189.83"/>
<polygon fill="grey" stroke="grey" stroke-width="2" points="305.96,-190.69 305.62,-180.1 299.29,-188.59 305.96,-190.69"/>
</g>
<!-- 9&#45;&gt;0 -->
<g id="edge3" class="edge">
<title>9&#45;&gt;0</title>
<path fill="none" stroke="grey" stroke-width="2" d="M340.5,-143.94C352.98,-134.99 366.19,-122.79 373,-108 379.7,-93.47 381.33,-85.66 373,-72 358.7,-48.57 330.37,-35.05 307.03,-27.55"/>
<polygon fill="grey" stroke="grey" stroke-width="2" points="307.97,-24.17 297.39,-24.68 305.98,-30.88 307.97,-24.17"/>
</g>
<!-- 10 -->
<g id="node11" class="node">
<title>10</title>
<path fill="none" stroke="#59d856" stroke-width="2" d="M352.5,-108C352.5,-108 269.5,-108 269.5,-108 263.5,-108 257.5,-102 257.5,-96 257.5,-96 257.5,-84 257.5,-84 257.5,-78 263.5,-72 269.5,-72 269.5,-72 352.5,-72 352.5,-72 358.5,-72 364.5,-78 364.5,-84 364.5,-84 364.5,-96 364.5,-96 364.5,-102 358.5,-108 352.5,-108"/>
<text text-anchor="middle" x="311" y="-87.5" font-family="sans" font-size="10.00">sample_target_list</text>
</g>
<!-- 9&#45;&gt;10 -->
<g id="edge22" class="edge">
<title>9&#45;&gt;10</title>
<path fill="none" stroke="grey" stroke-width="2" d="M311,-143.7C311,-135.98 311,-126.71 311,-118.11"/>
<polygon fill="grey" stroke="grey" stroke-width="2" points="314.5,-118.1 311,-108.1 307.5,-118.1 314.5,-118.1"/>
</g>
<!-- 10&#45;&gt;0 -->
<g id="edge6" class="edge">
<title>10&#45;&gt;0</title>
<path fill="none" stroke="grey" stroke-width="2" d="M300.87,-71.7C296.15,-63.64 290.44,-53.89 285.22,-44.98"/>
<polygon fill="grey" stroke="grey" stroke-width="2" points="288.09,-42.96 280.02,-36.1 282.05,-46.5 288.09,-42.96"/>
</g>
<!-- 11 -->
<g id="node12" class="node">
<title>11</title>
<path fill="none" stroke="#5682d8" stroke-width="2" d="M671.5,-108C671.5,-108 592.5,-108 592.5,-108 586.5,-108 580.5,-102 580.5,-96 580.5,-96 580.5,-84 580.5,-84 580.5,-78 586.5,-72 592.5,-72 592.5,-72 671.5,-72 671.5,-72 677.5,-72 683.5,-78 683.5,-84 683.5,-84 683.5,-96 683.5,-96 683.5,-102 677.5,-108 671.5,-108"/>
<text text-anchor="middle" x="632" y="-87.5" font-family="sans" font-size="10.00">get_padded_baits</text>
</g>
<!-- 11&#45;&gt;0 -->
<g id="edge10" class="edge">
<title>11&#45;&gt;0</title>
<path fill="none" stroke="grey" stroke-width="2" d="M580.21,-75.27C575.41,-74.12 570.62,-73.01 566,-72 473.51,-51.84 363.55,-33.65 307.27,-24.75"/>
<polygon fill="grey" stroke="grey" stroke-width="2" points="307.49,-21.25 297.07,-23.15 306.41,-28.16 307.49,-21.25"/>
</g>
</g>
</svg>
