<?xml version="1.0" encoding="UTF-8" standalone="no"?>
<!DOCTYPE svg PUBLIC "-//W3C//DTD SVG 1.1//EN"
 "http://www.w3.org/Graphics/SVG/1.1/DTD/svg11.dtd">
<!-- Generated by graphviz version 2.43.0 (0)
 -->
<!-- Title: snakemake_dag Pages: 1 -->
<svg width="875pt" height="692pt"
 viewBox="0.00 0.00 874.50 692.00" xmlns="http://www.w3.org/2000/svg" xmlns:xlink="http://www.w3.org/1999/xlink">
<g id="graph0" class="graph" transform="scale(1 1) rotate(0) translate(4 688)">
<title>snakemake_dag</title>
<polygon fill="white" stroke="transparent" points="-4,4 -4,-688 870.5,-688 870.5,4 -4,4"/>
<!-- 0 -->
<g id="node1" class="node">
<title>0</title>
<path fill="none" stroke="#56d863" stroke-width="2" d="M445.5,-36C445.5,-36 415.5,-36 415.5,-36 409.5,-36 403.5,-30 403.5,-24 403.5,-24 403.5,-12 403.5,-12 403.5,-6 409.5,0 415.5,0 415.5,0 445.5,0 445.5,0 451.5,0 457.5,-6 457.5,-12 457.5,-12 457.5,-24 457.5,-24 457.5,-30 451.5,-36 445.5,-36"/>
<text text-anchor="middle" x="430.5" y="-15.5" font-family="sans" font-size="10.00">all</text>
</g>
<!-- 1 -->
<g id="node2" class="node">
<title>1</title>
<path fill="none" stroke="#d8b456" stroke-width="2" d="M85,-684C85,-684 12,-684 12,-684 6,-684 0,-678 0,-672 0,-672 0,-660 0,-660 0,-654 6,-648 12,-648 12,-648 85,-648 85,-648 91,-648 97,-654 97,-660 97,-660 97,-672 97,-672 97,-678 91,-684 85,-684"/>
<text text-anchor="middle" x="48.5" y="-663.5" font-family="sans" font-size="10.00">get_padded_bed</text>
</g>
<!-- 1&#45;&gt;0 -->
<g id="edge6" class="edge">
<title>1&#45;&gt;0</title>
<path fill="none" stroke="grey" stroke-width="2" d="M39.12,-647.75C33.91,-637.59 27.66,-624.34 23.5,-612 10.56,-573.68 4.5,-563.45 4.5,-523 4.5,-523 4.5,-523 4.5,-161 4.5,-110.68 30.98,-97.27 74.5,-72 128.22,-40.81 313.23,-26.1 393.2,-21.08"/>
<polygon fill="grey" stroke="grey" stroke-width="2" points="393.54,-24.57 403.31,-20.47 393.12,-17.58 393.54,-24.57"/>
</g>
<!-- 5 -->
<g id="node6" class="node">
<title>5</title>
<path fill="none" stroke="#56d8a2" stroke-width="2" d="M138.5,-612C138.5,-612 44.5,-612 44.5,-612 38.5,-612 32.5,-606 32.5,-600 32.5,-600 32.5,-588 32.5,-588 32.5,-582 38.5,-576 44.5,-576 44.5,-576 138.5,-576 138.5,-576 144.5,-576 150.5,-582 150.5,-588 150.5,-588 150.5,-600 150.5,-600 150.5,-606 144.5,-612 138.5,-612"/>
<text text-anchor="middle" x="91.5" y="-591.5" font-family="sans" font-size="10.00">snv_indels_bed_split</text>
</g>
<!-- 1&#45;&gt;5 -->
<g id="edge18" class="edge">
<title>1&#45;&gt;5</title>
<path fill="none" stroke="grey" stroke-width="2" d="M59.13,-647.7C64.13,-639.56 70.19,-629.69 75.71,-620.7"/>
<polygon fill="grey" stroke="grey" stroke-width="2" points="78.74,-622.46 80.99,-612.1 72.78,-618.79 78.74,-622.46"/>
</g>
<!-- 2 -->
<g id="node3" class="node">
<title>2</title>
<path fill="none" stroke="#bed856" stroke-width="2" d="M383,-180C383,-180 304,-180 304,-180 298,-180 292,-174 292,-168 292,-168 292,-156 292,-156 292,-150 298,-144 304,-144 304,-144 383,-144 383,-144 389,-144 395,-150 395,-156 395,-156 395,-168 395,-168 395,-174 389,-180 383,-180"/>
<text text-anchor="middle" x="343.5" y="-159.5" font-family="sans" font-size="10.00">get_padded_baits</text>
</g>
<!-- 2&#45;&gt;0 -->
<g id="edge7" class="edge">
<title>2&#45;&gt;0</title>
<path fill="none" stroke="grey" stroke-width="2" d="M340.13,-143.97C337.32,-125.04 335.59,-94.21 348.5,-72 358.71,-54.44 377.32,-41.71 394.24,-33.13"/>
<polygon fill="grey" stroke="grey" stroke-width="2" points="395.86,-36.24 403.4,-28.79 392.86,-29.91 395.86,-36.24"/>
</g>
<!-- 12 -->
<g id="node13" class="node">
<title>12</title>
<path fill="none" stroke="#68d856" stroke-width="2" d="M251,-108C251,-108 186,-108 186,-108 180,-108 174,-102 174,-96 174,-96 174,-84 174,-84 174,-78 180,-72 186,-72 186,-72 251,-72 251,-72 257,-72 263,-78 263,-84 263,-84 263,-96 263,-96 263,-102 257,-108 251,-108"/>
<text text-anchor="middle" x="218.5" y="-87.5" font-family="sans" font-size="10.00">depth_of_baits</text>
</g>
<!-- 2&#45;&gt;12 -->
<g id="edge28" class="edge">
<title>2&#45;&gt;12</title>
<path fill="none" stroke="grey" stroke-width="2" d="M312.92,-143.88C296.43,-134.64 275.88,-123.13 258.16,-113.21"/>
<polygon fill="grey" stroke="grey" stroke-width="2" points="259.63,-110.02 249.2,-108.19 256.21,-116.13 259.63,-110.02"/>
</g>
<!-- 3 -->
<g id="node4" class="node">
<title>3</title>
<path fill="none" stroke="#d85656" stroke-width="2" d="M826.5,-540C826.5,-540 662.5,-540 662.5,-540 656.5,-540 650.5,-534 650.5,-528 650.5,-528 650.5,-516 650.5,-516 650.5,-510 656.5,-504 662.5,-504 662.5,-504 826.5,-504 826.5,-504 832.5,-504 838.5,-510 838.5,-516 838.5,-516 838.5,-528 838.5,-528 838.5,-534 832.5,-540 826.5,-540"/>
<text text-anchor="middle" x="744.5" y="-519.5" font-family="sans" font-size="10.00">alignment_samtools_extract_reads</text>
</g>
<!-- 3&#45;&gt;0 -->
<g id="edge1" class="edge">
<title>3&#45;&gt;0</title>
<path fill="none" stroke="grey" stroke-width="2" d="M757.44,-503.66C775.34,-477.88 805.5,-427.3 805.5,-379 805.5,-379 805.5,-379 805.5,-161 805.5,-120.46 815.19,-99.6 785.5,-72 739.97,-29.67 549.73,-21.13 468.04,-19.42"/>
<polygon fill="grey" stroke="grey" stroke-width="2" points="467.78,-15.91 457.72,-19.23 467.65,-22.91 467.78,-15.91"/>
</g>
<!-- 6 -->
<g id="node7" class="node">
<title>6</title>
<path fill="none" stroke="#d87556" stroke-width="2" d="M525.5,-684C525.5,-684 361.5,-684 361.5,-684 355.5,-684 349.5,-678 349.5,-672 349.5,-672 349.5,-660 349.5,-660 349.5,-654 355.5,-648 361.5,-648 361.5,-648 525.5,-648 525.5,-648 531.5,-648 537.5,-654 537.5,-660 537.5,-660 537.5,-672 537.5,-672 537.5,-678 531.5,-684 525.5,-684"/>
<text text-anchor="middle" x="443.5" y="-663.5" font-family="sans" font-size="10.00">alignment_picard_mark_duplicates</text>
</g>
<!-- 3&#45;&gt;6 -->
<g id="edge19" class="edge">
<title>3&#45;&gt;6</title>
<path fill="none" stroke="grey" stroke-width="2" d="M728.19,-540.3C708.34,-560.36 672.95,-593.09 636.5,-612 608.53,-626.51 576.16,-637.39 546.01,-645.4"/>
<polygon fill="grey" stroke="grey" stroke-width="2" points="545.12,-642.01 536.31,-647.89 546.87,-648.79 545.12,-642.01"/>
</g>
<!-- 4 -->
<g id="node5" class="node">
<title>4</title>
<path fill="none" stroke="#d8d356" stroke-width="2" d="M343,-612C343,-612 218,-612 218,-612 212,-612 206,-606 206,-600 206,-600 206,-588 206,-588 206,-582 212,-576 218,-576 218,-576 343,-576 343,-576 349,-576 355,-582 355,-588 355,-588 355,-600 355,-600 355,-606 349,-612 343,-612"/>
<text text-anchor="middle" x="280.5" y="-591.5" font-family="sans" font-size="10.00">alignment_samtools_index</text>
</g>
<!-- 4&#45;&gt;3 -->
<g id="edge16" class="edge">
<title>4&#45;&gt;3</title>
<path fill="none" stroke="grey" stroke-width="2" d="M355.05,-581.75C432.3,-570.1 553.65,-551.79 640.36,-538.71"/>
<polygon fill="grey" stroke="grey" stroke-width="2" points="641.13,-542.14 650.49,-537.18 640.08,-535.21 641.13,-542.14"/>
</g>
<!-- 7 -->
<g id="node8" class="node">
<title>7</title>
<path fill="none" stroke="#56d8c1" stroke-width="2" d="M241,-540C241,-540 116,-540 116,-540 110,-540 104,-534 104,-528 104,-528 104,-516 104,-516 104,-510 110,-504 116,-504 116,-504 241,-504 241,-504 247,-504 253,-510 253,-516 253,-516 253,-528 253,-528 253,-534 247,-540 241,-540"/>
<text text-anchor="middle" x="178.5" y="-519.5" font-family="sans" font-size="10.00">snv_indels_haplotypecaller</text>
</g>
<!-- 4&#45;&gt;7 -->
<g id="edge20" class="edge">
<title>4&#45;&gt;7</title>
<path fill="none" stroke="grey" stroke-width="2" d="M255.55,-575.88C242.46,-566.89 226.24,-555.76 212.06,-546.03"/>
<polygon fill="grey" stroke="grey" stroke-width="2" points="213.77,-542.96 203.55,-540.19 209.81,-548.73 213.77,-542.96"/>
</g>
<!-- 5&#45;&gt;0 -->
<g id="edge15" class="edge">
<title>5&#45;&gt;0</title>
<path fill="none" stroke="grey" stroke-width="2" d="M87.05,-575.65C80.62,-549.02 69.5,-496.4 69.5,-451 69.5,-451 69.5,-451 69.5,-161 69.5,-117.63 75.13,-98.45 109.5,-72 153.33,-38.26 318,-25.12 392.94,-20.81"/>
<polygon fill="grey" stroke="grey" stroke-width="2" points="393.53,-24.29 403.32,-20.24 393.15,-17.3 393.53,-24.29"/>
</g>
<!-- 5&#45;&gt;7 -->
<g id="edge22" class="edge">
<title>5&#45;&gt;7</title>
<path fill="none" stroke="grey" stroke-width="2" d="M113.01,-575.7C123.96,-566.88 137.45,-556.03 149.32,-546.47"/>
<polygon fill="grey" stroke="grey" stroke-width="2" points="151.64,-549.1 157.24,-540.1 147.26,-543.65 151.64,-549.1"/>
</g>
<!-- 6&#45;&gt;0 -->
<g id="edge4" class="edge">
<title>6&#45;&gt;0</title>
<path fill="none" stroke="grey" stroke-width="2" d="M537.64,-652.65C662.28,-633.61 866.5,-591.9 866.5,-523 866.5,-523 866.5,-523 866.5,-161 866.5,-114.27 849.75,-97.37 810.5,-72 754.31,-35.67 552.27,-23.72 467.92,-20.26"/>
<polygon fill="grey" stroke="grey" stroke-width="2" points="467.89,-16.76 457.76,-19.86 467.61,-23.75 467.89,-16.76"/>
</g>
<!-- 6&#45;&gt;4 -->
<g id="edge17" class="edge">
<title>6&#45;&gt;4</title>
<path fill="none" stroke="grey" stroke-width="2" d="M403.63,-647.88C381.34,-638.31 353.38,-626.3 329.74,-616.15"/>
<polygon fill="grey" stroke="grey" stroke-width="2" points="330.81,-612.8 320.24,-612.07 328.05,-619.23 330.81,-612.8"/>
</g>
<!-- 6&#45;&gt;7 -->
<g id="edge21" class="edge">
<title>6&#45;&gt;7</title>
<path fill="none" stroke="grey" stroke-width="2" d="M349.31,-655.49C288.9,-647.44 217.93,-633.68 196.5,-612 180.7,-596.01 176.92,-570.22 176.67,-550.51"/>
<polygon fill="grey" stroke="grey" stroke-width="2" points="180.17,-550.34 176.84,-540.28 173.17,-550.23 180.17,-550.34"/>
</g>
<!-- 9 -->
<g id="node10" class="node">
<title>9</title>
<path fill="none" stroke="#56b1d8" stroke-width="2" d="M483.5,-396C483.5,-396 403.5,-396 403.5,-396 397.5,-396 391.5,-390 391.5,-384 391.5,-384 391.5,-372 391.5,-372 391.5,-366 397.5,-360 403.5,-360 403.5,-360 483.5,-360 483.5,-360 489.5,-360 495.5,-366 495.5,-372 495.5,-372 495.5,-384 495.5,-384 495.5,-390 489.5,-396 483.5,-396"/>
<text text-anchor="middle" x="443.5" y="-375.5" font-family="sans" font-size="10.00">variant_annotator</text>
</g>
<!-- 6&#45;&gt;9 -->
<g id="edge24" class="edge">
<title>6&#45;&gt;9</title>
<path fill="none" stroke="grey" stroke-width="2" d="M443.5,-647.97C443.5,-600.29 443.5,-465.18 443.5,-406.63"/>
<polygon fill="grey" stroke="grey" stroke-width="2" points="447,-406.31 443.5,-396.31 440,-406.31 447,-406.31"/>
</g>
<!-- 6&#45;&gt;12 -->
<g id="edge29" class="edge">
<title>6&#45;&gt;12</title>
<path fill="none" stroke="grey" stroke-width="2" d="M436.77,-647.82C404.74,-566.13 267.8,-216.77 228.86,-117.44"/>
<polygon fill="grey" stroke="grey" stroke-width="2" points="232.12,-116.14 225.21,-108.11 225.6,-118.7 232.12,-116.14"/>
</g>
<!-- 13 -->
<g id="node14" class="node">
<title>13</title>
<path fill="none" stroke="#5673d8" stroke-width="2" d="M723,-180C723,-180 648,-180 648,-180 642,-180 636,-174 636,-168 636,-168 636,-156 636,-156 636,-150 642,-144 648,-144 648,-144 723,-144 723,-144 729,-144 735,-150 735,-156 735,-156 735,-168 735,-168 735,-174 729,-180 723,-180"/>
<text text-anchor="middle" x="685.5" y="-159.5" font-family="sans" font-size="10.00">depth_of_targets</text>
</g>
<!-- 6&#45;&gt;13 -->
<g id="edge31" class="edge">
<title>6&#45;&gt;13</title>
<path fill="none" stroke="grey" stroke-width="2" d="M451.83,-647.72C487.72,-573.27 629.28,-279.62 672.74,-189.47"/>
<polygon fill="grey" stroke="grey" stroke-width="2" points="676.02,-190.74 677.2,-180.21 669.71,-187.7 676.02,-190.74"/>
</g>
<!-- 7&#45;&gt;0 -->
<g id="edge11" class="edge">
<title>7&#45;&gt;0</title>
<path fill="none" stroke="grey" stroke-width="2" d="M156.53,-503.79C145.9,-494.33 133.88,-481.74 126.5,-468 107.35,-432.37 107.5,-419.45 107.5,-379 107.5,-379 107.5,-379 107.5,-161 107.5,-118.66 108.94,-99.07 141.5,-72 179.27,-40.59 323.81,-26.44 393.07,-21.36"/>
<polygon fill="grey" stroke="grey" stroke-width="2" points="393.39,-24.85 403.11,-20.65 392.89,-17.87 393.39,-24.85"/>
</g>
<!-- 8 -->
<g id="node9" class="node">
<title>8</title>
<path fill="none" stroke="#d89556" stroke-width="2" d="M221.5,-468C221.5,-468 147.5,-468 147.5,-468 141.5,-468 135.5,-462 135.5,-456 135.5,-456 135.5,-444 135.5,-444 135.5,-438 141.5,-432 147.5,-432 147.5,-432 221.5,-432 221.5,-432 227.5,-432 233.5,-438 233.5,-444 233.5,-444 233.5,-456 233.5,-456 233.5,-462 227.5,-468 221.5,-468"/>
<text text-anchor="middle" x="184.5" y="-447.5" font-family="sans" font-size="10.00">variant_filtration</text>
</g>
<!-- 7&#45;&gt;8 -->
<g id="edge23" class="edge">
<title>7&#45;&gt;8</title>
<path fill="none" stroke="grey" stroke-width="2" d="M179.98,-503.7C180.64,-495.98 181.44,-486.71 182.18,-478.11"/>
<polygon fill="grey" stroke="grey" stroke-width="2" points="185.67,-478.37 183.03,-468.1 178.69,-477.77 185.67,-478.37"/>
</g>
<!-- 8&#45;&gt;0 -->
<g id="edge5" class="edge">
<title>8&#45;&gt;0</title>
<path fill="none" stroke="grey" stroke-width="2" d="M176.61,-431.93C165.21,-405.67 145.5,-353.53 145.5,-307 145.5,-307 145.5,-307 145.5,-161 145.5,-120.55 135.71,-100.4 164.5,-72 196.33,-40.6 327.34,-26.62 392.85,-21.49"/>
<polygon fill="grey" stroke="grey" stroke-width="2" points="393.44,-24.96 403.15,-20.72 392.92,-17.98 393.44,-24.96"/>
</g>
<!-- 8&#45;&gt;9 -->
<g id="edge25" class="edge">
<title>8&#45;&gt;9</title>
<path fill="none" stroke="grey" stroke-width="2" d="M233.52,-435.75C275.47,-424.41 336.07,-408.03 381.4,-395.78"/>
<polygon fill="grey" stroke="grey" stroke-width="2" points="382.38,-399.14 391.12,-393.16 380.56,-392.39 382.38,-399.14"/>
</g>
<!-- 9&#45;&gt;0 -->
<g id="edge13" class="edge">
<title>9&#45;&gt;0</title>
<path fill="none" stroke="grey" stroke-width="2" d="M490.06,-359.87C538.54,-338.67 607.5,-297.52 607.5,-235 607.5,-235 607.5,-235 607.5,-161 607.5,-114.96 589.15,-102.32 554.5,-72 529.42,-50.06 493.91,-36.13 467.31,-28.09"/>
<polygon fill="grey" stroke="grey" stroke-width="2" points="468.17,-24.7 457.59,-25.29 466.23,-31.42 468.17,-24.7"/>
</g>
<!-- 10 -->
<g id="node11" class="node">
<title>10</title>
<path fill="none" stroke="#56d0d8" stroke-width="2" d="M483.5,-324C483.5,-324 403.5,-324 403.5,-324 397.5,-324 391.5,-318 391.5,-312 391.5,-312 391.5,-300 391.5,-300 391.5,-294 397.5,-288 403.5,-288 403.5,-288 483.5,-288 483.5,-288 489.5,-288 495.5,-294 495.5,-300 495.5,-300 495.5,-312 495.5,-312 495.5,-318 489.5,-324 483.5,-324"/>
<text text-anchor="middle" x="443.5" y="-303.5" font-family="sans" font-size="10.00">detected_variants</text>
</g>
<!-- 9&#45;&gt;10 -->
<g id="edge26" class="edge">
<title>9&#45;&gt;10</title>
<path fill="none" stroke="grey" stroke-width="2" d="M443.5,-359.7C443.5,-351.98 443.5,-342.71 443.5,-334.11"/>
<polygon fill="grey" stroke="grey" stroke-width="2" points="447,-334.1 443.5,-324.1 440,-334.1 447,-334.1"/>
</g>
<!-- 10&#45;&gt;0 -->
<g id="edge12" class="edge">
<title>10&#45;&gt;0</title>
<path fill="none" stroke="grey" stroke-width="2" d="M404.88,-287.82C365.84,-268.09 307.79,-231.65 282.5,-180 251.87,-117.43 341.17,-61.85 394.23,-35.38"/>
<polygon fill="grey" stroke="grey" stroke-width="2" points="395.9,-38.45 403.36,-30.93 392.83,-32.16 395.9,-38.45"/>
</g>
<!-- 11 -->
<g id="node12" class="node">
<title>11</title>
<path fill="none" stroke="#9fd856" stroke-width="2" d="M567,-252C567,-252 484,-252 484,-252 478,-252 472,-246 472,-240 472,-240 472,-228 472,-228 472,-222 478,-216 484,-216 484,-216 567,-216 567,-216 573,-216 579,-222 579,-228 579,-228 579,-240 579,-240 579,-246 573,-252 567,-252"/>
<text text-anchor="middle" x="525.5" y="-231.5" font-family="sans" font-size="10.00">sample_target_list</text>
</g>
<!-- 10&#45;&gt;11 -->
<g id="edge27" class="edge">
<title>10&#45;&gt;11</title>
<path fill="none" stroke="grey" stroke-width="2" d="M463.77,-287.7C474,-278.97 486.56,-268.24 497.68,-258.75"/>
<polygon fill="grey" stroke="grey" stroke-width="2" points="500.13,-261.26 505.46,-252.1 495.59,-255.94 500.13,-261.26"/>
</g>
<!-- 14 -->
<g id="node15" class="node">
<title>14</title>
<path fill="none" stroke="#56d882" stroke-width="2" d="M529.5,-180C529.5,-180 425.5,-180 425.5,-180 419.5,-180 413.5,-174 413.5,-168 413.5,-168 413.5,-156 413.5,-156 413.5,-150 419.5,-144 425.5,-144 425.5,-144 529.5,-144 529.5,-144 535.5,-144 541.5,-150 541.5,-156 541.5,-156 541.5,-168 541.5,-168 541.5,-174 535.5,-180 529.5,-180"/>
<text text-anchor="middle" x="477.5" y="-159.5" font-family="sans" font-size="10.00">get_clinical_guidelines</text>
</g>
<!-- 10&#45;&gt;14 -->
<g id="edge32" class="edge">
<title>10&#45;&gt;14</title>
<path fill="none" stroke="grey" stroke-width="2" d="M446.81,-287.86C450.37,-269.88 456.34,-240.84 462.5,-216 464.63,-207.42 467.17,-198.13 469.56,-189.76"/>
<polygon fill="grey" stroke="grey" stroke-width="2" points="472.93,-190.69 472.35,-180.11 466.21,-188.74 472.93,-190.69"/>
</g>
<!-- 11&#45;&gt;0 -->
<g id="edge14" class="edge">
<title>11&#45;&gt;0</title>
<path fill="none" stroke="grey" stroke-width="2" d="M536.13,-215.56C541.6,-205.54 547.7,-192.51 550.5,-180 561.19,-132.28 560.31,-109.98 529.5,-72 513.6,-52.39 488.45,-39.06 467.48,-30.67"/>
<polygon fill="grey" stroke="grey" stroke-width="2" points="468.48,-27.31 457.89,-27.05 466.01,-33.86 468.48,-27.31"/>
</g>
<!-- 11&#45;&gt;13 -->
<g id="edge30" class="edge">
<title>11&#45;&gt;13</title>
<path fill="none" stroke="grey" stroke-width="2" d="M564.64,-215.88C586.51,-206.31 613.96,-194.3 637.16,-184.15"/>
<polygon fill="grey" stroke="grey" stroke-width="2" points="638.73,-187.28 646.49,-180.07 635.92,-180.87 638.73,-187.28"/>
</g>
<!-- 12&#45;&gt;0 -->
<g id="edge9" class="edge">
<title>12&#45;&gt;0</title>
<path fill="none" stroke="grey" stroke-width="2" d="M263.2,-74.24C301.95,-61.44 357.36,-43.15 393.63,-31.17"/>
<polygon fill="grey" stroke="grey" stroke-width="2" points="394.92,-34.43 403.32,-27.97 392.73,-27.79 394.92,-34.43"/>
</g>
<!-- 13&#45;&gt;0 -->
<g id="edge2" class="edge">
<title>13&#45;&gt;0</title>
<path fill="none" stroke="grey" stroke-width="2" d="M677.67,-143.88C667.55,-123.68 648.04,-90.51 621.5,-72 574.76,-39.4 508.58,-26.8 467.66,-21.96"/>
<polygon fill="grey" stroke="grey" stroke-width="2" points="467.89,-18.47 457.57,-20.87 467.14,-25.43 467.89,-18.47"/>
</g>
<!-- 16 -->
<g id="node17" class="node">
<title>16</title>
<path fill="none" stroke="#88d856" stroke-width="2" d="M765,-108C765,-108 686,-108 686,-108 680,-108 674,-102 674,-96 674,-96 674,-84 674,-84 674,-78 680,-72 686,-72 686,-72 765,-72 765,-72 771,-72 777,-78 777,-84 777,-84 777,-96 777,-96 777,-102 771,-108 765,-108"/>
<text text-anchor="middle" x="725.5" y="-87.5" font-family="sans" font-size="10.00">append_id_to_gdf</text>
</g>
<!-- 13&#45;&gt;16 -->
<g id="edge34" class="edge">
<title>13&#45;&gt;16</title>
<path fill="none" stroke="grey" stroke-width="2" d="M695.39,-143.7C699.99,-135.64 705.56,-125.89 710.65,-116.98"/>
<polygon fill="grey" stroke="grey" stroke-width="2" points="713.8,-118.52 715.73,-108.1 707.73,-115.05 713.8,-118.52"/>
</g>
<!-- 14&#45;&gt;0 -->
<g id="edge10" class="edge">
<title>14&#45;&gt;0</title>
<path fill="none" stroke="grey" stroke-width="2" d="M493.12,-143.71C507.71,-125.35 525.44,-95.77 512.5,-72 502.72,-54.04 483.95,-41.23 466.83,-32.72"/>
<polygon fill="grey" stroke="grey" stroke-width="2" points="468.1,-29.45 457.55,-28.42 465.15,-35.8 468.1,-29.45"/>
</g>
<!-- 15 -->
<g id="node16" class="node">
<title>15</title>
<path fill="none" stroke="#5692d8" stroke-width="2" d="M491.5,-108C491.5,-108 369.5,-108 369.5,-108 363.5,-108 357.5,-102 357.5,-96 357.5,-96 357.5,-84 357.5,-84 357.5,-78 363.5,-72 369.5,-72 369.5,-72 491.5,-72 491.5,-72 497.5,-72 503.5,-78 503.5,-84 503.5,-84 503.5,-96 503.5,-96 503.5,-102 497.5,-108 491.5,-108"/>
<text text-anchor="middle" x="430.5" y="-87.5" font-family="sans" font-size="10.00">get_interaction_guidelines</text>
</g>
<!-- 14&#45;&gt;15 -->
<g id="edge33" class="edge">
<title>14&#45;&gt;15</title>
<path fill="none" stroke="grey" stroke-width="2" d="M465.88,-143.7C460.36,-135.47 453.65,-125.48 447.57,-116.42"/>
<polygon fill="grey" stroke="grey" stroke-width="2" points="450.46,-114.46 441.98,-108.1 444.65,-118.36 450.46,-114.46"/>
</g>
<!-- 15&#45;&gt;0 -->
<g id="edge3" class="edge">
<title>15&#45;&gt;0</title>
<path fill="none" stroke="grey" stroke-width="2" d="M430.5,-71.7C430.5,-63.98 430.5,-54.71 430.5,-46.11"/>
<polygon fill="grey" stroke="grey" stroke-width="2" points="434,-46.1 430.5,-36.1 427,-46.1 434,-46.1"/>
</g>
<!-- 16&#45;&gt;0 -->
<g id="edge8" class="edge">
<title>16&#45;&gt;0</title>
<path fill="none" stroke="grey" stroke-width="2" d="M673.65,-75.52C668.87,-74.31 664.1,-73.12 659.5,-72 592.02,-55.5 513.02,-37.51 467.66,-27.3"/>
<polygon fill="grey" stroke="grey" stroke-width="2" points="468.22,-23.84 457.69,-25.07 466.68,-30.67 468.22,-23.84"/>
</g>
</g>
</svg>
