<?xml version="1.0" encoding="UTF-8" standalone="no"?>
<!DOCTYPE svg PUBLIC "-//W3C//DTD SVG 1.1//EN"
 "http://www.w3.org/Graphics/SVG/1.1/DTD/svg11.dtd">
<!-- Generated by graphviz version 2.43.0 (0)
 -->
<!-- Title: snakemake_dag Pages: 1 -->
<svg width="870pt" height="980pt"
 viewBox="0.00 0.00 869.50 980.00" xmlns="http://www.w3.org/2000/svg" xmlns:xlink="http://www.w3.org/1999/xlink">
<g id="graph0" class="graph" transform="scale(1 1) rotate(0) translate(4 976)">
<title>snakemake_dag</title>
<polygon fill="white" stroke="transparent" points="-4,4 -4,-976 865.5,-976 865.5,4 -4,4"/>
<!-- 0 -->
<g id="node1" class="node">
<title>0</title>
<path fill="none" stroke="#56a9d8" stroke-width="2" d="M550,-36C550,-36 520,-36 520,-36 514,-36 508,-30 508,-24 508,-24 508,-12 508,-12 508,-6 514,0 520,0 520,0 550,0 550,0 556,0 562,-6 562,-12 562,-12 562,-24 562,-24 562,-30 556,-36 550,-36"/>
<text text-anchor="middle" x="535" y="-15.5" font-family="sans" font-size="10.00">all</text>
</g>
<!-- 1 -->
<g id="node2" class="node">
<title>1</title>
<path fill="none" stroke="#afd856" stroke-width="2" d="M331.5,-972C331.5,-972 258.5,-972 258.5,-972 252.5,-972 246.5,-966 246.5,-960 246.5,-960 246.5,-948 246.5,-948 246.5,-942 252.5,-936 258.5,-936 258.5,-936 331.5,-936 331.5,-936 337.5,-936 343.5,-942 343.5,-948 343.5,-948 343.5,-960 343.5,-960 343.5,-966 337.5,-972 331.5,-972"/>
<text text-anchor="middle" x="295" y="-951.5" font-family="sans" font-size="10.00">get_padded_bed</text>
</g>
<!-- 1&#45;&gt;0 -->
<g id="edge6" class="edge">
<title>1&#45;&gt;0</title>
<path fill="none" stroke="grey" stroke-width="2" d="M246.29,-951.09C162.5,-944.9 0,-919 0,-811 0,-811 0,-811 0,-161 0,-108.7 30.76,-96.45 77,-72 149.89,-33.46 402.1,-22.62 497.79,-19.86"/>
<polygon fill="grey" stroke="grey" stroke-width="2" points="497.97,-23.36 507.87,-19.59 497.78,-16.36 497.97,-23.36"/>
</g>
<!-- 3 -->
<g id="node4" class="node">
<title>3</title>
<path fill="none" stroke="#d88d56" stroke-width="2" d="M644,-900C644,-900 550,-900 550,-900 544,-900 538,-894 538,-888 538,-888 538,-876 538,-876 538,-870 544,-864 550,-864 550,-864 644,-864 644,-864 650,-864 656,-870 656,-876 656,-876 656,-888 656,-888 656,-894 650,-900 644,-900"/>
<text text-anchor="middle" x="597" y="-879.5" font-family="sans" font-size="10.00">snv_indels_bed_split</text>
</g>
<!-- 1&#45;&gt;3 -->
<g id="edge15" class="edge">
<title>1&#45;&gt;3</title>
<path fill="none" stroke="grey" stroke-width="2" d="M343.52,-941.75C393.46,-930.18 471.72,-912.04 528.07,-898.98"/>
<polygon fill="grey" stroke="grey" stroke-width="2" points="529.02,-902.35 537.97,-896.68 527.44,-895.53 529.02,-902.35"/>
</g>
<!-- 2 -->
<g id="node3" class="node">
<title>2</title>
<path fill="none" stroke="#56d8c9" stroke-width="2" d="M841.5,-180C841.5,-180 762.5,-180 762.5,-180 756.5,-180 750.5,-174 750.5,-168 750.5,-168 750.5,-156 750.5,-156 750.5,-150 756.5,-144 762.5,-144 762.5,-144 841.5,-144 841.5,-144 847.5,-144 853.5,-150 853.5,-156 853.5,-156 853.5,-168 853.5,-168 853.5,-174 847.5,-180 841.5,-180"/>
<text text-anchor="middle" x="802" y="-159.5" font-family="sans" font-size="10.00">get_padded_baits</text>
</g>
<!-- 2&#45;&gt;0 -->
<g id="edge12" class="edge">
<title>2&#45;&gt;0</title>
<path fill="none" stroke="grey" stroke-width="2" d="M790.75,-143.96C776.58,-123.84 750.4,-90.75 720,-72 673.67,-43.42 611.37,-29.75 572.2,-23.59"/>
<polygon fill="grey" stroke="grey" stroke-width="2" points="572.69,-20.12 562.28,-22.11 571.65,-27.05 572.69,-20.12"/>
</g>
<!-- 12 -->
<g id="node13" class="node">
<title>12</title>
<path fill="none" stroke="#5673d8" stroke-width="2" d="M849.5,-108C849.5,-108 784.5,-108 784.5,-108 778.5,-108 772.5,-102 772.5,-96 772.5,-96 772.5,-84 772.5,-84 772.5,-78 778.5,-72 784.5,-72 784.5,-72 849.5,-72 849.5,-72 855.5,-72 861.5,-78 861.5,-84 861.5,-84 861.5,-96 861.5,-96 861.5,-102 855.5,-108 849.5,-108"/>
<text text-anchor="middle" x="817" y="-87.5" font-family="sans" font-size="10.00">depth_of_baits</text>
</g>
<!-- 2&#45;&gt;12 -->
<g id="edge25" class="edge">
<title>2&#45;&gt;12</title>
<path fill="none" stroke="grey" stroke-width="2" d="M805.71,-143.7C807.36,-135.98 809.35,-126.71 811.19,-118.11"/>
<polygon fill="grey" stroke="grey" stroke-width="2" points="814.66,-118.62 813.33,-108.1 807.82,-117.15 814.66,-118.62"/>
</g>
<!-- 3&#45;&gt;0 -->
<g id="edge3" class="edge">
<title>3&#45;&gt;0</title>
<path fill="none" stroke="grey" stroke-width="2" d="M635.76,-863.87C651.5,-855.16 668.62,-843.18 680,-828 704.72,-795.03 706,-780.21 706,-739 706,-739 706,-739 706,-161 706,-91.72 621.9,-49.77 571.66,-30.9"/>
<polygon fill="grey" stroke="grey" stroke-width="2" points="572.69,-27.55 562.1,-27.43 570.3,-34.13 572.69,-27.55"/>
</g>
<!-- 4 -->
<g id="node5" class="node">
<title>4</title>
<path fill="none" stroke="#56d8a9" stroke-width="2" d="M659.5,-828C659.5,-828 534.5,-828 534.5,-828 528.5,-828 522.5,-822 522.5,-816 522.5,-816 522.5,-804 522.5,-804 522.5,-798 528.5,-792 534.5,-792 534.5,-792 659.5,-792 659.5,-792 665.5,-792 671.5,-798 671.5,-804 671.5,-804 671.5,-816 671.5,-816 671.5,-822 665.5,-828 659.5,-828"/>
<text text-anchor="middle" x="597" y="-807.5" font-family="sans" font-size="10.00">snv_indels_haplotypecaller</text>
</g>
<!-- 3&#45;&gt;4 -->
<g id="edge16" class="edge">
<title>3&#45;&gt;4</title>
<path fill="none" stroke="grey" stroke-width="2" d="M597,-863.7C597,-855.98 597,-846.71 597,-838.11"/>
<polygon fill="grey" stroke="grey" stroke-width="2" points="600.5,-838.1 597,-828.1 593.5,-838.1 600.5,-838.1"/>
</g>
<!-- 4&#45;&gt;0 -->
<g id="edge11" class="edge">
<title>4&#45;&gt;0</title>
<path fill="none" stroke="grey" stroke-width="2" d="M618.97,-791.79C629.6,-782.33 641.62,-769.74 649,-756 668.15,-720.37 668,-707.45 668,-667 668,-667 668,-667 668,-161 668,-104.24 610.7,-60.82 571.32,-37.67"/>
<polygon fill="grey" stroke="grey" stroke-width="2" points="572.66,-34.41 562.24,-32.5 569.2,-40.49 572.66,-34.41"/>
</g>
<!-- 7 -->
<g id="node8" class="node">
<title>7</title>
<path fill="none" stroke="#d8ac56" stroke-width="2" d="M628,-756C628,-756 552,-756 552,-756 546,-756 540,-750 540,-744 540,-744 540,-732 540,-732 540,-726 546,-720 552,-720 552,-720 628,-720 628,-720 634,-720 640,-726 640,-732 640,-732 640,-744 640,-744 640,-750 634,-756 628,-756"/>
<text text-anchor="middle" x="590" y="-735.5" font-family="sans" font-size="10.00">snv_indels_bgzip</text>
</g>
<!-- 4&#45;&gt;7 -->
<g id="edge20" class="edge">
<title>4&#45;&gt;7</title>
<path fill="none" stroke="grey" stroke-width="2" d="M595.27,-791.7C594.5,-783.98 593.57,-774.71 592.71,-766.11"/>
<polygon fill="grey" stroke="grey" stroke-width="2" points="596.19,-765.71 591.71,-756.1 589.22,-766.4 596.19,-765.71"/>
</g>
<!-- 5 -->
<g id="node6" class="node">
<title>5</title>
<path fill="none" stroke="#d8cb56" stroke-width="2" d="M595,-540C595,-540 521,-540 521,-540 515,-540 509,-534 509,-528 509,-528 509,-516 509,-516 509,-510 515,-504 521,-504 521,-504 595,-504 595,-504 601,-504 607,-510 607,-516 607,-516 607,-528 607,-528 607,-534 601,-540 595,-540"/>
<text text-anchor="middle" x="558" y="-519.5" font-family="sans" font-size="10.00">variant_filtration</text>
</g>
<!-- 5&#45;&gt;0 -->
<g id="edge4" class="edge">
<title>5&#45;&gt;0</title>
<path fill="none" stroke="grey" stroke-width="2" d="M580.4,-503.87C591.23,-494.43 603.48,-481.83 611,-468 630.32,-432.46 630,-419.45 630,-379 630,-379 630,-379 630,-161 630,-113.01 592.06,-68.96 564.13,-43.04"/>
<polygon fill="grey" stroke="grey" stroke-width="2" points="566.33,-40.31 556.56,-36.22 561.65,-45.52 566.33,-40.31"/>
</g>
<!-- 9 -->
<g id="node10" class="node">
<title>9</title>
<path fill="none" stroke="#5692d8" stroke-width="2" d="M590,-468C590,-468 510,-468 510,-468 504,-468 498,-462 498,-456 498,-456 498,-444 498,-444 498,-438 504,-432 510,-432 510,-432 590,-432 590,-432 596,-432 602,-438 602,-444 602,-444 602,-456 602,-456 602,-462 596,-468 590,-468"/>
<text text-anchor="middle" x="550" y="-447.5" font-family="sans" font-size="10.00">variant_annotator</text>
</g>
<!-- 5&#45;&gt;9 -->
<g id="edge22" class="edge">
<title>5&#45;&gt;9</title>
<path fill="none" stroke="grey" stroke-width="2" d="M556.02,-503.7C555.14,-495.98 554.08,-486.71 553.1,-478.11"/>
<polygon fill="grey" stroke="grey" stroke-width="2" points="556.57,-477.64 551.95,-468.1 549.61,-478.44 556.57,-477.64"/>
</g>
<!-- 6 -->
<g id="node7" class="node">
<title>6</title>
<path fill="none" stroke="#56c9d8" stroke-width="2" d="M620.5,-612C620.5,-612 495.5,-612 495.5,-612 489.5,-612 483.5,-606 483.5,-600 483.5,-600 483.5,-588 483.5,-588 483.5,-582 489.5,-576 495.5,-576 495.5,-576 620.5,-576 620.5,-576 626.5,-576 632.5,-582 632.5,-588 632.5,-588 632.5,-600 632.5,-600 632.5,-606 626.5,-612 620.5,-612"/>
<text text-anchor="middle" x="558" y="-591.5" font-family="sans" font-size="10.00">snv_indels_bcftools_concat</text>
</g>
<!-- 6&#45;&gt;5 -->
<g id="edge17" class="edge">
<title>6&#45;&gt;5</title>
<path fill="none" stroke="grey" stroke-width="2" d="M558,-575.7C558,-567.98 558,-558.71 558,-550.11"/>
<polygon fill="grey" stroke="grey" stroke-width="2" points="561.5,-550.1 558,-540.1 554.5,-550.1 561.5,-550.1"/>
</g>
<!-- 7&#45;&gt;6 -->
<g id="edge18" class="edge">
<title>7&#45;&gt;6</title>
<path fill="none" stroke="grey" stroke-width="2" d="M563.42,-719.91C551.76,-710.81 539.31,-698.49 533,-684 524.1,-663.58 532.2,-639.14 541.48,-621.04"/>
<polygon fill="grey" stroke="grey" stroke-width="2" points="544.59,-622.65 546.36,-612.21 538.46,-619.27 544.59,-622.65"/>
</g>
<!-- 8 -->
<g id="node9" class="node">
<title>8</title>
<path fill="none" stroke="#56d892" stroke-width="2" d="M628,-684C628,-684 554,-684 554,-684 548,-684 542,-678 542,-672 542,-672 542,-660 542,-660 542,-654 548,-648 554,-648 554,-648 628,-648 628,-648 634,-648 640,-654 640,-660 640,-660 640,-672 640,-672 640,-678 634,-684 628,-684"/>
<text text-anchor="middle" x="591" y="-663.5" font-family="sans" font-size="10.00">snv_indels_tabix</text>
</g>
<!-- 7&#45;&gt;8 -->
<g id="edge21" class="edge">
<title>7&#45;&gt;8</title>
<path fill="none" stroke="grey" stroke-width="2" d="M590.25,-719.7C590.36,-711.98 590.49,-702.71 590.61,-694.11"/>
<polygon fill="grey" stroke="grey" stroke-width="2" points="594.11,-694.15 590.76,-684.1 587.11,-694.05 594.11,-694.15"/>
</g>
<!-- 8&#45;&gt;6 -->
<g id="edge19" class="edge">
<title>8&#45;&gt;6</title>
<path fill="none" stroke="grey" stroke-width="2" d="M582.84,-647.7C579.09,-639.73 574.55,-630.1 570.38,-621.26"/>
<polygon fill="grey" stroke="grey" stroke-width="2" points="573.49,-619.66 566.06,-612.1 567.16,-622.64 573.49,-619.66"/>
</g>
<!-- 9&#45;&gt;0 -->
<g id="edge13" class="edge">
<title>9&#45;&gt;0</title>
<path fill="none" stroke="grey" stroke-width="2" d="M558.5,-431.99C570.77,-405.82 592,-353.79 592,-307 592,-307 592,-307 592,-161 592,-117.8 569,-72.19 552.22,-44.66"/>
<polygon fill="grey" stroke="grey" stroke-width="2" points="555.09,-42.65 546.81,-36.04 549.17,-46.37 555.09,-42.65"/>
</g>
<!-- 10 -->
<g id="node11" class="node">
<title>10</title>
<path fill="none" stroke="#c6d856" stroke-width="2" d="M455,-396C455,-396 375,-396 375,-396 369,-396 363,-390 363,-384 363,-384 363,-372 363,-372 363,-366 369,-360 375,-360 375,-360 455,-360 455,-360 461,-360 467,-366 467,-372 467,-372 467,-384 467,-384 467,-390 461,-396 455,-396"/>
<text text-anchor="middle" x="415" y="-375.5" font-family="sans" font-size="10.00">detected_variants</text>
</g>
<!-- 9&#45;&gt;10 -->
<g id="edge23" class="edge">
<title>9&#45;&gt;10</title>
<path fill="none" stroke="grey" stroke-width="2" d="M516.98,-431.88C498.92,-422.51 476.35,-410.81 457.05,-400.8"/>
<polygon fill="grey" stroke="grey" stroke-width="2" points="458.64,-397.69 448.15,-396.19 455.42,-403.9 458.64,-397.69"/>
</g>
<!-- 10&#45;&gt;0 -->
<g id="edge5" class="edge">
<title>10&#45;&gt;0</title>
<path fill="none" stroke="grey" stroke-width="2" d="M450.8,-359.94C491.98,-337.53 554,-293.99 554,-235 554,-235 554,-235 554,-161 554,-120.86 546.45,-74.9 540.87,-46.4"/>
<polygon fill="grey" stroke="grey" stroke-width="2" points="544.26,-45.5 538.84,-36.39 537.39,-46.88 544.26,-45.5"/>
</g>
<!-- 11 -->
<g id="node12" class="node">
<title>11</title>
<path fill="none" stroke="#70d856" stroke-width="2" d="M197.5,-324C197.5,-324 114.5,-324 114.5,-324 108.5,-324 102.5,-318 102.5,-312 102.5,-312 102.5,-300 102.5,-300 102.5,-294 108.5,-288 114.5,-288 114.5,-288 197.5,-288 197.5,-288 203.5,-288 209.5,-294 209.5,-300 209.5,-300 209.5,-312 209.5,-312 209.5,-318 203.5,-324 197.5,-324"/>
<text text-anchor="middle" x="156" y="-303.5" font-family="sans" font-size="10.00">sample_target_list</text>
</g>
<!-- 10&#45;&gt;11 -->
<g id="edge24" class="edge">
<title>10&#45;&gt;11</title>
<path fill="none" stroke="grey" stroke-width="2" d="M362.9,-362.92C321.56,-351.75 263.61,-336.08 219.54,-324.17"/>
<polygon fill="grey" stroke="grey" stroke-width="2" points="220.37,-320.77 209.8,-321.54 218.54,-327.53 220.37,-320.77"/>
</g>
<!-- 14 -->
<g id="node15" class="node">
<title>14</title>
<path fill="none" stroke="#8fd856" stroke-width="2" d="M467,-252C467,-252 363,-252 363,-252 357,-252 351,-246 351,-240 351,-240 351,-228 351,-228 351,-222 357,-216 363,-216 363,-216 467,-216 467,-216 473,-216 479,-222 479,-228 479,-228 479,-240 479,-240 479,-246 473,-252 467,-252"/>
<text text-anchor="middle" x="415" y="-231.5" font-family="sans" font-size="10.00">get_clinical_guidelines</text>
</g>
<!-- 10&#45;&gt;14 -->
<g id="edge27" class="edge">
<title>10&#45;&gt;14</title>
<path fill="none" stroke="grey" stroke-width="2" d="M415,-359.87C415,-335.67 415,-291.21 415,-262.39"/>
<polygon fill="grey" stroke="grey" stroke-width="2" points="418.5,-262.19 415,-252.19 411.5,-262.19 418.5,-262.19"/>
</g>
<!-- 17 -->
<g id="node18" class="node">
<title>17</title>
<path fill="none" stroke="#d85656" stroke-width="2" d="M361,-108C361,-108 267,-108 267,-108 261,-108 255,-102 255,-96 255,-96 255,-84 255,-84 255,-78 261,-72 267,-72 267,-72 361,-72 361,-72 367,-72 373,-78 373,-84 373,-84 373,-96 373,-96 373,-102 367,-108 361,-108"/>
<text text-anchor="middle" x="314" y="-87.5" font-family="sans" font-size="10.00">generate_pgx_report</text>
</g>
<!-- 10&#45;&gt;17 -->
<g id="edge32" class="edge">
<title>10&#45;&gt;17</title>
<path fill="none" stroke="grey" stroke-width="2" d="M401.91,-359.79C378.02,-327.01 328.55,-252.39 315,-180 311.19,-159.62 311.1,-136.16 311.87,-118.44"/>
<polygon fill="grey" stroke="grey" stroke-width="2" points="315.38,-118.41 312.44,-108.23 308.39,-118.02 315.38,-118.41"/>
</g>
<!-- 11&#45;&gt;0 -->
<g id="edge8" class="edge">
<title>11&#45;&gt;0</title>
<path fill="none" stroke="grey" stroke-width="2" d="M151.53,-287.89C142.49,-251.89 123.81,-169.56 135,-144 153.92,-100.78 170.61,-92.7 213,-72 308.05,-25.58 435.72,-18.68 497.88,-18.34"/>
<polygon fill="grey" stroke="grey" stroke-width="2" points="497.99,-21.84 507.99,-18.35 497.99,-14.84 497.99,-21.84"/>
</g>
<!-- 13 -->
<g id="node14" class="node">
<title>13</title>
<path fill="none" stroke="#d87556" stroke-width="2" d="M115.5,-252C115.5,-252 40.5,-252 40.5,-252 34.5,-252 28.5,-246 28.5,-240 28.5,-240 28.5,-228 28.5,-228 28.5,-222 34.5,-216 40.5,-216 40.5,-216 115.5,-216 115.5,-216 121.5,-216 127.5,-222 127.5,-228 127.5,-228 127.5,-240 127.5,-240 127.5,-246 121.5,-252 115.5,-252"/>
<text text-anchor="middle" x="78" y="-231.5" font-family="sans" font-size="10.00">depth_of_targets</text>
</g>
<!-- 11&#45;&gt;13 -->
<g id="edge26" class="edge">
<title>11&#45;&gt;13</title>
<path fill="none" stroke="grey" stroke-width="2" d="M136.72,-287.7C127.08,-279.05 115.27,-268.45 104.77,-259.03"/>
<polygon fill="grey" stroke="grey" stroke-width="2" points="106.84,-256.18 97.06,-252.1 102.16,-261.39 106.84,-256.18"/>
</g>
<!-- 12&#45;&gt;0 -->
<g id="edge14" class="edge">
<title>12&#45;&gt;0</title>
<path fill="none" stroke="grey" stroke-width="2" d="M772.28,-75.88C767.47,-74.53 762.64,-73.22 758,-72 692.84,-54.88 616.32,-37.22 571.98,-27.23"/>
<polygon fill="grey" stroke="grey" stroke-width="2" points="572.75,-23.81 562.22,-25.03 571.21,-30.64 572.75,-23.81"/>
</g>
<!-- 13&#45;&gt;0 -->
<g id="edge2" class="edge">
<title>13&#45;&gt;0</title>
<path fill="none" stroke="grey" stroke-width="2" d="M74.63,-215.98C69.2,-182.99 62.73,-110.26 102,-72 130.17,-44.56 397.61,-26.76 497.56,-21.02"/>
<polygon fill="grey" stroke="grey" stroke-width="2" points="498.01,-24.5 507.8,-20.44 497.62,-17.51 498.01,-24.5"/>
</g>
<!-- 16 -->
<g id="node17" class="node">
<title>16</title>
<path fill="none" stroke="#56d873" stroke-width="2" d="M235.5,-180C235.5,-180 156.5,-180 156.5,-180 150.5,-180 144.5,-174 144.5,-168 144.5,-168 144.5,-156 144.5,-156 144.5,-150 150.5,-144 156.5,-144 156.5,-144 235.5,-144 235.5,-144 241.5,-144 247.5,-150 247.5,-156 247.5,-156 247.5,-168 247.5,-168 247.5,-174 241.5,-180 235.5,-180"/>
<text text-anchor="middle" x="196" y="-159.5" font-family="sans" font-size="10.00">append_id_to_gdf</text>
</g>
<!-- 13&#45;&gt;16 -->
<g id="edge29" class="edge">
<title>13&#45;&gt;16</title>
<path fill="none" stroke="grey" stroke-width="2" d="M106.87,-215.88C122.29,-206.72 141.48,-195.34 158.1,-185.48"/>
<polygon fill="grey" stroke="grey" stroke-width="2" points="160.21,-188.3 167.02,-180.19 156.64,-182.28 160.21,-188.3"/>
</g>
<!-- 14&#45;&gt;0 -->
<g id="edge7" class="edge">
<title>14&#45;&gt;0</title>
<path fill="none" stroke="grey" stroke-width="2" d="M454.1,-215.81C469.6,-207.16 486.25,-195.24 497,-180 525.53,-139.55 532.87,-80.6 534.62,-46.38"/>
<polygon fill="grey" stroke="grey" stroke-width="2" points="538.12,-46.33 535.01,-36.2 531.13,-46.06 538.12,-46.33"/>
</g>
<!-- 15 -->
<g id="node16" class="node">
<title>15</title>
<path fill="none" stroke="#59d856" stroke-width="2" d="M476,-180C476,-180 354,-180 354,-180 348,-180 342,-174 342,-168 342,-168 342,-156 342,-156 342,-150 348,-144 354,-144 354,-144 476,-144 476,-144 482,-144 488,-150 488,-156 488,-156 488,-168 488,-168 488,-174 482,-180 476,-180"/>
<text text-anchor="middle" x="415" y="-159.5" font-family="sans" font-size="10.00">get_interaction_guidelines</text>
</g>
<!-- 14&#45;&gt;15 -->
<g id="edge28" class="edge">
<title>14&#45;&gt;15</title>
<path fill="none" stroke="grey" stroke-width="2" d="M415,-215.7C415,-207.98 415,-198.71 415,-190.11"/>
<polygon fill="grey" stroke="grey" stroke-width="2" points="418.5,-190.1 415,-180.1 411.5,-190.1 418.5,-190.1"/>
</g>
<!-- 14&#45;&gt;17 -->
<g id="edge33" class="edge">
<title>14&#45;&gt;17</title>
<path fill="none" stroke="grey" stroke-width="2" d="M375.74,-215.93C360.21,-207.29 343.58,-195.35 333,-180 320.5,-161.87 315.98,-137.09 314.45,-118.28"/>
<polygon fill="grey" stroke="grey" stroke-width="2" points="317.94,-118.04 313.87,-108.26 310.96,-118.45 317.94,-118.04"/>
</g>
<!-- 15&#45;&gt;0 -->
<g id="edge9" class="edge">
<title>15&#45;&gt;0</title>
<path fill="none" stroke="grey" stroke-width="2" d="M429.47,-143.87C450.47,-119.03 489.5,-72.85 513.75,-44.14"/>
<polygon fill="grey" stroke="grey" stroke-width="2" points="516.69,-46.09 520.47,-36.19 511.35,-41.57 516.69,-46.09"/>
</g>
<!-- 15&#45;&gt;17 -->
<g id="edge31" class="edge">
<title>15&#45;&gt;17</title>
<path fill="none" stroke="grey" stroke-width="2" d="M390.29,-143.88C377.33,-134.89 361.27,-123.76 347.23,-114.03"/>
<polygon fill="grey" stroke="grey" stroke-width="2" points="349.02,-111.01 338.8,-108.19 345.03,-116.76 349.02,-111.01"/>
</g>
<!-- 16&#45;&gt;0 -->
<g id="edge10" class="edge">
<title>16&#45;&gt;0</title>
<path fill="none" stroke="grey" stroke-width="2" d="M200.72,-143.91C207.31,-123.41 221.34,-89.61 246,-72 285.9,-43.51 428.81,-27.92 497.55,-21.92"/>
<polygon fill="grey" stroke="grey" stroke-width="2" points="498.25,-25.38 507.92,-21.04 497.66,-18.4 498.25,-25.38"/>
</g>
<!-- 16&#45;&gt;17 -->
<g id="edge30" class="edge">
<title>16&#45;&gt;17</title>
<path fill="none" stroke="grey" stroke-width="2" d="M224.87,-143.88C240.29,-134.72 259.48,-123.34 276.1,-113.48"/>
<polygon fill="grey" stroke="grey" stroke-width="2" points="278.21,-116.3 285.02,-108.19 274.64,-110.28 278.21,-116.3"/>
</g>
<!-- 17&#45;&gt;0 -->
<g id="edge1" class="edge">
<title>17&#45;&gt;0</title>
<path fill="none" stroke="grey" stroke-width="2" d="M367.78,-71.97C408.13,-59.18 462.33,-42.02 497.94,-30.74"/>
<polygon fill="grey" stroke="grey" stroke-width="2" points="499.43,-33.94 507.91,-27.58 497.32,-27.26 499.43,-33.94"/>
</g>
</g>
</svg>
